<?xml version="1.0" standalone="no"?>
<!DOCTYPE svg PUBLIC "-//W3C//DTD SVG 20010904//EN"
 "http://www.w3.org/TR/2001/REC-SVG-20010904/DTD/svg10.dtd">
<svg version="1.0" xmlns="http://www.w3.org/2000/svg"
 width="1999.000000pt" height="533.000000pt" viewBox="0 0 1999.000000 533.000000"
 preserveAspectRatio="xMidYMid meet">

<g transform="translate(0.000000,533.000000) scale(0.100000,-0.100000)"
fill="#0f4579" stroke="none">
<path d="M370 2631 l0 -2299 23 -6 c29 -8 4561 -8 4582 0 13 5 15 56 15 425
l0 419 -150 0 -150 0 0 -280 0 -280 -2005 0 -2005 0 0 58 c0 31 0 936 0 2011
0 1557 2 1956 12 1963 7 4 910 8 2005 8 l1993 0 2 -527 3 -528 148 -3 147 -3
0 671 0 670 -2310 0 -2310 0 0 -2299z"/>
<path d="M8800 3581 c-8 -4 -33 -17 -55 -27 -42 -21 -115 -84 -115 -101 0 -6
-7 -13 -15 -17 -8 -3 -15 -17 -15 -31 0 -14 -4 -25 -8 -25 -14 0 -34 -119 -39
-227 l-4 -103 -79 0 c-57 0 -79 -4 -83 -14 -9 -22 -10 -279 -2 -298 6 -15 20
-18 86 -18 l79 0 2 -502 3 -503 167 0 c91 0 169 3 172 6 3 3 6 212 6 466 1
253 3 476 7 496 l6 37 163 0 164 0 0 165 0 165 -164 0 -163 0 -5 33 c-6 42 4
137 18 160 8 15 29 18 130 23 65 3 134 7 152 10 l32 5 0 154 0 155 -212 -1
c-117 0 -220 -4 -228 -8z"/>
<path d="M9400 3330 l0 -190 24 -6 c13 -3 85 -4 160 -2 108 2 139 6 146 18 11
16 13 311 4 348 -6 22 -9 22 -170 22 l-164 0 0 -190z"/>
<path d="M16017 3514 c-4 -4 -7 -87 -7 -184 0 -144 3 -180 15 -190 18 -15 319
-10 335 6 7 7 10 72 8 190 l-3 179 -171 3 c-93 1 -173 -1 -177 -4z"/>
<path d="M2933 3404 c-10 -4 -13 -52 -13 -190 l0 -184 113 0 c61 0 118 -4 124
-8 10 -6 13 -153 15 -658 l3 -649 183 0 c138 0 185 3 191 13 12 19 12 1225 0
1302 -6 36 -13 88 -18 115 -8 59 -29 115 -42 115 -5 0 -9 5 -9 11 0 12 -25 39
-36 39 -4 0 -17 11 -30 25 -13 14 -32 25 -43 25 -10 0 -21 5 -23 12 -2 6 -31
15 -64 20 -73 11 -334 20 -351 12z"/>
<path d="M15186 3338 c-11 -17 -14 -46 -11 -118 2 -52 -2 -112 -8 -132 l-10
-38 -73 0 -73 0 -3 -32 c-2 -18 -2 -93 0 -165 l3 -133 74 0 c41 0 77 -5 80
-10 4 -6 6 -122 6 -258 -2 -332 16 -505 56 -553 7 -8 13 -21 13 -28 0 -17 77
-91 117 -114 17 -9 42 -17 56 -17 14 0 27 -4 29 -10 4 -11 353 -26 391 -16
l27 6 0 150 c0 98 -4 151 -11 156 -6 3 -75 10 -153 15 -77 4 -142 8 -143 8 -1
1 -9 14 -18 31 -12 24 -15 80 -15 335 l0 305 170 0 169 0 6 33 c3 17 5 91 3
162 l-3 130 -170 5 -170 5 -2 130 c-2 72 -5 139 -8 150 -4 20 -13 21 -159 23
-152 3 -155 2 -170 -20z"/>
<path d="M4205 3040 c-3 -5 -21 -10 -38 -10 -18 0 -41 -7 -51 -15 -11 -8 -26
-15 -34 -15 -7 0 -28 -11 -46 -25 -18 -14 -37 -25 -41 -25 -5 0 -33 -26 -62
-57 -48 -51 -123 -180 -123 -212 0 -6 -4 -11 -10 -11 -5 0 -10 -24 -10 -53 0
-29 -5 -58 -10 -63 -20 -20 1 -454 21 -454 5 0 12 -18 15 -40 4 -22 10 -40 14
-40 4 0 10 -8 14 -17 10 -31 53 -97 65 -101 6 -2 11 -10 11 -18 0 -8 7 -14 15
-14 8 0 15 -6 15 -13 0 -8 16 -22 35 -33 19 -10 35 -22 35 -26 0 -5 7 -8 15
-8 8 0 15 -3 15 -8 0 -9 64 -32 110 -39 19 -3 38 -10 42 -16 7 -11 794 -23
829 -12 18 6 19 17 19 171 l0 164 -382 1 c-359 0 -385 2 -413 20 -16 10 -41
23 -53 29 -13 6 -26 19 -29 30 -3 11 -9 20 -14 20 -5 0 -9 10 -9 23 0 13 -6
29 -12 35 -9 9 -14 60 -16 162 -3 121 -1 155 12 181 9 18 16 40 16 51 0 10 4
18 10 18 5 0 12 11 16 25 3 14 12 25 19 25 16 0 79 32 83 43 2 4 177 7 388 7
l384 0 0 165 0 165 -419 0 c-269 0 -422 -4 -426 -10z"/>
<path d="M5630 3040 c-8 -5 -25 -10 -38 -10 -63 0 -282 -153 -282 -196 0 -8
-4 -14 -9 -14 -5 0 -13 -10 -17 -22 -4 -13 -9 -25 -13 -28 -13 -11 -41 -82
-41 -105 0 -14 -4 -25 -9 -25 -8 0 -35 -205 -35 -275 0 -48 23 -212 34 -240 4
-11 14 -40 21 -64 7 -24 19 -49 26 -57 7 -7 13 -17 13 -23 0 -24 96 -141 116
-141 2 0 15 -9 27 -21 31 -29 137 -79 167 -79 14 0 31 -5 38 -12 16 -16 513
-16 565 0 20 7 54 17 75 23 53 16 149 76 186 116 17 19 43 48 59 64 15 16 27
39 27 49 0 11 4 20 10 20 5 0 13 12 16 28 4 15 10 32 14 37 4 6 14 40 24 77
18 75 23 402 7 454 -5 16 -17 56 -27 89 -9 33 -22 66 -28 74 -11 15 -31 48
-43 71 -14 29 -125 132 -154 142 -16 5 -29 14 -29 19 0 5 -9 9 -21 9 -11 0
-27 7 -35 15 -9 8 -31 15 -49 15 -19 0 -37 5 -40 10 -8 13 -535 13 -555 0z
m496 -335 c10 -8 27 -15 37 -15 9 0 17 -4 17 -10 0 -5 7 -10 15 -10 8 0 15 -7
15 -15 0 -8 3 -15 8 -15 13 0 40 -62 48 -110 15 -89 5 -335 -15 -350 -3 -3
-15 -22 -25 -42 -11 -21 -25 -38 -33 -38 -7 0 -13 -4 -13 -9 0 -4 -19 -16 -43
-25 -34 -13 -81 -16 -234 -16 -117 0 -194 4 -198 10 -3 6 -15 10 -25 10 -10 0
-25 7 -34 15 -8 8 -17 15 -21 15 -19 0 -55 61 -68 115 -16 64 -20 265 -7 310
18 62 62 145 77 145 7 0 13 5 13 10 0 6 8 10 18 10 10 0 27 7 38 15 28 21 401
22 430 0z"/>
<path d="M6935 3030 c-16 -11 -36 -23 -42 -26 -7 -3 -13 -10 -13 -16 0 -5 -7
-16 -15 -24 -9 -9 -15 -34 -15 -59 0 -24 -4 -47 -10 -50 -6 -4 -10 -205 -10
-570 l0 -563 28 -5 c37 -8 273 -7 300 0 l22 5 2 497 3 496 245 3 c202 2 250 0
276 -13 18 -8 41 -15 52 -15 12 0 24 -4 27 -10 3 -5 15 -10 26 -10 10 0 19 -5
19 -11 0 -7 11 -22 24 -34 13 -12 27 -39 31 -61 4 -21 10 -218 14 -437 5 -328
8 -399 20 -407 17 -10 280 -14 305 -4 14 6 16 48 16 465 0 296 -4 459 -10 459
-5 0 -13 18 -16 40 -4 22 -10 40 -15 40 -5 0 -9 11 -9 24 0 13 -7 29 -15 36
-8 7 -15 19 -15 26 0 8 -4 14 -10 14 -5 0 -10 7 -10 15 0 8 -4 15 -10 15 -5 0
-29 20 -52 45 -41 44 -147 105 -180 105 -9 0 -18 5 -20 12 -8 23 -124 31 -513
34 -381 3 -401 2 -430 -16z"/>
<path d="M9400 2386 l0 -664 23 -6 c29 -8 271 -8 291 0 14 6 16 74 16 670 l0
664 -165 0 -165 0 0 -664z"/>
<path d="M10240 3041 c-8 -4 -33 -17 -55 -27 -22 -10 -42 -22 -45 -25 -3 -3
-15 -11 -27 -18 -13 -6 -23 -16 -23 -22 0 -5 -9 -20 -20 -32 -12 -12 -23 -33
-26 -47 -3 -14 -9 -33 -14 -42 -5 -9 -14 -54 -20 -100 -14 -108 -13 -973 1
-999 9 -17 23 -19 159 -19 81 0 155 3 164 6 14 5 16 57 16 477 l0 470 32 29
32 28 263 0 263 0 0 165 0 165 -342 -1 c-189 0 -350 -4 -358 -8z"/>
<path d="M11225 3040 c-3 -5 -13 -10 -22 -10 -24 0 -83 -68 -83 -95 0 -13 -4
-27 -10 -30 -6 -4 -10 -213 -10 -595 l0 -590 23 -4 c12 -3 86 -4 165 -3 114 2
145 5 152 17 6 9 10 182 10 430 0 228 0 448 0 488 l0 72 269 0 c148 0 276 -3
285 -6 14 -5 16 -59 16 -499 l0 -493 23 -5 c35 -8 261 -9 290 -2 l27 7 2 497
3 496 178 3 c143 2 183 0 207 -13 16 -8 38 -15 50 -15 11 0 20 -4 20 -10 0 -5
7 -10 15 -10 18 0 65 -47 65 -65 0 -8 4 -15 8 -15 22 0 32 -161 32 -505 -1
-342 0 -360 18 -366 21 -8 253 -10 295 -2 l27 5 0 438 c0 369 -2 442 -15 466
-8 16 -15 36 -15 44 0 28 -26 90 -48 115 -12 14 -22 31 -22 39 0 7 -11 22 -25
32 -14 10 -25 24 -25 31 0 7 -5 13 -10 13 -6 0 -23 11 -38 25 -15 14 -32 25
-39 25 -7 0 -13 4 -13 9 0 5 -13 12 -30 16 -16 4 -30 11 -30 16 0 5 -11 9 -24
9 -13 0 -26 4 -28 10 -9 28 -146 34 -910 37 -517 2 -779 0 -783 -7z"/>
<path d="M13590 2885 l0 -165 420 0 c368 0 424 -2 454 -16 39 -19 56 -49 56
-99 0 -69 24 -65 -354 -65 -285 0 -345 -2 -362 -15 -10 -8 -34 -15 -51 -15
-18 0 -33 -4 -33 -9 0 -5 -11 -12 -25 -15 -14 -4 -25 -11 -25 -16 0 -6 -5 -10
-12 -10 -16 0 -80 -72 -99 -112 -50 -103 -65 -250 -34 -325 8 -19 15 -46 15
-59 0 -13 4 -24 9 -24 5 0 13 -9 16 -21 23 -70 159 -179 225 -179 16 0 30 -6
32 -12 4 -10 100 -13 436 -13 331 0 434 3 443 13 7 6 22 12 34 12 25 0 80 48
89 78 4 12 11 22 16 22 18 0 23 91 27 454 2 251 0 383 -7 390 -5 5 -10 30 -10
54 0 25 -6 50 -15 58 -8 9 -15 24 -15 35 0 10 -4 19 -8 19 -5 0 -17 15 -26 33
-10 17 -40 48 -67 67 -27 19 -49 38 -49 43 0 4 -11 7 -24 7 -13 0 -26 5 -28
11 -9 27 -105 33 -560 36 l-468 3 0 -165z m928 -732 l3 -103 -296 0 c-332 0
-341 2 -364 65 -11 31 -11 45 -1 75 21 64 55 70 380 67 l275 -2 3 -102z"/>
<path d="M16010 2386 l0 -665 53 -5 c93 -11 288 -1 298 15 10 15 12 1279 3
1304 -5 12 -36 15 -180 15 l-174 0 0 -664z"/>
<path d="M17005 3040 c-3 -5 -21 -10 -40 -10 -18 0 -40 -7 -49 -15 -8 -8 -18
-15 -22 -15 -15 0 -84 -34 -84 -42 0 -4 -4 -8 -10 -8 -12 0 -120 -107 -120
-119 0 -5 -3 -11 -7 -13 -11 -4 -41 -67 -49 -100 -3 -16 -10 -28 -14 -28 -9 0
-15 -41 -32 -208 -14 -137 5 -345 37 -417 7 -16 19 -43 26 -60 27 -60 134
-185 159 -185 5 0 10 -4 10 -10 0 -5 11 -12 25 -16 14 -3 25 -9 25 -13 0 -8
52 -30 105 -43 79 -20 351 -31 479 -20 66 6 137 14 156 17 37 7 156 61 162 73
5 12 76 62 87 62 6 0 11 8 11 18 0 11 10 27 21 38 12 10 25 28 30 39 5 11 13
27 18 35 25 42 52 128 63 205 21 133 9 389 -20 442 -7 12 -12 33 -12 47 0 14
-4 26 -10 26 -5 0 -10 11 -10 24 0 13 -7 26 -15 30 -8 3 -15 13 -15 22 0 9
-11 27 -25 40 -14 13 -25 27 -25 32 0 5 -19 24 -41 43 -23 19 -47 39 -53 44
-19 16 -77 45 -91 45 -7 0 -18 6 -24 14 -7 8 -31 17 -54 21 -71 12 -585 17
-592 5z m498 -336 c18 -9 43 -23 57 -30 14 -6 30 -22 36 -34 7 -12 17 -27 23
-33 6 -6 11 -20 11 -32 0 -12 5 -26 11 -32 17 -17 23 -209 10 -273 -7 -30 -15
-68 -18 -84 -7 -37 -65 -93 -121 -117 -38 -16 -70 -19 -232 -19 -104 0 -191 4
-194 9 -3 4 -18 11 -33 14 -36 8 -93 60 -93 86 0 10 -5 21 -11 23 -13 4 -32
125 -32 203 1 85 19 199 32 203 6 2 11 13 11 24 0 29 54 75 96 82 19 4 34 11
34 16 0 6 76 10 191 10 158 0 196 -3 222 -16z"/>
<path d="M18330 3040 c0 -5 -7 -10 -15 -10 -9 0 -27 -12 -41 -27 -55 -60 -54
-47 -52 -692 l3 -596 151 -1 c83 -1 157 2 165 7 12 7 14 88 15 481 0 260 1
483 2 496 l2 23 258 -3 c243 -3 260 -5 317 -27 62 -25 115 -72 115 -102 0 -10
6 -19 13 -21 9 -4 13 -102 17 -429 l5 -424 155 -2 c85 -1 163 1 173 4 16 4 17
32 17 398 0 391 -3 430 -38 560 -17 65 -83 181 -117 205 -11 8 -32 27 -47 42
-15 16 -30 28 -33 28 -3 0 -23 11 -45 25 -22 14 -50 25 -63 25 -13 0 -28 5
-35 12 -6 6 -35 16 -64 21 -75 14 -858 20 -858 7z"/>
</g>
</svg>
