<?xml version="1.0" encoding="UTF-8"?>
<svg width="70px" height="60px" viewBox="0 0 70 60" version="1.1" xmlns="http://www.w3.org/2000/svg" xmlns:xlink="http://www.w3.org/1999/xlink">
    <!-- Generator: Sketch 59.1 (86144) - https://sketch.com -->
    <title>Group 9</title>
    <desc>Created with Sketch.</desc>
    <defs>
        <polygon id="path-1" points="0 0.459586207 64.9290069 0.459586207 64.9290069 58.4137931 0 58.4137931"></polygon>
        <polygon id="path-3" points="0.0240413793 0.254413793 38.512069 0.254413793 38.512069 58.2438138 0.0240413793 58.2438138"></polygon>
    </defs>
    <g id="Page-1" stroke="none" stroke-width="1" fill="none" fill-rule="evenodd">
        <g id="ACALA-Copy-4" transform="translate(-763.000000, -758.000000)">
            <g id="Group-9" transform="translate(763.000000, 758.000000)">
                <path d="M13.3277103,59.1248966 C19.330331,53.9241379 26.8792276,51.0473793 34.6159172,51.017931 C34.6612966,51.0174483 34.7076414,51.0174483 34.7530207,51.0174483 C41.7626759,51.0174483 48.3784,53.074 53.7679172,56.8752414 L46.6462621,44.9742759 C43.5918483,44.1004828 40.3945379,43.6582759 37.1359172,43.6582759 L37.0017103,43.6582759 C31.3992966,43.6795172 25.952331,45.024 21.2512276,47.5473793 C21.0489517,47.656 20.8109517,47.6535862 20.6139862,47.5522069 C20.5488138,47.5184138 20.4879862,47.474 20.4348828,47.4184828 C20.2219862,47.1978621 20.1824,46.8623448 20.3378483,46.5977931 L33.8589517,23.5697241 L29.9795034,17.0751724 L17.7275724,37.9564138 L5.48771034,59.1248966 L13.3277103,59.1248966 Z" id="Fill-1" fill="#98A5AE"></path>
                <g id="Group-5" transform="translate(0.000000, 0.711103)">
                    <mask id="mask-2" fill="white">
                        <use xlink:href="#path-1"></use>
                    </mask>
                    <g id="Clip-4"></g>
                    <path d="M2.29638621,54.8336552 L4.26169655,57.7997241 L16.5454897,36.5568966 L29.3839724,14.6748966 C29.5065931,14.4663448 29.7296276,14.337931 29.9714897,14.3369655 L29.9743862,14.3369655 C30.2152828,14.3369655 30.4383172,14.4634483 30.5619034,14.6705517 L35.2359724,22.4951034 C35.2379034,22.498 35.2398345,22.5008966 35.2417655,22.5042759 L42.4590069,34.5862759 C42.4899034,34.6374483 42.5101793,34.6910345 42.5261103,34.7455862 C42.5304552,34.760069 42.5338345,34.7750345 42.536731,34.79 C42.5473517,34.8358621 42.5526621,34.8817241 42.5531448,34.9285517 C42.5531448,34.9391724 42.5550759,34.9497931 42.5545931,34.9604138 C42.5526621,35.0164138 42.5430069,35.0714483 42.5275586,35.1250345 C42.5236966,35.1375862 42.518869,35.1491724 42.5145241,35.1617241 C42.4985931,35.2066207 42.4783172,35.2495862 42.4536966,35.2911034 C42.4493517,35.2978621 42.4474207,35.306069 42.4430759,35.3128276 C42.4406621,35.3166897 42.4372828,35.3186207 42.4353517,35.322 C42.4025241,35.3697931 42.3643862,35.4132414 42.3194897,35.4523448 C42.3132138,35.4576552 42.3059724,35.462 42.298731,35.4673103 C42.2745931,35.4871034 42.2504552,35.5073793 42.2224552,35.5242759 C42.2060414,35.533931 42.1881793,35.5402069 42.1712828,35.5484138 C42.1601793,35.5532414 42.1500414,35.5585517 42.1389379,35.5633793 C42.0303172,35.6097241 41.9149379,35.6261379 41.8024552,35.6150345 C41.7952138,35.614069 41.7884552,35.616 41.7812138,35.6150345 C40.1340414,35.3948966 38.4385931,35.2968966 36.7532828,35.2925517 C33.5554897,35.3051034 30.4151448,35.7231724 27.4148,36.5366207 L22.6726621,44.6131724 C27.0681793,42.6415862 31.9739724,41.5978621 36.9970759,41.5790345 C37.0434207,41.5785517 37.0897655,41.5785517 37.1361103,41.5785517 C40.6168,41.5785517 44.0313517,42.0646897 47.2880414,43.0244138 C47.4531448,43.0731724 47.5936276,43.1817931 47.6819724,43.3295172 L56.7090759,58.4137931 L64.9290069,58.4137931 L41.6388,19.5444828 L30.2032138,0.459586207 L-9.65517241e-05,51.6522759 L2.29638621,54.8336552 Z" id="Fill-3" fill="#98A5AE" mask="url(#mask-2)"></path>
                </g>
                <g id="Group-8" transform="translate(31.379310, 0.228345)">
                    <mask id="mask-4" fill="white">
                        <use xlink:href="#path-3"></use>
                    </mask>
                    <g id="Clip-7"></g>
                    <polygon id="Fill-6" fill="#98A5AE" mask="url(#mask-4)" points="0.0240413793 0.282848276 34.7541793 58.2438138 38.5124552 51.9047103 7.45611034 0.254365517"></polygon>
                </g>
            </g>
        </g>
    </g>
</svg>