<svg id="Layer_1" data-name="Layer 1" xmlns="http://www.w3.org/2000/svg" viewBox="0 0 313.05 41.93"><defs><style>.cls-1{fill:#07233b;}</style></defs><path class="cls-1" d="M17,18V60H125.63V18ZM55.14,52.56,42.52,30.68,29.69,52.56H24.54L40.82,25.39h3.37L60.36,52.56Zm35.46,0H66.09V25.39h4.66V48.55H90.6Zm27.57-23.15H105.69V52.56h-4.62V29.41H88.24v-4h29.93Z" transform="translate(-16.98 -18.03)"/><path class="cls-1" d="M139.83,52.56a11.41,11.41,0,0,1-3.55-.48,6.24,6.24,0,0,1-2.38-1.35,5.08,5.08,0,0,1-1.34-2.07,7.94,7.94,0,0,1-.42-2.66V32a8,8,0,0,1,.42-2.66,5,5,0,0,1,1.34-2.06,6.24,6.24,0,0,1,2.38-1.35,11.1,11.1,0,0,1,3.55-.49H156a11.19,11.19,0,0,1,3.55.49,6.24,6.24,0,0,1,2.38,1.35,5.15,5.15,0,0,1,1.34,2.06,8,8,0,0,1,.42,2.66V46a7.94,7.94,0,0,1-.42,2.66,5.19,5.19,0,0,1-1.34,2.07,6.24,6.24,0,0,1-2.38,1.35,11.5,11.5,0,0,1-3.55.48Zm19.22-20.64c0-1.68-1-2.51-3.06-2.51H139.83c-2,0-3.06.83-3.06,2.51V46c0,1.67,1,2.51,3.06,2.51H156c2,0,3.06-.84,3.06-2.51Z" transform="translate(-16.98 -18.03)"/><path class="cls-1" d="M201.64,52.56,175.53,31.41V52.56h-4V25.39h4l24.37,20.19V25.39h4V52.56Z" transform="translate(-16.98 -18.03)"/><path class="cls-1" d="M219.41,52.56a11.5,11.5,0,0,1-3.55-.48,6.24,6.24,0,0,1-2.38-1.35,5.19,5.19,0,0,1-1.34-2.07,7.94,7.94,0,0,1-.42-2.66V32a8,8,0,0,1,.42-2.66,5.15,5.15,0,0,1,1.34-2.06,6.24,6.24,0,0,1,2.38-1.35,11.19,11.19,0,0,1,3.55-.49h16.16a11.1,11.1,0,0,1,3.55.49,6.17,6.17,0,0,1,2.38,1.35,5,5,0,0,1,1.34,2.06,8,8,0,0,1,.42,2.66V46a7.94,7.94,0,0,1-.42,2.66,5.08,5.08,0,0,1-1.34,2.07,6.17,6.17,0,0,1-2.38,1.35,11.41,11.41,0,0,1-3.55.48Zm19.22-20.64c0-1.68-1-2.51-3.06-2.51H219.41c-2,0-3.06.83-3.06,2.51V46c0,1.67,1,2.51,3.06,2.51h16.16c2,0,3.06-.84,3.06-2.51Z" transform="translate(-16.98 -18.03)"/><path class="cls-1" d="M284.08,52.56v-19l-12.45,19h-3.79l-12.48-19v19h-4.28V25.39h4.31l14.54,22.19,14.46-22.19h4V52.56Z" transform="translate(-16.98 -18.03)"/><path class="cls-1" d="M309.8,52.56v-11L294.09,25.39H300l12.1,12.43,12.1-12.43H330L314.43,41.53v11Z" transform="translate(-16.98 -18.03)"/></svg>