<?xml version="1.0" encoding="UTF-8"?>
<svg width="133px" height="44px" viewBox="0 0 133 44" version="1.1" xmlns="http://www.w3.org/2000/svg" xmlns:xlink="http://www.w3.org/1999/xlink">
    <title>Ankr New logo - Marco Robustelli</title>
    <g id="Page-1" stroke="none" stroke-width="1" fill="none" fill-rule="evenodd">
        <g id="ACALA-Copy-5" transform="translate(-1131.000000, -9401.000000)" fill="#569AEF">
            <g id="Ankr-New-logo---Marco-Robustelli" transform="translate(1131.000000, 9401.000000)">
                <path d="M131.206723,32.0290593 C131.854775,31.8998392 132.511047,32.2099518 132.822686,32.7926607 C133.134326,33.3753697 133.027905,34.0933792 132.560642,34.5606419 C132.093379,35.0279046 131.37537,35.1343256 130.792661,34.8226862 C130.209952,34.5110469 129.899839,33.8547746 130.029059,33.2067229 C130.148085,32.6125342 130.612534,32.1480853 131.206723,32.0290593 Z M131.393717,34.7185883 C131.755511,34.7533562 132.113957,34.6249257 132.371347,34.3683048 C132.628738,34.111684 132.758241,33.7536245 132.724556,33.3917275 C132.665886,32.8024877 132.19979,32.3363917 131.61055,32.2777214 C131.248556,32.2435973 130.890179,32.372522 130.632884,32.6294326 C130.375589,32.8863432 130.246128,33.2445272 130.279711,33.6065715 C130.337937,34.1964174 130.805656,34.6624694 131.395706,34.7185883 L131.393717,34.7185883 Z M131.240541,33.6881327 L131.240541,34.2172856 L130.964029,34.2172856 L130.964029,32.7810134 L131.624475,32.7810134 C131.849128,32.7824438 132.039812,32.9460952 132.075306,33.1679306 C132.110799,33.3897661 131.980696,33.6047436 131.767705,33.6761969 L132.085992,34.2172856 L131.78163,34.2172856 L131.485224,33.6881327 L131.240541,33.6881327 Z M131.6384,33.4693101 C131.681915,33.4713059 131.724128,33.4541851 131.753959,33.4224423 C131.783789,33.3906994 131.798258,33.347505 131.793565,33.3041984 L131.793565,33.1609691 C131.797995,33.1186131 131.783077,33.0765196 131.752963,33.0464061 C131.72285,33.0162925 131.680756,33.0013742 131.6384,33.0058039 L131.240541,33.0058039 L131.240541,33.4693101 L131.6384,33.4693101 Z" id="Shape"></path>
                <path d="M59.3653036,10.6578161 L51,36 L56.6390007,36 L58.467016,29.838699 L58.7207823,29.91769 C61.5221223,30.7981116 64.5120842,30.8053841 67.317395,29.9385994 L67.5734069,29.8596084 L69.3699822,36 L75,36 L66.6908393,10.6764023 C66.1641221,9.07623683 64.7114543,8 63.0774773,8 L62.9584542,8 C61.3366211,8.00642624 59.8957305,9.07223805 59.3653036,10.6578161 Z M66.277627,25.3803518 L66.0238608,25.4593428 C64.0752578,26.062169 61.9980017,26.0565117 60.0524937,25.44308 L59.7987274,25.3617657 L62.8192196,15.1626286 C62.8519893,15.0524852 62.9503612,14.9773285 63.0617573,14.9773285 C63.1731534,14.9773285 63.2715252,15.0524852 63.3042949,15.1626286 L66.277627,25.3803518 Z" id="Shape"></path>
                <path d="M118.346672,14.9947748 L112.194306,14.9947748 L106.191997,23.1088994 L106.191997,8 L101,8 L101,36 L106.189688,36 L106.189688,25.9235299 L113.212389,36 L119,36 L111.321662,25.117691 C111.053325,24.737478 111.06649,24.2247734 111.353982,23.8590031 L118.346672,14.9947748 Z" id="Path"></path>
                <path d="M90.8623667,15 L82.6097004,15 C81.3883439,14.9988287 80.2165293,15.4671211 79.3520426,16.3018602 C78.487556,17.1365992 78.0012117,18.2694075 78,19.4510797 L78,35 L83.1376333,35 L83.1376333,20.5942526 C83.1376327,20.2906808 83.2624323,19.9995747 83.4845131,19.7851245 C83.7065939,19.5706743 84.0077169,19.4504925 84.321483,19.4510797 L89.678517,19.4510797 C89.9922831,19.4504925 90.2934061,19.5706743 90.5154869,19.7851245 C90.7375677,19.9995747 90.8623673,20.2906808 90.8623667,20.5942526 L90.8623667,35 L96,35 L96,19.4510797 C95.9974768,16.9912387 93.9350362,14.9987802 91.3925851,15 L90.8623667,15 Z" id="Path"></path>
                <path d="M133,15 L125.769261,15 C124.505628,14.9988287 123.293252,15.4671211 122.398842,16.3018602 C121.504432,17.1365992 121.001254,18.2694075 121,19.4510797 L121,35 L126.317833,35 L126.317833,20.5942526 C126.317203,20.2908842 126.445796,19.9997717 126.675189,19.7852575 C126.904582,19.5707433 127.215886,19.4504912 127.540296,19.4510797 L133,19.4510797 L133,15 Z" id="Path"></path>
                <path d="M17.6606346,0.68857229 C19.4402757,-0.229524097 21.5484075,-0.229524097 23.3280486,0.68857229 L37.6153617,8.07572364 C39.6895781,9.13903345 40.9941367,11.2902728 40.988678,13.6383514 L40.988678,17.006527 L35.7194364,17.006527 L35.7194364,13.6383514 C35.7195011,13.2894436 35.5277921,12.9692986 35.2216994,12.8071541 L20.9230741,5.41086873 C20.6544646,5.27260188 20.336481,5.27260188 20.0678715,5.41086873 L5.77829598,12.8071541 C5.46565665,12.9684778 5.2690169,13.293088 5.26924682,13.6474854 L5.26924682,17.0156611 L1.11708044e-05,17.0156611 L1.11708044e-05,13.6383514 C-0.00440326454,11.2905702 1.2998453,9.13984213 3.3733215,8.07572364 L17.6606346,0.68857229 Z M20.4954728,17.2325944 C18.0095375,17.2363773 15.9970927,19.273013 16.0000036,21.7820988 C16.0029209,24.2911847 18.0200909,26.3230528 20.5060282,26.3209548 C22.9919655,26.3188535 25.0057636,24.2835809 25.0045177,21.7744936 C24.9995262,19.2645952 22.9822194,17.2325944 20.4954728,17.2325944 L20.4954728,17.2325944 Z M20.4954728,11.9234175 C25.3774241,11.9150653 29.5142395,15.5494902 30.1790556,20.4310081 C30.8438716,25.3125259 27.8320763,29.9387398 23.1289538,31.2601897 L23.1289538,37.4484989 L35.2216994,31.203102 C35.5355856,31.0428123 35.7333313,30.717821 35.733011,30.3627707 L35.733011,26.994595 L40.9999865,26.994595 L40.9999865,30.3627707 C41.0048311,32.7100473 39.7015344,34.8606483 37.6289363,35.9253984 L23.3393608,43.3125498 C21.5593631,44.2291501 19.4519445,44.2291501 17.6719468,43.3125498 L3.3733215,35.9253984 C1.30021495,34.8608762 -0.00387891858,32.7104032 1.36693725e-05,30.3627707 L1.36693725e-05,26.994595 L5.26924682,26.994595 L5.26924682,30.3627707 C5.26892655,30.717821 5.4666722,31.0428123 5.78055842,31.203102 L17.8597294,37.4484989 L17.8597294,31.2601897 C13.1561849,29.9386293 10.1443308,25.311749 10.8097669,20.4298731 C11.4752029,15.5479972 15.6130877,11.9139145 20.4954728,11.9234175 Z" id="Shape"></path>
            </g>
        </g>
    </g>
</svg>