<?xml version="1.0" encoding="UTF-8"?>
<svg width="170px" height="40px" viewBox="0 0 170 40" version="1.1" xmlns="http://www.w3.org/2000/svg" xmlns:xlink="http://www.w3.org/1999/xlink">
    <title>test</title>
    <g id="Page-1" stroke="none" stroke-width="1" fill="none" fill-rule="evenodd">
        <g id="ACALA-Copy-5" transform="translate(-1365.000000, -9403.000000)" fill="#084046" fill-rule="nonzero">
            <g id="test" transform="translate(1365.000000, 9403.000000)">
                <path d="M60.67898,12.57946 C62.719,12.57946 63.877,13.76305 64.3345,15.5692 L68.6288,15.5692 C67.8973,11.2769 64.8218,8.90869 60.6491,8.90869 C58.33504,8.90869 56.38467,9.677921 54.8011,11.21741 C53.85734,12.13536 53.278309,13.17125 53.035158,14.38459 C52.792006,15.5692 52.6694,17.31587 52.6694,19.62459 C52.6694,21.93329 52.792006,23.67999 53.035158,24.86459 C53.278309,26.04819 53.85734,27.11279 54.8011,28.03079 C56.38467,29.57019 58.33504,30.33949 60.6491,30.33949 C64.7909,30.33949 67.8973,27.97229 68.6288,23.67999 L64.3345,23.67999 C63.877,25.48509 62.719,26.66969 60.67898,26.66969 C59.52195,26.66969 58.60807,26.31489 57.96825,25.57429 C57.08631,24.65639 56.90292,23.70969 56.90292,19.62459 C56.90292,15.53946 57.08631,14.59177 57.96825,13.67484 C58.60807,12.93433 59.52195,12.57946 60.67898,12.57946 Z" id="Path"></path>
                <path d="M84.95018,17.7 L84.95121,17.7 L84.95121,17.52051 L84.95018,17.52051 L84.95018,17.7 Z M84.95138,9.09053256 L84.95035,9.09053256 L84.95035,13.30592 L84.95035,17.5172 L80.7158,17.5172 L80.7158,21.73153 L84.95035,21.73153 L84.95035,21.34183 L84.95138,21.34183 L84.95138,21.73563 L84.95035,21.73563 L84.95035,25.95003 L84.95035,30.16543 L89.18386,30.16543 L89.18386,30.16233 L89.18386,25.95003 L89.18386,21.73563 L89.18386,17.52028 L89.18386,13.30592 L89.18386,9.09053256 L89.18386,9.08643 L84.95138,9.08643 L84.95138,9.09053256 Z" id="Shape"></path>
                <polygon id="Path" points="73.3774 30.16281 77.61092 30.16281 77.61092 23.54541 77.61092 21.34131 77.61092 17.70024 77.61092 15.41306 77.61092 9.08691 73.3774 9.08691"></polygon>
                <path d="M104.8306,25.54469 C104.2217,26.22579 103.27694,26.66989 102.11991,26.66989 C100.96288,26.66989 99.98822,26.22579 99.37931,25.54469 C98.55609,24.65649 98.34282,23.68009 98.34282,19.62469 C98.34282,15.56831 98.55609,14.5919 99.37931,13.70472 C99.98822,13.02369 100.96288,12.57959 102.11991,12.57959 C103.27694,12.57959 104.2217,13.02369 104.8306,13.70472 C105.6528,14.5919 105.897,15.56831 105.897,19.62469 C105.897,23.68009 105.6528,24.65649 104.8306,25.54469 Z M102.12015,8.90869 C99.65361,8.90869 97.76506,9.737408 96.24227,11.21741 C94.0487578,13.34869 94.110576,15.98356 94.110576,19.62459 C94.110576,23.26559 94.0487578,25.89949 96.24227,28.03079 C97.76506,29.51079 99.65361,30.33949 102.12015,30.33949 C104.5877,30.33949 106.4443,29.51079 107.9682,28.03079 C110.1606,25.89949 110.130821,23.26559 110.130821,19.62459 C110.130821,15.98356 110.1606,13.34869 107.9682,11.21741 C106.4443,9.737408 104.5877,8.90869 102.12015,8.90869 Z" id="Shape"></path>
                <path d="M122.89379,18.32196 L118.90342,18.32196 L118.90342,12.75683 L122.89379,12.75683 C124.7514,12.75683 125.9692,13.9117 125.9692,15.54042 C125.9692,17.16811 124.7514,18.32196 122.89379,18.32196 Z M130.2038,15.54024 C130.2038,12.01717 127.5838,9.08691 123.16791,9.08691 L114.671,9.08691 L114.671,30.16281 L118.90348,30.16281 L118.90348,21.75561 L121.94906,21.75561 L126.1826,30.16281 L131.0858,30.16281 L126.2434,21.07561 C128.3452,20.33511 130.2038,18.49922 130.2038,15.54024 Z" id="Shape"></path>
                <path d="M146.5248,22.79203 C146.5248,25.21873 145.0319,26.67003 142.7477,26.67003 C140.46351,26.67003 139.00152,25.21873 139.00152,22.79203 L139.00152,9.08643 L134.768,9.08643 L134.768,22.94083 C134.768,27.40953 138.30194,30.33973 142.7477,30.33973 C147.1945,30.33973 150.7274,27.40953 150.7274,22.94083 L150.7274,9.08643 L146.5248,9.08643 L146.5248,22.79203 Z" id="Path"></path>
                <path d="M168.1481,19.4764 C167.2342,18.64769 165.9855,18.11435 164.0053,17.84871 L161.44703,17.49282 C160.56406,17.37487 159.86345,17.04871 159.43691,16.6641 C158.98152,16.24974 158.79812,15.68769 158.79812,15.15435 C158.79812,13.7041 159.89333,12.48974 162.14867,12.48974 C163.57873,12.48974 165.2241,12.6682 166.5944,13.94102 L169.2753,11.36564 C167.4166,9.618969 165.254,8.9082 162.27024,8.9082 C157.57927,8.9082 154.717091,11.54307 154.717091,15.30205 C154.717091,17.07846 155.2343,18.44051 156.26976,19.4467 C157.24442,20.3646 158.61473,20.9267 160.47339,21.1933 L163.09242,21.5482 C164.097,21.6969 164.5843,21.9041 165.0108,22.2887 C165.4673,22.7031 165.6805,23.3236 165.6805,24.0651 C165.6805,25.7513 164.3412,26.6692 161.8437,26.6692 C159.83358,26.6692 157.97594,26.2251 156.60461,24.8928 L153.864,27.5574 C155.9957,29.659 158.49315,30.34 161.78188,30.34 C166.3214,30.34 169.8234,28.0313 169.8234,23.9461 C169.8234,22.0815 169.3052,20.542 168.1481,19.4764 Z" id="Path"></path>
                <polygon id="Path" points="0.0107422 34.88793 4.3915922 39.24895 8.7724422 34.88793 4.3915922 30.5269"></polygon>
                <polygon id="Path" points="39.438 4.36103 35.05715 0 30.6763 4.36103 35.05715 8.72205"></polygon>
                <path d="M24.10498,23.98538 L19.72408,28.34648 L15.34328,23.98538 L10.9624,19.62438 L15.34328,15.26338 L19.72408,10.90235 L24.10498,15.26338 L28.48578,19.62438 L24.10498,23.98538 Z M37.24748,19.62428 L32.86658,15.26328 L28.48578,10.90223 L24.10488,6.54121 L19.72408,2.18018 L15.34318,6.54121 L10.96238,10.90223 L6.58153,15.26328 L2.20068,19.62428 L6.58153,23.98528 L10.96238,28.34638 L15.34318,32.70738 L19.72408,37.06838 L24.10488,32.70738 L28.48578,28.34638 L32.86658,23.98528 L37.24748,19.62428 Z" id="Shape"></path>
                <polygon id="Path" points="30.6714 34.89573 35.05225 39.25675 39.4331 34.89573 35.05225 30.5347"></polygon>
                <polygon id="Path" points="8.76121172 4.36395969 4.38036172 0.00292969 -0.000488281 4.36395969 4.38036172 8.72497969"></polygon>
            </g>
        </g>
    </g>
</svg>