<?xml version="1.0" encoding="UTF-8"?>
<svg width="753px" height="776px" viewBox="0 0 753 776" version="1.1" xmlns="http://www.w3.org/2000/svg" xmlns:xlink="http://www.w3.org/1999/xlink">
    <!-- Generator: Sketch 59.1 (86144) - https://sketch.com -->
    <title>Group 45</title>
    <desc>Created with Sketch.</desc>
    <defs>
        <linearGradient x1="50%" y1="0%" x2="50%" y2="100%" id="linearGradient-1">
            <stop stop-color="#FFFFFF" offset="0%"></stop>
            <stop stop-color="#00C1FF" offset="21.7694257%"></stop>
            <stop stop-color="#3B25FF" offset="100%"></stop>
        </linearGradient>
        <linearGradient x1="50%" y1="0%" x2="50%" y2="100%" id="linearGradient-2">
            <stop stop-color="#FFFFFF" offset="0%"></stop>
            <stop stop-color="#00C1FF" offset="21.7694257%"></stop>
            <stop stop-color="#3B25FF" offset="100%"></stop>
        </linearGradient>
        <linearGradient x1="50%" y1="0%" x2="50%" y2="100%" id="linearGradient-3">
            <stop stop-color="#FFFFFF" offset="0%"></stop>
            <stop stop-color="#00C1FF" offset="21.7694257%"></stop>
            <stop stop-color="#3B25FF" offset="100%"></stop>
        </linearGradient>
        <linearGradient x1="50%" y1="0%" x2="50%" y2="100%" id="linearGradient-4">
            <stop stop-color="#FFFFFF" offset="0%"></stop>
            <stop stop-color="#00C1FF" offset="21.7694257%"></stop>
            <stop stop-color="#3B25FF" offset="100%"></stop>
        </linearGradient>
        <linearGradient x1="50%" y1="0%" x2="50%" y2="100%" id="linearGradient-5">
            <stop stop-color="#FFFFFF" offset="0%"></stop>
            <stop stop-color="#00C1FF" offset="21.7694257%"></stop>
            <stop stop-color="#3B25FF" offset="100%"></stop>
        </linearGradient>
        <linearGradient x1="50%" y1="0%" x2="50%" y2="100%" id="linearGradient-6">
            <stop stop-color="#FFFFFF" offset="0%"></stop>
            <stop stop-color="#00C1FF" offset="21.7694257%"></stop>
            <stop stop-color="#3B25FF" offset="100%"></stop>
        </linearGradient>
        <linearGradient x1="50%" y1="0%" x2="50%" y2="100%" id="linearGradient-7">
            <stop stop-color="#FFFFFF" offset="0%"></stop>
            <stop stop-color="#00C1FF" offset="21.7694257%"></stop>
            <stop stop-color="#3B25FF" offset="100%"></stop>
        </linearGradient>
        <linearGradient x1="50%" y1="0%" x2="50%" y2="100%" id="linearGradient-8">
            <stop stop-color="#FFFFFF" offset="0%"></stop>
            <stop stop-color="#00C1FF" offset="21.7694257%"></stop>
            <stop stop-color="#3B25FF" offset="100%"></stop>
        </linearGradient>
        <linearGradient x1="50%" y1="0%" x2="50%" y2="100%" id="linearGradient-9">
            <stop stop-color="#FFFFFF" offset="0%"></stop>
            <stop stop-color="#00C1FF" offset="21.7694257%"></stop>
            <stop stop-color="#3B25FF" offset="100%"></stop>
        </linearGradient>
        <linearGradient x1="50%" y1="0%" x2="50%" y2="100%" id="linearGradient-10">
            <stop stop-color="#FFFFFF" offset="0%"></stop>
            <stop stop-color="#00C1FF" offset="21.7694257%"></stop>
            <stop stop-color="#3B25FF" offset="100%"></stop>
        </linearGradient>
        <linearGradient x1="50%" y1="0%" x2="50%" y2="100%" id="linearGradient-11">
            <stop stop-color="#FFFFFF" offset="0%"></stop>
            <stop stop-color="#00C1FF" offset="21.7694257%"></stop>
            <stop stop-color="#3B25FF" offset="100%"></stop>
        </linearGradient>
        <linearGradient x1="50%" y1="0%" x2="50%" y2="100%" id="linearGradient-12">
            <stop stop-color="#FFFFFF" offset="0%"></stop>
            <stop stop-color="#00C1FF" offset="21.7694257%"></stop>
            <stop stop-color="#3B25FF" offset="100%"></stop>
        </linearGradient>
        <linearGradient x1="50%" y1="0%" x2="50%" y2="100%" id="linearGradient-13">
            <stop stop-color="#FFFFFF" offset="0%"></stop>
            <stop stop-color="#00C1FF" offset="21.7694257%"></stop>
            <stop stop-color="#3B25FF" offset="100%"></stop>
        </linearGradient>
        <linearGradient x1="50%" y1="0%" x2="50%" y2="100%" id="linearGradient-14">
            <stop stop-color="#FFFFFF" offset="0%"></stop>
            <stop stop-color="#00C1FF" offset="21.7694257%"></stop>
            <stop stop-color="#3B25FF" offset="100%"></stop>
        </linearGradient>
        <linearGradient x1="50%" y1="0%" x2="50%" y2="100%" id="linearGradient-15">
            <stop stop-color="#FFFFFF" offset="0%"></stop>
            <stop stop-color="#00C1FF" offset="21.7694257%"></stop>
            <stop stop-color="#3B25FF" offset="100%"></stop>
        </linearGradient>
        <linearGradient x1="50%" y1="0%" x2="50%" y2="100%" id="linearGradient-16">
            <stop stop-color="#FFFFFF" offset="0%"></stop>
            <stop stop-color="#00C1FF" offset="21.7694257%"></stop>
            <stop stop-color="#3B25FF" offset="100%"></stop>
        </linearGradient>
        <linearGradient x1="50%" y1="0%" x2="50%" y2="100%" id="linearGradient-17">
            <stop stop-color="#FFFFFF" offset="0%"></stop>
            <stop stop-color="#00C1FF" offset="21.7694257%"></stop>
            <stop stop-color="#3B25FF" offset="100%"></stop>
        </linearGradient>
        <linearGradient x1="50%" y1="0%" x2="50%" y2="100%" id="linearGradient-18">
            <stop stop-color="#FFFFFF" offset="0%"></stop>
            <stop stop-color="#00C1FF" offset="21.7694257%"></stop>
            <stop stop-color="#3B25FF" offset="100%"></stop>
        </linearGradient>
        <linearGradient x1="50%" y1="0%" x2="50%" y2="100%" id="linearGradient-19">
            <stop stop-color="#FFFFFF" offset="0%"></stop>
            <stop stop-color="#00C1FF" offset="21.7694257%"></stop>
            <stop stop-color="#3B25FF" offset="100%"></stop>
        </linearGradient>
        <linearGradient x1="50%" y1="0%" x2="50%" y2="100%" id="linearGradient-20">
            <stop stop-color="#FFFFFF" offset="0%"></stop>
            <stop stop-color="#00C1FF" offset="21.7694257%"></stop>
            <stop stop-color="#3B25FF" offset="100%"></stop>
        </linearGradient>
        <linearGradient x1="50%" y1="0%" x2="50%" y2="100%" id="linearGradient-21">
            <stop stop-color="#FFFFFF" offset="0%"></stop>
            <stop stop-color="#00C1FF" offset="21.7694257%"></stop>
            <stop stop-color="#3B25FF" offset="100%"></stop>
        </linearGradient>
        <linearGradient x1="50%" y1="0%" x2="50%" y2="100%" id="linearGradient-22">
            <stop stop-color="#FFFFFF" offset="0%"></stop>
            <stop stop-color="#00C1FF" offset="21.7694257%"></stop>
            <stop stop-color="#3B25FF" offset="100%"></stop>
        </linearGradient>
    </defs>
    <g id="Page-1" stroke="none" stroke-width="1" fill="none" fill-rule="evenodd" opacity="0.439569382">
        <g id="ACALA-Copy-5" transform="translate(-1167.000000, -4195.000000)">
            <g id="Group-20" transform="translate(0.000000, 4171.000000)">
                <g id="Group-45" transform="translate(1722.500000, 488.000000) rotate(-94.000000) translate(-1722.500000, -488.000000) translate(1239.000000, -82.000000)">
                    <path d="M72.3030764,915.044705 C654.501001,752.66449 1001.33434,445.71666 963.360143,266.681454 C927.012082,95.3119129 522.47858,-32.5387806 0.188931221,7.39903613" id="Stroke-1" stroke="url(#linearGradient-1)" stroke-width="2"></path>
                    <path d="M90.2873516,926.663512 C660.039732,759.546182 993.130607,448.773987 950.425462,268.232599 C910.063225,97.5906194 515.251075,-25.3503704 15.0911293,12.5636344" id="Stroke-3" stroke="url(#linearGradient-2)" stroke-width="1.952"></path>
                    <path d="M107.877635,936.783537 C665.705365,765.290419 985.409088,451.380205 937.878798,269.714291 C893.52296,100.178135 508.013043,-17.5907785 29.5282056,18.2165091" id="Stroke-5" stroke="url(#linearGradient-3)" stroke-width="1.905"></path>
                    <path d="M125.404839,946.869902 C670.601296,770.820607 976.566547,453.440785 924.218155,270.448553 C875.98267,101.835055 500.204139,-10.8959366 44.0013781,22.84596" id="Stroke-7" stroke="url(#linearGradient-4)" stroke-width="1.857"></path>
                    <path d="M143.46926,957.524806 C676.543647,776.917994 969.112502,456.072204 911.845229,271.752945 C859.743786,104.060381 493.288371,-3.62848081 58.9372365,28.0467964" id="Stroke-9" stroke="url(#linearGradient-5)" stroke-width="1.81"></path>
                    <path d="M160.520239,968.109953 C681.360341,782.946962 960.520555,458.633254 898.290933,272.989571 C842.387001,106.21474 485.278248,3.57276231 72.8755307,33.1816013" id="Stroke-11" stroke="url(#linearGradient-6)" stroke-width="1.762"></path>
                    <path d="M178.546829,978.764857 C687.027542,789.044674 952.764086,461.258277 885.536288,274.297185 C825.895245,108.433742 478.167157,10.8489465 87.8113891,38.3901481" id="Stroke-13" stroke="url(#linearGradient-7)" stroke-width="1.714"></path>
                    <path d="M196.47658,990.417324 C692.459256,796.141652 944.753311,464.873615 872.499104,276.606153 C809.188478,111.644254 470.887034,19.1274888 102.677491,44.6012643" id="Stroke-15" stroke="url(#linearGradient-8)" stroke-width="1.667"></path>
                    <path d="M214.265237,999.609542 C698.874906,800.985989 938.339625,466.576507 860.834088,277.215291 C793.749012,113.315126 464.061801,25.9729557 117.181888,49.3536385" id="Stroke-17" stroke="url(#linearGradient-9)" stroke-width="1.619"></path>
                    <path d="M231.702946,1010.72957 C703.501655,807.343884 929.469759,469.076045 846.888882,278.241577 C776.267721,115.046482 456.130124,32.7120304 131.618964,54.0482124" id="Stroke-19" stroke="url(#linearGradient-10)" stroke-width="1.571"></path>
                    <path d="M249.694923,1021.41813 C709.14671,813.694067 921.895574,472.256351 834.119927,280.368284 C759.940611,118.202906 448.995879,41.0647578 146.518726,60.3122138" id="Stroke-21" stroke="url(#linearGradient-11)" stroke-width="1.524"></path>
                    <path d="M267.329985,1032.60791 C714.895724,820.117366 914.678895,474.783107 821.569456,281.465423 C743.790629,119.977184 441.689565,47.8941944 160.953367,65.0924888" id="Stroke-23" stroke="url(#linearGradient-12)" stroke-width="1.476"></path>
                    <path d="M285.224196,1043.29648 C720.041294,826.479123 906.516639,477.939794 808.211816,283.617167 C727.018283,123.121347 434.30944,56.2645324 175.853129,71.377146" id="Stroke-25" stroke="url(#linearGradient-13)" stroke-width="1.429"></path>
                    <path d="M302.754561,1054.48626 C725.256184,832.899543 898.659335,480.418011 795.028043,284.721178 C710.37742,124.869936 426.736773,63.1228828 190.287769,76.1805546" id="Stroke-27" stroke="url(#linearGradient-14)" stroke-width="1.381"></path>
                    <path d="M320.784827,1064.21335 C730.724393,838.084424 891.0001,481.995438 782.069216,285.155286 C694.045633,126.093768 419.606604,69.5487637 205.290948,80.5357167" id="Stroke-29" stroke="url(#linearGradient-15)" stroke-width="1.333"></path>
                    <path d="M337.49052,1075.4007 C735.955685,844.966698 883.554663,485.613197 768.987587,287.862417 C677.374686,129.732696 411.385435,78.4637483 218.655832,87.3714778" id="Stroke-31" stroke="url(#linearGradient-16)" stroke-width="1.286"></path>
                    <path d="M355.59495,1085.16389 C741.631211,849.965755 876.221068,486.601622 756.241686,287.576025 C661.272233,130.039635 404.347412,83.9673052 233.692671,90.8130415" id="Stroke-33" stroke="url(#linearGradient-17)" stroke-width="1.238"></path>
                    <path d="M372.954475,1096.38733 C746.252487,856.667764 867.770625,489.638864 742.45613,289.578914 C644.238832,132.778556 396.560221,91.978195 248.091215,96.7529589" id="Stroke-35" stroke="url(#linearGradient-18)" stroke-width="1.19"></path>
                    <path d="M390.954487,1107.18175 C751.873754,862.955269 860.480215,492.250382 729.69359,291.198876 C628.161401,135.120707 389.471182,99.6171969 263.022202,102.321889" id="Stroke-37" stroke="url(#linearGradient-19)" stroke-width="1.143"></path>
                    <path d="M408.615796,1117.47739 C757.501039,868.768341 853.324285,494.389852 716.907351,292.400509 C611.978475,137.034199 382.031554,106.851938 277.488066,107.477386" id="Stroke-39" stroke="url(#linearGradient-20)" stroke-width="1.095"></path>
                    <path d="M426.592949,1128.3079 C762.954651,874.898844 846.256975,496.228396 704.004718,293.417228 C596.122061,138.407599 374.943971,113.74388 292.452713,112.307899" id="Stroke-41" stroke="url(#linearGradient-21)" stroke-width="1.048"></path>
                    <path d="M444.748175,1139.17207 C769.123172,881.313497 839.318882,499.211638 691.717948,295.294371 C580.157091,141.167981 367.946355,121.676956 307.381263,118.172072" id="Stroke-43" stroke="url(#linearGradient-22)"></path>
                </g>
            </g>
        </g>
    </g>
</svg>