<svg xmlns="http://www.w3.org/2000/svg" viewBox="0 0 283.46 134.34"><defs><style>.cls-1{fill:#9758ff;}</style></defs><title>资源 1</title><g id="图层_2" data-name="图层 2"><g id="图层_1-2" data-name="图层 1"><path class="cls-1" d="M283.46,111.55l-43.25.55-10.81,0-5.41,0-1.36,0a7,7,0,0,1-.75,0l-.41,0c-.07,0-.43-.16-.51-.32a4.44,4.44,0,0,1-.53-1.45c-.1-.45-.18-.9-.25-1.36-.52-3.61-.73-7.21-1-10.82s-.35-7.2-.48-10.81c-.53-14.42-.68-28.84-.88-43.25l-.26-21.63-.18-10.8-.14-5.4-.11-2.68-.09-1.33L217,1.52l0-.29a.81.81,0,0,1,0-.09s0,0,0,0,0,.25.66.39c.72-.14.64-.45.67-.39s0,0,0,0a.81.81,0,0,1,0,.09l0,.29-.06.64-.09,1.33L218,6.17l-.14,5.4-.17,10.8L217.42,44c-.2,14.41-.34,28.83-.87,43.25-.14,3.61-.29,7.21-.49,10.81s-.42,7.21-.95,10.82c-.07.46-.15.91-.25,1.36a4.44,4.44,0,0,1-.53,1.45c-.08.16-.44.37-.51.32l-.41,0a7,7,0,0,1-.75,0l-1.36,0-5.41,0-10.81,0-43.25-.55,43.25-.22,10.81-.07,5.4-.08,1.34,0c.24,0,.42,0,.6,0s.42,0,.32,0a3.67,3.67,0,0,0,.35-1.09c.1-.42.17-.86.23-1.3.48-3.52.65-7.13.83-10.72s.28-7.2.38-10.8c.34-14.4.52-28.81.65-43.23l.2-21.62.14-10.82.12-5.42.1-2.71L216.64,2l.06-.71.06-.38c0-.08,0-.13.05-.24a1.73,1.73,0,0,1,.07-.19s0-.35.76-.52c.77.17.72.52.77.52a1.73,1.73,0,0,1,.07.19c0,.11,0,.16.05.24l.05.38.07.71.08,1.37.11,2.71.12,5.42.14,10.82L219.3,44c.13,14.42.31,28.83.65,43.23q.13,5.4.37,10.8c.19,3.59.36,7.2.84,10.72.06.44.13.88.22,1.3a4,4,0,0,0,.36,1.09c-.1,0,.15,0,.32,0l.6,0,1.34,0,5.4.08,10.81.07Z"/><path class="cls-1" d="M247.41,111.7l-19.73,0h-2.47a2.6,2.6,0,0,1-.69-.06,1.62,1.62,0,0,1-.58-.47,4.75,4.75,0,0,1-.63-1.14,26.65,26.65,0,0,1-1.2-4.83c-.56-3.26-.91-6.54-1.23-9.81-.64-6.55-1-13.12-1.43-19.68-.21-3.28-.42-6.56-.68-9.83-.13-1.64-.27-3.27-.45-4.89-.1-.82-.2-1.63-.33-2.42-.07-.4-.14-.8-.24-1.17a4.11,4.11,0,0,0-.17-.53,1.14,1.14,0,0,0-.09-.19s0,0,0,0,.1.08.16,0,.18-.06.17,0,0,0,0,0a1.14,1.14,0,0,0-.09.19,4.11,4.11,0,0,0-.17.53c-.1.38-.17.77-.24,1.17-.13.79-.23,1.6-.33,2.42-.18,1.62-.32,3.25-.45,4.89-.26,3.27-.47,6.55-.68,9.83-.42,6.56-.79,13.13-1.43,19.68-.32,3.27-.67,6.55-1.23,9.81A26.65,26.65,0,0,1,212,110a4.75,4.75,0,0,1-.63,1.14,1.52,1.52,0,0,1-.58.47,2.6,2.6,0,0,1-.69.06h-2.47l-19.73,0,19.72-.44,2.46-.05a1.92,1.92,0,0,0,.53,0,1,1,0,0,0,.36-.31,3.65,3.65,0,0,0,.53-1,24.86,24.86,0,0,0,1.11-4.73c.52-3.23.82-6.51,1.1-9.78.52-6.54.91-13.1,1.3-19.66.19-3.28.39-6.57.63-9.85.13-1.64.26-3.28.44-4.93.09-.82.19-1.64.32-2.47.07-.41.15-.82.25-1.24a4.45,4.45,0,0,1,.21-.65,1.34,1.34,0,0,1,.18-.36.7.7,0,0,1,1.25,0,1.73,1.73,0,0,1,.18.36,4.45,4.45,0,0,1,.21.65c.1.42.18.83.25,1.24.13.83.23,1.65.32,2.47.18,1.65.31,3.29.44,4.93.24,3.28.43,6.57.63,9.85.39,6.56.78,13.12,1.3,19.66.28,3.27.58,6.55,1.09,9.78a25.67,25.67,0,0,0,1.12,4.73,3.65,3.65,0,0,0,.53,1,1,1,0,0,0,.36.31,1.88,1.88,0,0,0,.53,0l2.46.05Z"/><path class="cls-1" d="M249.71,111.72c-4.2,0-8.41,0-12.61-.08-2.1,0-4.2-.11-6.31-.29l-.81-.1a2.06,2.06,0,0,1-.82-.29,4.75,4.75,0,0,1-1.31-1,12.16,12.16,0,0,1-1.8-2.69c-1.93-3.82-3-7.94-4.09-12-.56-2-1.09-4.06-1.72-6.05a27.9,27.9,0,0,0-1.05-2.91,7.35,7.35,0,0,0-.71-1.3c-.25-.41-.61-.71-.84-.7s-.58.29-.83.7a8.9,8.9,0,0,0-.71,1.3,27.9,27.9,0,0,0-1,2.91c-.63,2-1.16,4-1.72,6.05-1.14,4-2.16,8.16-4.09,12a12.23,12.23,0,0,1-1.79,2.69,4.94,4.94,0,0,1-1.32,1,2.24,2.24,0,0,1-.82.3l-.81.09c-2.11.18-4.21.24-6.31.29-4.2.08-8.41.09-12.61.08,4.2-.15,8.4-.31,12.59-.54,2.1-.11,4.2-.2,6.27-.42l.75-.11a1.66,1.66,0,0,0,.65-.24,4.48,4.48,0,0,0,1.12-.93,12,12,0,0,0,1.64-2.57A71.4,71.4,0,0,0,212.5,95c.55-2,1.07-4.07,1.69-6.09a29.4,29.4,0,0,1,1.07-3,8.6,8.6,0,0,1,.78-1.46,1.72,1.72,0,0,1,3.21,0,9.37,9.37,0,0,1,.78,1.46,32,32,0,0,1,1.07,3c.62,2,1.14,4.06,1.69,6.09a71.4,71.4,0,0,0,3.9,11.87,11.59,11.59,0,0,0,1.64,2.57,4.27,4.27,0,0,0,1.12.93,1.89,1.89,0,0,0,.64.25l.76.1c2.07.22,4.17.31,6.27.42C241.31,111.41,245.51,111.58,249.71,111.72Z"/><path class="cls-1" d="M265,111.62l-12.87,0-6.43-.07-3.22-.06-1.62-.06c-.54-.06-1.09-.16-1.63-.24a18.77,18.77,0,0,1-6-2.59,48.24,48.24,0,0,1-5.19-3.87c-1.66-1.37-3.26-2.79-4.94-4.09s-3.49-2.54-5.42-2.66c-1.92.12-3.75,1.4-5.41,2.66s-3.28,2.72-4.94,4.09a48.24,48.24,0,0,1-5.19,3.87,18.55,18.55,0,0,1-6,2.59c-.54.08-1.09.18-1.63.24l-1.62.06-3.22.06-6.43.07-12.87,0,12.86-.42,6.42-.2,3.21-.13,1.59-.09c.52-.07,1-.17,1.54-.26,4.08-1,7.55-3.68,10.79-6.41,1.64-1.37,3.24-2.8,4.94-4.14a22.3,22.3,0,0,1,2.71-1.85,5.61,5.61,0,0,1,6.51,0,22.3,22.3,0,0,1,2.71,1.85c1.7,1.34,3.3,2.77,4.94,4.14,3.24,2.73,6.71,5.4,10.79,6.41.51.09,1,.19,1.54.26l1.59.1,3.21.12,6.42.2Z"/><path class="cls-1" d="M118.42,59.44A25.27,25.27,0,0,0,102.53,66V54.86a1.19,1.19,0,0,0-1.65-.55C98,59.57,90.57,62.07,88.77,62.62a.67.67,0,0,0-.48.53l-.24,1.3c7.22.12,8.13,4.4,8.13,8.22v54.74s-.24,3.09-4,3.53-7.68.92-7.78,3.4h29.94c-.1-2.48-4-3-7.79-3.4s-4-3.53-4-3.53V100.94a22.5,22.5,0,0,0,14.4,4.74c13-.21,24.1-10.72,24.64-23.58S131.67,58.92,118.42,59.44Zm-4.08,43.61a18.55,18.55,0,0,1-11.81-5.71V69.88A17.35,17.35,0,0,1,115.76,65c10.12.6,18.15,9.64,17.82,20.24S124.57,103.9,114.34,103.05Z"/><path class="cls-1" d="M80.35,102.33c-3.77-.44-4-3.53-4-3.53V56a1.21,1.21,0,0,0-1.66-.55c-2.92,5.26-10.29,7.77-12.1,8.31a.69.69,0,0,0-.48.55l-.24,1.29C69.08,65.68,70,70,70,73.78v25s-.23,3.09-4,3.53-7.69.92-7.79,3.4H88.13C88,103.25,84.11,102.77,80.35,102.33Z"/><circle class="cls-1" cx="72.77" cy="37.86" r="5.45"/><path class="cls-1" d="M174.91,57.67c-14,0-25.34,10.76-25.34,24s11.34,24,25.34,24,25.34-10.76,25.34-24S188.9,57.67,174.91,57.67Zm0,45.74c-9.46,0-17.12-9.72-17.12-21.71S165.45,60,174.91,60,192,69.71,192,81.7,184.37,103.41,174.91,103.41Z"/><path class="cls-1" d="M53.83,76.48c0-.27,0-.54-.06-.82s0-.28-.06-.4c-.05-.4-.11-.79-.18-1.19s-.15-.81-.24-1.21l0-.11c-.09-.43-.2-.87-.33-1.3,0,0,0,0,0,0-.08-.31-.17-.61-.28-.91a4.49,4.49,0,0,0-.19-.59,20.58,20.58,0,0,0-.88-2.2A12.73,12.73,0,0,0,51,66.54a22.93,22.93,0,0,0-1.29-2.27c-.22-.36-.46-.7-.71-1a6.07,6.07,0,0,0-.43-.57h0s0,0,0,0h0a1.58,1.58,0,0,0-.15-.24,1.43,1.43,0,0,0-.15-.22,11.88,11.88,0,0,0-1-1.25,7.13,7.13,0,0,0-.53-.58c-.19-.22-.4-.42-.63-.65s-.35-.31-.51-.49-.15-.14-.23-.21l-.31-.28,0,0a4.45,4.45,0,0,0-.53-.42c-.19-.17-.38-.32-.58-.48s-.4-.31-.6-.48l-.72-.54L41.53,56c-.35-.25-.73-.52-1.11-.76-.16-.12-.34-.22-.51-.34l0,0a2.4,2.4,0,0,0-.29-.19l-.19-.13s-.06,0-.1-.06l-.58-.39c-.18-.13-.39-.24-.57-.36h0c-.57-.37-1.18-.75-1.79-1.1-3-1.86-6.32-3.71-9.43-5.61l-.71-.43-.74-.46-.58-.37c-.31-.18-.62-.39-.93-.59-1-.64-1.94-1.28-2.86-1.93-.69-.49-1.33-1-2-1.47-.1-.09-.23-.18-.33-.26-.73-.59-1.42-1.18-2.06-1.79-.47-.44-.93-.91-1.34-1.37a5.65,5.65,0,0,1-.41-.46,17.84,17.84,0,0,1-1.12-1.42c-.2-.33-.42-.64-.59-.95a8.5,8.5,0,0,1-.52-1c-.06-.14-.14-.28-.19-.42s-.16-.4-.22-.6-.2-.67-.29-1c0-.16-.06-.32-.1-.5h0a.76.76,0,0,1,0-.15s0-.1,0-.15c0-.24,0-.47-.05-.71v-.1c0-.2,0-.41,0-.61A11.76,11.76,0,0,1,12,29.06c0-.14,0-.29.07-.43s.09-.39.13-.58l.16-.58c.13-.37.27-.74.43-1.1a9.6,9.6,0,0,1,.49-1,4.21,4.21,0,0,1,.28-.45c.15-.25.34-.49.52-.74,0,0,0,0,0,0s0-.06.06-.08a2.33,2.33,0,0,1,.39-.46,1.53,1.53,0,0,1,.13-.16l.45-.46s0-.06.08-.07c.17-.17.35-.32.52-.47l.61-.5a8.33,8.33,0,0,1,1-.7l1-.55.56-.25a17.08,17.08,0,0,1,5.1-1.31l.62-.05a22.62,22.62,0,0,1,15.63,5.21c.34.29.67.58,1,.88a17.58,17.58,0,0,1,3.71,5,.24.24,0,0,0,.44,0L49,23.54a.54.54,0,0,0-.08-.63A28.65,28.65,0,0,0,39,16.26c-8.12-3.34-16.71-2.89-22.84.59a18.79,18.79,0,0,0-2.24,1.47c-.34.27-.69.56-1,.85a11.79,11.79,0,0,0-.94.93,15,15,0,0,0-2.92,4.33v0a15,15,0,0,0-.61,1.6,15.66,15.66,0,0,0-.72,5.08c0,.3,0,.59,0,.89s.06.64.11,1,.08.56.13.84.19.86.3,1.28a16.17,16.17,0,0,0,1.25,3.45v0h0c.13.3.3.6.46.9s.33.58.49.88.35.59.55.88A18,18,0,0,0,12.3,43c.23.29.48.59.72.86.45.54.94,1,1.44,1.55l0,0q.33.34.66.63c.26.24.52.49.78.69s.57.47.86.69.83.63,1.25,1,.88.6,1.35.89a.33.33,0,0,0,.1.06h0c.28.2.56.39.85.57s.57.35.86.53l1.5.9c.38.23.78.44,1.16.65,0,0-.06,0-.1,0a6.09,6.09,0,0,0-.73.1,6.59,6.59,0,0,0-1,.16,8,8,0,0,0-1.08.23h-.08a11.09,11.09,0,0,0-1.1.28c-.3.07-.58.16-.87.25s-.8.26-1.19.4l-1.07.41-.3.14c-.24.09-.45.19-.69.3-.55.25-1.09.53-1.63.82-.25.13-.49.28-.73.41a25.17,25.17,0,0,0-3.08,2.13c-.33.24-.63.5-.94.76A22.9,22.9,0,0,0,7.62,60a24.58,24.58,0,0,0-2.06,2.38,10.2,10.2,0,0,0-.64.87,24.33,24.33,0,0,0-1.47,2.31c-.13.24-.28.5-.4.77a13.08,13.08,0,0,0-.64,1.3c-.18.39-.35.79-.52,1.21s-.26.7-.39,1a1.41,1.41,0,0,0-.1.31c-.1.26-.17.52-.26.79s-.1.37-.16.56c-.09.37-.19.72-.27,1.07s-.19.87-.27,1.31-.16.89-.21,1.34-.08.64-.11.95C.06,76.79,0,77.38,0,78s0,.92,0,1.38a27,27,0,1,0,53.92-1.19A15.47,15.47,0,0,0,53.83,76.48ZM38.91,97.31c-.22.23-.46.45-.67.68A19.84,19.84,0,0,1,36,99.74a16.21,16.21,0,0,1-8.51,2.49c-13.28.29-21.77-12-20.51-24.91C8.65,60.39,20.79,53.81,27.64,54.74c.36,0,.73.1,1.08.17a10.49,10.49,0,0,1,2.52.87,36.06,36.06,0,0,1,5.36,3.45c.23.18.47.36.68.54s.57.46.82.68.22.19.31.29l.29.28a15.64,15.64,0,0,1,2,2.3l.06.07.08.11c.06.09.12.2.18.31a9.19,9.19,0,0,1,.52.85c.16.29.33.59.46.89a24.12,24.12,0,0,1,1.24,2.84.47.47,0,0,0,0,.1c.22.64.42,1.28.6,1.93.11.36.19.71.27,1.07a9.91,9.91,0,0,1,.24,1.08c.14.67.25,1.36.35,2.06s.18,1.67.23,2.53c0,.38,0,.79.05,1.19C45.21,86.05,43.08,92.94,38.91,97.31Z"/><path class="cls-1" d="M275.62,91.72a.24.24,0,0,0-.44-.07,15.7,15.7,0,0,1-12.15,8c-11,1.07-20.82-9-20.61-21.57a20.86,20.86,0,0,1,.25-2.9.77.77,0,0,1,.76-.65l31.44-.4a.79.79,0,0,0,.78-.77,12.84,12.84,0,0,0-.45-3.18s0,0,0,0c-.09-.35-.2-.69-.31-1a8.11,8.11,0,0,0-.31-.82c-.08-.22-.17-.44-.27-.65a.11.11,0,0,0,0-.06c-.1-.23-.2-.44-.31-.66a18.35,18.35,0,0,0-1.51-2.51,5.86,5.86,0,0,0-.37-.5l-.34-.44-.51-.58c-.16-.17-.32-.34-.49-.5a16.28,16.28,0,0,0-7.12-4.22,21.32,21.32,0,0,0-5.55-.72c-12,0-22.59,10.15-23.22,23.48-.68,14.5,10.59,26.09,24.52,24.71A23,23,0,0,0,276.13,95.5a.78.78,0,0,0,.12-.61ZM252.26,61.64a13.77,13.77,0,0,1,2-.75,5.17,5.17,0,0,1,.64-.19l.1,0,.47-.11.26-.05c.41-.09.8-.15,1.18-.2.12,0,.25,0,.38,0s.44-.05.65-.05.49,0,.73,0a8.8,8.8,0,0,1,8.74,6.54c1.46,4.62-1.9,4.31-4.71,4.58-2.05.2-11.43.51-16.43.66-1.34,0-2.37.07-2.85.08a11.22,11.22,0,0,1,.5-1.41A16.63,16.63,0,0,1,252.26,61.64Z"/></g></g></svg>