<?xml version="1.0" encoding="UTF-8"?>
<svg width="18px" height="20px" viewBox="0 0 18 20" version="1.1" xmlns="http://www.w3.org/2000/svg" xmlns:xlink="http://www.w3.org/1999/xlink">
    <!-- Generator: Sketch 63.1 (92452) - https://sketch.com -->
    <title>discord</title>
    <desc>Created with Sketch.</desc>
    <g id="Page-1" stroke="none" stroke-width="1" fill="none" fill-rule="evenodd">
        <g id="PolkDeFi-Event" transform="translate(-884.000000, -6780.000000)">
            <g id="discord" transform="translate(883.000000, 6780.000000)">
                <rect id="Rectangle" x="0" y="0" width="20" height="20"></rect>
                <path d="M12.61,9.5 C12.61,10.11 12.16,10.61 11.59,10.61 C11.03,10.61 10.57,10.11 10.57,9.5 C10.57,8.89 11.02,8.39 11.59,8.39 C12.16,8.39 12.61,8.89 12.61,9.5 Z M7.94,8.39 C7.37,8.39 6.92,8.89 6.92,9.5 C6.92,10.11 7.38,10.61 7.94,10.61 C8.51,10.61 8.96,10.11 8.96,9.5 C8.97,8.89 8.51,8.39 7.94,8.39 Z M18.5,2.06 L18.5,20 C15.9807031,17.7736719 16.7864062,18.510625 13.86,15.79 L14.39,17.64 L3.05,17.64 C1.92,17.64 1,16.72 1,15.58 L1,2.06 C1,0.92 1.92,0 3.05,0 L16.45,0 C17.58,0 18.5,0.92 18.5,2.06 Z M15.65,11.54 C15.65,8.32 14.21,5.71 14.21,5.71 C12.77,4.63 11.4,4.6599169 11.4,4.6599169 L11.26,4.82 C12.96,5.34 13.75,6.09 13.75,6.09 C11.3745703,4.78808594 8.58421875,4.78785156 6.28,5.8 C5.91,5.97 5.69,6.09 5.69,6.09 C5.69,6.09 6.52,5.3 8.32,4.78 L8.22,4.6599169 C8.22,4.6599169 6.85,4.63 5.41,5.71 C5.41,5.71 3.97,8.32 3.97,11.54 C3.97,11.54 4.81,12.99 7.02,13.06 C7.02,13.06 7.39,12.61 7.69,12.23 C6.42,11.85 5.94,11.05 5.94,11.05 C6.08710937,11.1529688 6.3296875,11.2864453 6.35,11.3 C8.03789062,12.2452344 10.4354687,12.5549219 12.59,11.65 C12.94,11.52 13.33,11.33 13.74,11.06 C13.74,11.06 13.24,11.88 11.93,12.25 C12.23,12.63 12.59,13.06 12.59,13.06 C14.8,12.99 15.65,11.54 15.65,11.54 Z" id="Shape" fill="#4E4E4E" fill-rule="nonzero"></path>
            </g>
        </g>
    </g>
</svg>