<?xml version="1.0" encoding="UTF-8"?>
<svg width="16px" height="16px" viewBox="0 0 16 16" version="1.1" xmlns="http://www.w3.org/2000/svg" xmlns:xlink="http://www.w3.org/1999/xlink">
    <!-- Generator: Sketch 63.1 (92452) - https://sketch.com -->
    <title>discourse</title>
    <desc>Created with Sketch.</desc>
    <g id="Page-1" stroke="none" stroke-width="1" fill="none" fill-rule="evenodd">
        <g id="ACALA-Copy-5" transform="translate(-697.000000, -9060.000000)" fill="#4E4E4E" fill-rule="nonzero">
            <g id="discourse" transform="translate(697.000000, 9060.000000)">
                <path d="M8.06866667,0 C12.444,0 16,3.65666667 16,7.998 C16,12.338 12.4466667,15.9913333 8.06666667,15.9913333 L0,16 L0,7.86 C0,3.52 3.688,0 8.06866667,0 Z M8.146,3.04199669 C6.41733333,3.04 4.81533333,3.94333333 3.92133333,5.422 C3.03466667,6.894 2.99666667,8.72666667 3.82266667,10.2353333 L2.93333333,13.0733333 L6.12933333,12.3573333 C7.95933333,13.174 10.106,12.808 11.5533333,11.4306667 C13,10.0613333 13.46,7.94533333 12.7113333,6.09933333 C11.9546667,4.24733333 10.1513333,3.03933333 8.15133333,3.04266667 L8.146,3.04266667 L8.146,3.04199669 Z" id="Shape"></path>
            </g>
        </g>
    </g>
</svg>