<svg width="800" height="800" viewBox="0 0 800 800" fill="none" xmlns="http://www.w3.org/2000/svg">
<rect width="800" height="800" fill="white"/>
<path d="M111.033 307.41C108.262 307.41 106.415 305.569 106.415 302.807V298.205H101.797C99.0261 298.205 97.1789 296.364 97.1789 293.602V289H51V381.049H97.1789V376.447C97.1789 373.685 99.0261 371.844 101.797 371.844H106.415V367.242C106.415 364.48 108.262 362.64 111.033 362.64H115.65V307.41H111.033ZM106.415 312.012V358.037C106.415 360.799 104.568 362.64 101.797 362.64H97.1789V367.242C97.1789 370.003 95.3317 371.844 92.561 371.844H64.8537C62.0829 371.844 60.2358 370.003 60.2358 367.242V302.807C60.2358 300.046 62.0829 298.205 64.8537 298.205H92.561C95.3317 298.205 97.1789 300.046 97.1789 302.807V307.41H101.797C104.568 307.41 106.415 309.251 106.415 312.012Z" fill="black"/>
<path d="M129.689 289V381.049H138.925V289H129.689Z" fill="black"/>
<path d="M208.378 289V302.807C208.378 305.569 206.531 307.41 203.76 307.41H199.142V330.422C199.142 333.184 197.295 335.025 194.524 335.025H189.906V358.037C189.906 360.799 188.059 362.64 185.288 362.64C182.518 362.64 180.67 360.799 180.67 358.037V335.025H176.052C173.282 335.025 171.435 333.184 171.435 330.422V307.41H166.817C164.046 307.41 162.199 305.569 162.199 302.807V289H152.963V307.41H157.581C160.352 307.41 162.199 309.251 162.199 312.012V335.025H166.817C169.587 335.025 171.435 336.866 171.435 339.627V362.64H176.052C178.823 362.64 180.67 364.48 180.67 367.242V381.049H189.906V367.242C189.906 364.48 191.753 362.64 194.524 362.64H199.142V339.627C199.142 336.866 200.989 335.025 203.76 335.025H208.378V312.012C208.378 309.251 210.225 307.41 212.996 307.41H217.613V289H208.378Z" fill="black"/>
<path d="M240.888 321.217V302.807C240.888 300.046 242.735 298.205 245.506 298.205H287.067V289H231.652V381.049H287.067V371.844H245.506C242.735 371.844 240.888 370.003 240.888 367.242V339.627C240.888 336.866 242.735 335.025 245.506 335.025H277.831V325.82H245.506C242.735 325.82 240.888 323.979 240.888 321.217Z" fill="black"/>
<path d="M351.938 298.205C349.167 298.205 347.32 296.364 347.32 293.602V289H301.141V381.049H310.377V348.832C310.377 346.071 312.224 344.23 314.995 344.23H324.23C327.001 344.23 328.848 346.071 328.848 348.832V353.435H333.466C336.237 353.435 338.084 355.276 338.084 358.037V371.844H342.702C345.473 371.844 347.32 373.685 347.32 376.447V381.049H356.556V371.844H351.938C349.167 371.844 347.32 370.003 347.32 367.242V353.435H342.702C339.931 353.435 338.084 351.594 338.084 348.832C338.084 346.071 339.931 344.23 342.702 344.23H347.32V339.627C347.32 336.866 349.167 335.025 351.938 335.025H356.556V298.205H351.938ZM347.32 302.807V330.422C347.32 333.184 345.473 335.025 342.702 335.025H314.995C312.224 335.025 310.377 333.184 310.377 330.422V302.807C310.377 300.046 312.224 298.205 314.995 298.205H342.702C345.473 298.205 347.32 300.046 347.32 302.807Z" fill="black"/>
<path d="M444.516 316.615V307.41H439.899C437.128 307.41 435.281 305.569 435.281 302.807V298.205H430.663C427.892 298.205 426.045 296.364 426.045 293.602V289H389.102V293.602C389.102 296.364 387.255 298.205 384.484 298.205H379.866V302.807C379.866 305.569 378.019 307.41 375.248 307.41H370.63V362.64H375.248C378.019 362.64 379.866 364.48 379.866 367.242V371.844H384.484C387.255 371.844 389.102 373.685 389.102 376.447V381.049H426.045V376.447C426.045 373.685 427.892 371.844 430.663 371.844C433.433 371.844 435.281 373.685 435.281 376.447V381.049H444.516V335.025H407.573V344.23H430.663C433.433 344.23 435.281 346.071 435.281 348.832V358.037C435.281 360.799 433.433 362.64 430.663 362.64H426.045V367.242C426.045 370.003 424.198 371.844 421.427 371.844H393.72C390.949 371.844 389.102 370.003 389.102 367.242V362.64H384.484C381.713 362.64 379.866 360.799 379.866 358.037V312.012C379.866 309.251 381.713 307.41 384.484 307.41H389.102V302.807C389.102 300.046 390.949 298.205 393.72 298.205H421.427C424.198 298.205 426.045 300.046 426.045 302.807V307.41H430.663C433.433 307.41 435.281 309.251 435.281 312.012V316.615H444.516Z" fill="black"/>
<path d="M467.754 321.217V302.807C467.754 300.046 469.602 298.205 472.372 298.205H513.933V289H458.519V381.049H513.933V371.844H472.372C469.602 371.844 467.754 370.003 467.754 367.242V339.627C467.754 336.866 469.602 335.025 472.372 335.025H504.698V325.82H472.372C469.602 325.82 467.754 323.979 467.754 321.217Z" fill="black"/>
<path d="M583.423 289V348.832C583.423 351.594 581.575 353.435 578.805 353.435C576.034 353.435 574.187 351.594 574.187 348.832V344.23H569.569C566.798 344.23 564.951 342.389 564.951 339.627V325.82H560.333C557.562 325.82 555.715 323.979 555.715 321.217V316.615H551.097C548.327 316.615 546.479 314.774 546.479 312.012V298.205H541.862C539.091 298.205 537.244 296.364 537.244 293.602V289H528.008V381.049H537.244V321.217C537.244 318.456 539.091 316.615 541.862 316.615C544.632 316.615 546.479 318.456 546.479 321.217V325.82H551.097C553.868 325.82 555.715 327.661 555.715 330.422V344.23H560.333C563.104 344.23 564.951 346.071 564.951 348.832V353.435H569.569C572.34 353.435 574.187 355.276 574.187 358.037V371.844H578.805C581.575 371.844 583.423 373.685 583.423 376.447V381.049H592.658V289H583.423Z" fill="black"/>
<path d="M680.583 316.615V307.41H675.965C673.194 307.41 671.347 305.569 671.347 302.807V298.205H666.729C663.959 298.205 662.111 296.364 662.111 293.602V289H625.168V293.602C625.168 296.364 623.321 298.205 620.55 298.205H615.933V302.807C615.933 305.569 614.085 307.41 611.315 307.41H606.697V362.64H611.315C614.085 362.64 615.933 364.48 615.933 367.242V371.844H620.55C623.321 371.844 625.168 373.685 625.168 376.447V381.049H662.111V376.447C662.111 373.685 663.959 371.844 666.729 371.844H671.347V367.242C671.347 364.48 673.194 362.64 675.965 362.64H680.583V353.435H671.347V358.037C671.347 360.799 669.5 362.64 666.729 362.64H662.111V367.242C662.111 370.003 660.264 371.844 657.494 371.844H629.786C627.016 371.844 625.168 370.003 625.168 367.242V362.64H620.55C617.78 362.64 615.933 360.799 615.933 358.037V312.012C615.933 309.251 617.78 307.41 620.55 307.41H625.168V302.807C625.168 300.046 627.016 298.205 629.786 298.205H657.494C660.264 298.205 662.111 300.046 662.111 302.807V307.41H666.729C669.5 307.41 671.347 309.251 671.347 312.012V316.615H680.583Z" fill="black"/>
<path d="M703.821 321.217V302.807C703.821 300.046 705.668 298.205 708.439 298.205H750V289H694.585V381.049H750V371.844H708.439C705.668 371.844 703.821 370.003 703.821 367.242V339.627C703.821 336.866 705.668 335.025 708.439 335.025H740.764V325.82H708.439C705.668 325.82 703.821 323.979 703.821 321.217Z" fill="black"/>
<path d="M127.703 415.568L95.9454 509.157H85.18L51 415.568H61.7654L90.4281 493.915L116.938 415.568H127.703Z" fill="black"/>
<path d="M151.899 500.333C157.461 500.333 161.767 498.996 164.817 496.322C167.957 493.559 169.931 490.216 170.738 486.294H181.504C181.055 490.394 179.485 494.316 176.794 498.06C174.102 501.803 170.559 504.834 166.163 507.151C161.857 509.38 157.102 510.494 151.899 510.494C145.978 510.494 140.64 509.112 135.885 506.349C131.22 503.586 127.497 499.575 124.716 494.316C122.025 489.057 120.679 482.863 120.679 475.732C120.679 469.404 122.07 463.655 124.851 458.485C127.632 453.226 131.4 449.126 136.154 446.185C140.909 443.154 146.157 441.639 151.899 441.639C160.78 441.639 167.912 444.536 173.295 450.329C178.767 456.034 181.504 465.17 181.504 477.738H131.445C131.803 485.225 133.777 490.885 137.366 494.717C141.044 498.461 145.888 500.333 151.899 500.333ZM151.899 452.335C146.965 452.335 142.748 453.761 139.25 456.613C135.84 459.466 133.508 463.387 132.252 468.379H170.738C169.841 463.209 167.912 459.243 164.952 456.48C161.991 453.717 157.64 452.335 151.899 452.335Z" fill="black"/>
<path d="M247.741 509.157H236.976L236.841 474.395C236.841 466.819 235.764 461.248 233.611 457.683C231.458 454.118 227.78 452.335 222.577 452.335C216.297 452.335 211.228 454.43 207.371 458.619C203.603 462.808 201.719 468.958 201.719 477.069V509.157H190.954V442.308H201.719V453.672C204.231 449.572 207.416 446.541 211.273 444.58C215.131 442.62 219.347 441.639 223.923 441.639C232.625 441.639 238.725 444.402 242.224 449.928C245.812 455.455 247.606 463.61 247.606 474.395L247.741 509.157Z" fill="black"/>
<path d="M270.273 451.666V495.118C270.273 496.901 270.543 498.06 271.081 498.595C271.619 499.04 272.696 499.263 274.31 499.263H285.076V509.157H274.31C269.735 509.157 266.416 508.8 264.353 508.087C262.379 507.285 261.078 505.903 260.45 503.943C259.822 501.982 259.508 498.817 259.508 494.45V451.666H250.088V442.308H259.508V427.601H270.273V442.308H285.076V451.666H270.273Z" fill="black"/>
<path d="M352.576 442.174V509.157H341.811V499.664C337.594 506.795 331.09 510.36 322.298 510.36C313.417 510.36 306.778 507.419 302.382 501.536C298.076 495.564 295.923 487.364 295.923 476.935L295.789 442.174H306.554L306.689 477.069C306.689 484.378 308.169 489.993 311.129 493.915C314.09 497.748 318.261 499.664 323.644 499.664C335.755 499.664 341.811 491.241 341.811 474.395V442.174H352.576Z" fill="black"/>
<path d="M374.169 454.207C379.192 446.274 387.491 442.308 399.064 442.308V453.003C391.259 453.003 385.158 455.009 380.762 459.02C376.367 462.942 374.169 468.958 374.169 477.069V509.157H363.403V442.308H374.169V454.207Z" fill="black"/>
<path d="M434.346 500.333C439.908 500.333 444.215 498.996 447.265 496.322C450.405 493.559 452.378 490.216 453.186 486.294H463.951C463.502 490.394 461.932 494.316 459.241 498.06C456.55 501.803 453.006 504.834 448.61 507.151C444.304 509.38 439.55 510.494 434.346 510.494C428.425 510.494 423.088 509.112 418.333 506.349C413.668 503.586 409.945 499.575 407.164 494.316C404.472 489.057 403.127 482.863 403.127 475.732C403.127 469.404 404.517 463.655 407.298 458.485C410.079 453.226 413.847 449.126 418.602 446.185C423.357 443.154 428.605 441.639 434.346 441.639C443.228 441.639 450.36 444.536 455.742 450.329C461.215 456.034 463.951 465.17 463.951 477.738H413.892C414.251 485.225 416.225 490.885 419.813 494.717C423.491 498.461 428.336 500.333 434.346 500.333ZM434.346 452.335C429.412 452.335 425.196 453.761 421.697 456.613C418.288 459.466 415.955 463.387 414.7 468.379H453.186C452.289 463.209 450.36 459.243 447.399 456.48C444.439 453.717 440.088 452.335 434.346 452.335Z" fill="black"/>
<path d="M470.272 487.765C470.9 495.787 473.726 501.581 478.75 505.146C483.774 508.711 489.919 510.494 497.185 510.494C504.99 510.494 511.18 508.979 515.756 505.948C520.421 502.918 522.753 497.971 522.753 491.108C522.753 485.492 520.959 480.991 517.37 477.604C513.782 474.128 507.951 471.899 499.877 470.919C487.766 469.582 481.71 466.284 481.71 461.025C481.71 457.014 483.235 454.251 486.285 452.736C489.425 451.132 493.059 450.329 497.185 450.329C501.581 450.329 505.08 451.533 507.682 453.939C510.283 456.346 511.943 459.376 512.661 463.031H522.753C522.125 455.811 519.523 450.329 514.948 446.586C510.463 442.842 504.542 440.971 497.185 440.971C490.547 440.971 484.626 442.486 479.423 445.516C474.219 448.547 471.618 453.717 471.618 461.025C471.618 466.641 473.367 470.919 476.866 473.86C480.454 476.802 485.882 478.674 493.148 479.476C500.325 480.456 505.349 481.927 508.22 483.888C511.18 485.76 512.661 488.166 512.661 491.108C512.661 494.94 511.405 497.57 508.893 498.996C506.381 500.422 502.478 501.135 497.185 501.135C487.586 501.135 482.204 496.678 481.037 487.765H470.272Z" fill="black"/>
</svg>
