<?xml version="1.0" encoding="UTF-8"?>
<svg width="59px" height="49px" viewBox="0 0 59 49" version="1.1" xmlns="http://www.w3.org/2000/svg" xmlns:xlink="http://www.w3.org/1999/xlink">
    <!-- Generator: Sketch 59.1 (86144) - https://sketch.com -->
    <title>Group 70 Copy 2</title>
    <desc>Created with Sketch.</desc>
    <g id="Page-1" stroke="none" stroke-width="1" fill="none" fill-rule="evenodd">
        <g id="ACALA-Copy-4" transform="translate(-985.000000, -2967.000000)">
            <g id="Group-70-Copy-2" transform="translate(984.000000, 2961.000000)">
                <rect id="Rectangle-20" fill="#F8F8F8" opacity="0" x="0" y="0" width="60" height="60"></rect>
                <g id="Group-52" transform="translate(1.000000, 6.000000)">
                    <g id="Group-51">
                        <line x1="29.5" y1="8.47456665" x2="29.5" y2="25.558966" id="Line" stroke="#0155FF" stroke-linecap="square"></line>
                        <polygon id="Polygon-2" stroke="#0155FF" points="18.9112983 2 44.9084029 17.6183628 44.9084029 36.9824904 29.388967 46 2 31.0461915 2 11.6820638"></polygon>
                        <polygon id="Polygon-2-Copy" stroke="#0155FF" points="39.1893836 2 56.1006819 11.6820638 56.1006819 31.0461915 29.2289164 45.9326717 13.8706274 37.5618878 13.8706274 18.1977602"></polygon>
                        <polyline id="Line" stroke="#0155FF" stroke-linecap="square" points="13.9825049 36.7979407 29.3027437 26.0044086 44.6229825 37.0073367"></polyline>
                        <circle id="Oval-8-Copy-10" fill="#FFB200" cx="18.4590164" cy="2.45901639" r="2.45901639"></circle>
                        <circle id="Oval-8-Copy-29" fill="#FFB200" cx="2.45901639" cy="31.4590164" r="2.45901639"></circle>
                        <circle id="Oval-8-Copy-30" fill="#FFB200" cx="39.4590164" cy="2.45901639" r="2.45901639"></circle>
                        <circle id="Oval-8-Copy-31" fill="#FFB200" cx="56.4590164" cy="31.4590164" r="2.45901639"></circle>
                        <circle id="Oval-8-Copy-32" fill="#FFB200" cx="29.4590164" cy="46.4590164" r="2.45901639"></circle>
                    </g>
                </g>
            </g>
        </g>
    </g>
</svg>