<?xml version="1.0" encoding="UTF-8"?>
<svg width="609px" height="530px" viewBox="0 0 609 530" version="1.1" xmlns="http://www.w3.org/2000/svg" xmlns:xlink="http://www.w3.org/1999/xlink">
    <!-- Generator: Sketch 59.1 (86144) - https://sketch.com -->
    <title>Group 73</title>
    <desc>Created with Sketch.</desc>
    <defs>
        <linearGradient x1="66.3593732%" y1="60.4298804%" x2="0%" y2="-7.23179021%" id="linearGradient-1">
            <stop stop-color="#FCFDFE" offset="0%"></stop>
            <stop stop-color="#DCDFFF" offset="100%"></stop>
        </linearGradient>
        <linearGradient x1="53.4621659%" y1="93.2148093%" x2="50%" y2="-4.08372273%" id="linearGradient-2">
            <stop stop-color="#FFFFFF" stop-opacity="0.85393903" offset="0%"></stop>
            <stop stop-color="#E8EAFD" stop-opacity="0" offset="100%"></stop>
        </linearGradient>
        <linearGradient x1="64.5448989%" y1="50.7585086%" x2="0%" y2="50%" id="linearGradient-3">
            <stop stop-color="#FCFCFD" offset="0%"></stop>
            <stop stop-color="#ECF0FB" offset="100%"></stop>
        </linearGradient>
        <linearGradient x1="66.3593732%" y1="60.4298804%" x2="0%" y2="-7.23179021%" id="linearGradient-4">
            <stop stop-color="#FCFDFE" offset="0%"></stop>
            <stop stop-color="#DCDFFF" offset="100%"></stop>
        </linearGradient>
        <linearGradient x1="53.4621659%" y1="93.2148093%" x2="50%" y2="-4.08372273%" id="linearGradient-5">
            <stop stop-color="#FFFFFF" stop-opacity="0.85393903" offset="0%"></stop>
            <stop stop-color="#E8EAFD" stop-opacity="0" offset="100%"></stop>
        </linearGradient>
        <linearGradient x1="64.5448989%" y1="50.7585086%" x2="0%" y2="50%" id="linearGradient-6">
            <stop stop-color="#FCFCFD" offset="0%"></stop>
            <stop stop-color="#ECF0FB" offset="100%"></stop>
        </linearGradient>
        <linearGradient x1="11.5772264%" y1="25.6021618%" x2="76.0394774%" y2="89.9241673%" id="linearGradient-7">
            <stop stop-color="#6001FF" offset="0%"></stop>
            <stop stop-color="#A541FF" offset="100%"></stop>
        </linearGradient>
        <linearGradient x1="44.4035209%" y1="40.9703395%" x2="61.079052%" y2="38.2541919%" id="linearGradient-8">
            <stop stop-color="#836EF3" offset="0%"></stop>
            <stop stop-color="#B500E5" offset="100%"></stop>
        </linearGradient>
        <linearGradient x1="46.5483836%" y1="45.7205928%" x2="3.941909%" y2="24.7733277%" id="linearGradient-9">
            <stop stop-color="#FCFDFE" offset="0%"></stop>
            <stop stop-color="#E2E5FC" offset="100%"></stop>
        </linearGradient>
        <linearGradient x1="53.4621659%" y1="88.1399717%" x2="53.4621659%" y2="-19.7585782%" id="linearGradient-10">
            <stop stop-color="#FFFFFF" stop-opacity="0.85393903" offset="0%"></stop>
            <stop stop-color="#E8EAFD" stop-opacity="0" offset="100%"></stop>
        </linearGradient>
        <linearGradient x1="72.5628201%" y1="50%" x2="-5.26470136%" y2="36.9669095%" id="linearGradient-11">
            <stop stop-color="#FCFCFD" offset="0%"></stop>
            <stop stop-color="#FCFCFD" offset="54.1464783%"></stop>
            <stop stop-color="#DEE5F9" offset="100%"></stop>
        </linearGradient>
        <linearGradient x1="66.3593732%" y1="60.4298804%" x2="0%" y2="-7.23179021%" id="linearGradient-12">
            <stop stop-color="#FCFDFE" offset="0%"></stop>
            <stop stop-color="#DCDFFF" offset="100%"></stop>
        </linearGradient>
        <linearGradient x1="53.4621659%" y1="93.2148093%" x2="50%" y2="-4.08372273%" id="linearGradient-13">
            <stop stop-color="#FFFFFF" stop-opacity="0.85393903" offset="0%"></stop>
            <stop stop-color="#E8EAFD" stop-opacity="0" offset="100%"></stop>
        </linearGradient>
        <linearGradient x1="64.5448989%" y1="50.7585086%" x2="0%" y2="50%" id="linearGradient-14">
            <stop stop-color="#FCFCFD" offset="0%"></stop>
            <stop stop-color="#ECF0FB" offset="100%"></stop>
        </linearGradient>
        <linearGradient x1="3.11483745%" y1="54.0076521%" x2="93.4794054%" y2="58.0422063%" id="linearGradient-15">
            <stop stop-color="#4F01AC" offset="0%"></stop>
            <stop stop-color="#7000FF" offset="100%"></stop>
        </linearGradient>
        <linearGradient x1="17.30315%" y1="42.6972208%" x2="97.6507801%" y2="50%" id="linearGradient-16">
            <stop stop-color="#5212FF" offset="0%"></stop>
            <stop stop-color="#8600FF" offset="100%"></stop>
        </linearGradient>
        <linearGradient x1="90.7241641%" y1="37.5783074%" x2="9.34191162%" y2="60.0692406%" id="linearGradient-17">
            <stop stop-color="#4D96FF" offset="0%"></stop>
            <stop stop-color="#7563FF" offset="100%"></stop>
        </linearGradient>
        <linearGradient x1="74.55554%" y1="35.9276793%" x2="19.3416549%" y2="78.8034169%" id="linearGradient-18">
            <stop stop-color="#7F8BFF" offset="0%"></stop>
            <stop stop-color="#43FCFF" offset="100%"></stop>
        </linearGradient>
        <linearGradient x1="42.5561275%" y1="37.6248195%" x2="80.5162422%" y2="57.1432706%" id="linearGradient-19">
            <stop stop-color="#FFFFFF" offset="0%"></stop>
            <stop stop-color="#ECECEC" offset="100%"></stop>
        </linearGradient>
        <linearGradient x1="3.11483745%" y1="53.8016381%" x2="93.4794054%" y2="57.6287954%" id="linearGradient-20">
            <stop stop-color="#4F01AC" offset="0%"></stop>
            <stop stop-color="#7000FF" offset="100%"></stop>
        </linearGradient>
        <linearGradient x1="17.30315%" y1="42.9643729%" x2="97.6507801%" y2="50%" id="linearGradient-21">
            <stop stop-color="#5212FF" offset="0%"></stop>
            <stop stop-color="#8600FF" offset="100%"></stop>
        </linearGradient>
        <linearGradient x1="90.7241641%" y1="38.2072626%" x2="9.34191162%" y2="59.5593985%" id="linearGradient-22">
            <stop stop-color="#4D96FF" offset="0%"></stop>
            <stop stop-color="#7563FF" offset="100%"></stop>
        </linearGradient>
        <linearGradient x1="74.55554%" y1="36.6402117%" x2="19.3416549%" y2="77.3449959%" id="linearGradient-23">
            <stop stop-color="#7F8BFF" offset="0%"></stop>
            <stop stop-color="#43FCFF" offset="100%"></stop>
        </linearGradient>
        <linearGradient x1="42.5561275%" y1="38.0789156%" x2="80.5162422%" y2="56.8811547%" id="linearGradient-24">
            <stop stop-color="#FFFFFF" offset="0%"></stop>
            <stop stop-color="#ECECEC" offset="100%"></stop>
        </linearGradient>
        <linearGradient x1="3.11483745%" y1="53.8252141%" x2="93.4794054%" y2="57.6761056%" id="linearGradient-25">
            <stop stop-color="#4F01AC" offset="0%"></stop>
            <stop stop-color="#7000FF" offset="100%"></stop>
        </linearGradient>
        <linearGradient x1="17.30315%" y1="42.9898874%" x2="97.6507801%" y2="50%" id="linearGradient-26">
            <stop stop-color="#5212FF" offset="0%"></stop>
            <stop stop-color="#8600FF" offset="100%"></stop>
        </linearGradient>
        <linearGradient x1="90.7241641%" y1="37.9931548%" x2="9.34191162%" y2="59.732958%" id="linearGradient-27">
            <stop stop-color="#4D96FF" offset="0%"></stop>
            <stop stop-color="#7563FF" offset="100%"></stop>
        </linearGradient>
        <linearGradient x1="74.55554%" y1="36.3976527%" x2="19.3416549%" y2="77.8414689%" id="linearGradient-28">
            <stop stop-color="#7F8BFF" offset="0%"></stop>
            <stop stop-color="#43FCFF" offset="100%"></stop>
        </linearGradient>
        <linearGradient x1="42.5561275%" y1="38.1306901%" x2="80.5162422%" y2="56.8512691%" id="linearGradient-29">
            <stop stop-color="#FFFFFF" offset="0%"></stop>
            <stop stop-color="#ECECEC" offset="100%"></stop>
        </linearGradient>
        <linearGradient x1="5.71301253%" y1="47.1256094%" x2="94.3628443%" y2="52.8443109%" id="linearGradient-30">
            <stop stop-color="#08FFFF" offset="0%"></stop>
            <stop stop-color="#A713EC" offset="100%"></stop>
        </linearGradient>
        <linearGradient x1="31.3895086%" y1="33.6281827%" x2="68.6104914%" y2="62.7391824%" id="linearGradient-31">
            <stop stop-color="#00FFFF" offset="0%"></stop>
            <stop stop-color="#B038F0" offset="100%"></stop>
        </linearGradient>
        <linearGradient x1="-12.6254046%" y1="45.8154384%" x2="80.5954463%" y2="53.9323987%" id="linearGradient-32">
            <stop stop-color="#4FCAFD" offset="0%"></stop>
            <stop stop-color="#9553F0" offset="100%"></stop>
        </linearGradient>
        <linearGradient x1="112.119241%" y1="57.65785%" x2="0%" y2="57.65785%" id="linearGradient-33">
            <stop stop-color="#9A3CEF" offset="0%"></stop>
            <stop stop-color="#00FFFF" offset="100%"></stop>
        </linearGradient>
        <linearGradient x1="72.1775486%" y1="48.5544649%" x2="17.3376406%" y2="50%" id="linearGradient-34">
            <stop stop-color="#894DF2" offset="0%"></stop>
            <stop stop-color="#00DBFE" offset="100%"></stop>
        </linearGradient>
        <linearGradient x1="78.3812619%" y1="29.0914438%" x2="10.8965973%" y2="76.3489635%" id="linearGradient-35">
            <stop stop-color="#B431EF" offset="0%"></stop>
            <stop stop-color="#00FEFF" offset="100%"></stop>
        </linearGradient>
        <linearGradient x1="64.8788691%" y1="30.6567271%" x2="36.2014661%" y2="72.7162899%" id="linearGradient-36">
            <stop stop-color="#AEB1FA" offset="0%"></stop>
            <stop stop-color="#82FBFF" offset="100%"></stop>
        </linearGradient>
        <linearGradient x1="90.9663843%" y1="38.7439578%" x2="28.2145707%" y2="61.2560422%" id="linearGradient-37">
            <stop stop-color="#B40FEC" offset="0%"></stop>
            <stop stop-color="#0DFAFF" offset="100%"></stop>
        </linearGradient>
        <linearGradient x1="62.4822679%" y1="57.2060361%" x2="41.7886099%" y2="63.4038206%" id="linearGradient-38">
            <stop stop-color="#A32AEF" offset="0%"></stop>
            <stop stop-color="#00FFFF" offset="100%"></stop>
        </linearGradient>
        <linearGradient x1="50.7526949%" y1="-18.4029761%" x2="49.5693812%" y2="92.1549629%" id="linearGradient-39">
            <stop stop-color="#A34BF0" offset="0%"></stop>
            <stop stop-color="#72FDFF" offset="100%"></stop>
        </linearGradient>
        <linearGradient x1="93.6529433%" y1="75.270222%" x2="43.0685151%" y2="26.5118%" id="linearGradient-40">
            <stop stop-color="#B800EA" offset="0%"></stop>
            <stop stop-color="#72FDFF" offset="100%"></stop>
        </linearGradient>
        <linearGradient x1="90.9516177%" y1="37.6089896%" x2="7.69857464%" y2="60.3615497%" id="linearGradient-41">
            <stop stop-color="#00FFFF" offset="0%"></stop>
            <stop stop-color="#8850F0" offset="100%"></stop>
        </linearGradient>
        <linearGradient x1="82.4914364%" y1="0%" x2="34.6502844%" y2="63.9036638%" id="linearGradient-42">
            <stop stop-color="#B800EA" offset="0%"></stop>
            <stop stop-color="#72FDFF" offset="100%"></stop>
        </linearGradient>
        <linearGradient x1="161.899112%" y1="63.9036638%" x2="4.90120143%" y2="63.9036638%" id="linearGradient-43">
            <stop stop-color="#B800EA" offset="0%"></stop>
            <stop stop-color="#72FDFF" offset="100%"></stop>
        </linearGradient>
        <linearGradient x1="181.126889%" y1="63.9036638%" x2="4.90120143%" y2="63.9036638%" id="linearGradient-44">
            <stop stop-color="#B800EA" offset="0%"></stop>
            <stop stop-color="#72FDFF" offset="100%"></stop>
        </linearGradient>
        <linearGradient x1="70.1829244%" y1="0%" x2="12.1729664%" y2="115.128756%" id="linearGradient-45">
            <stop stop-color="#00F6FF" offset="0%"></stop>
            <stop stop-color="#A018EB" offset="100%"></stop>
        </linearGradient>
        <linearGradient x1="67.8132985%" y1="0%" x2="28.5201383%" y2="100%" id="linearGradient-46">
            <stop stop-color="#00EEFF" offset="0%"></stop>
            <stop stop-color="#9B30EE" offset="100%"></stop>
        </linearGradient>
        <linearGradient x1="74.9592407%" y1="0%" x2="38.2086701%" y2="63.9036638%" id="linearGradient-47">
            <stop stop-color="#B800EA" offset="0%"></stop>
            <stop stop-color="#72FDFF" offset="100%"></stop>
        </linearGradient>
        <linearGradient x1="126.531404%" y1="63.9036638%" x2="4.90120143%" y2="63.9036638%" id="linearGradient-48">
            <stop stop-color="#B800EA" offset="0%"></stop>
            <stop stop-color="#72FDFF" offset="100%"></stop>
        </linearGradient>
        <linearGradient x1="145.462664%" y1="34.732846%" x2="4.90120143%" y2="54.2453875%" id="linearGradient-49">
            <stop stop-color="#B800EA" offset="0%"></stop>
            <stop stop-color="#72FDFF" offset="100%"></stop>
        </linearGradient>
        <linearGradient x1="50%" y1="0%" x2="50%" y2="90.3736855%" id="linearGradient-50">
            <stop stop-color="#00FAFF" offset="0%"></stop>
            <stop stop-color="#B572F5" offset="100%"></stop>
        </linearGradient>
        <linearGradient x1="134.233421%" y1="37.2046469%" x2="4.90120143%" y2="55.6163496%" id="linearGradient-51">
            <stop stop-color="#B800EA" offset="0%"></stop>
            <stop stop-color="#72FDFF" offset="100%"></stop>
        </linearGradient>
        <linearGradient x1="50%" y1="166.664707%" x2="50%" y2="22.988277%" id="linearGradient-52">
            <stop stop-color="#B800EA" offset="0%"></stop>
            <stop stop-color="#72FDFF" offset="100%"></stop>
        </linearGradient>
        <linearGradient x1="74.9677037%" y1="28.7057947%" x2="37.8104698%" y2="39.4608719%" id="linearGradient-53">
            <stop stop-color="#6294F8" offset="0%"></stop>
            <stop stop-color="#00FFFF" offset="100%"></stop>
        </linearGradient>
        <linearGradient x1="79.82763%" y1="0%" x2="48.0082438%" y2="91.6897138%" id="linearGradient-54">
            <stop stop-color="#B800EA" offset="0%"></stop>
            <stop stop-color="#B606EB" offset="44.622216%"></stop>
            <stop stop-color="#72FDFF" offset="100%"></stop>
        </linearGradient>
        <linearGradient x1="18.8168168%" y1="67.7408697%" x2="72.9949582%" y2="41.777787%" id="linearGradient-55">
            <stop stop-color="#B800EA" offset="0%"></stop>
            <stop stop-color="#72FDFF" offset="100%"></stop>
        </linearGradient>
        <linearGradient x1="70.5319032%" y1="-44.0268355%" x2="30.0956594%" y2="90.8364622%" id="linearGradient-56">
            <stop stop-color="#B800EA" offset="0%"></stop>
            <stop stop-color="#72FDFF" offset="100%"></stop>
        </linearGradient>
        <linearGradient x1="5.71301253%" y1="47.5649379%" x2="94.3628443%" y2="52.4095799%" id="linearGradient-57">
            <stop stop-color="#08FFFF" offset="0%"></stop>
            <stop stop-color="#A713EC" offset="100%"></stop>
        </linearGradient>
        <linearGradient x1="66.508544%" y1="33.9142961%" x2="38.7130394%" y2="59.8932226%" id="linearGradient-58">
            <stop stop-color="#B800EA" offset="0%"></stop>
            <stop stop-color="#72FDFF" offset="100%"></stop>
        </linearGradient>
        <linearGradient x1="145.462664%" y1="28.7585841%" x2="4.90120143%" y2="55.9066701%" id="linearGradient-59">
            <stop stop-color="#B800EA" offset="0%"></stop>
            <stop stop-color="#72FDFF" offset="100%"></stop>
        </linearGradient>
    </defs>
    <g id="Page-1" stroke="none" stroke-width="1" fill="none" fill-rule="evenodd">
        <g id="ACALA-Copy-4" transform="translate(-1071.000000, -8127.000000)">
            <g id="Group-73" transform="translate(1071.000000, 8127.000000)">
                <g id="Group-48" transform="translate(0.000000, 138.000000)">
                    <polygon id="Rectangle" fill="url(#linearGradient-1)" points="0 20 76 20 76 93 0 93"></polygon>
                    <polygon id="Rectangle" fill="url(#linearGradient-2)" points="0 20 76 20 76 93 0 93"></polygon>
                    <ellipse id="Oval" fill="url(#linearGradient-3)" cx="38" cy="21" rx="38" ry="21"></ellipse>
                </g>
                <g id="Group-48-Copy" transform="translate(341.000000, 66.000000)">
                    <polygon id="Rectangle" fill="url(#linearGradient-1)" points="0 20 76 20 76 93 0 93"></polygon>
                    <polygon id="Rectangle" fill="url(#linearGradient-2)" points="0 20 76 20 76 93 0 93"></polygon>
                    <ellipse id="Oval" fill="url(#linearGradient-3)" cx="38" cy="21" rx="38" ry="21"></ellipse>
                </g>
                <g id="Group-48-Copy-5" transform="translate(123.000000, 29.000000)">
                    <polygon id="Rectangle" fill="url(#linearGradient-4)" points="0 40 152 40 152 186 0 186"></polygon>
                    <polygon id="Rectangle" fill="url(#linearGradient-5)" points="0 40 152 40 152 186 0 186"></polygon>
                    <ellipse id="Oval" fill="url(#linearGradient-6)" cx="76" cy="42" rx="76" ry="42"></ellipse>
                </g>
                <circle id="Oval" fill="url(#linearGradient-7)" cx="301" cy="178" r="56"></circle>
                <path d="M322,131.173104 C322,130.711494 323.739903,131.173104 327.219709,132.557932 L327.219709,132.557932 L331.913853,131.139997 C347.032291,141.184667 357,158.386479 357,177.92031 C357,199.037824 345.350532,217.429859 328.137722,227 C328.06299,226.940093 328.185097,226.803353 328.540042,226.584049 C332.470229,224.155768 333.650437,219.318529 334.975057,214.986376 C336.299677,210.654224 341.554752,210.317678 341.554752,205.418176 C341.554752,200.518673 341.554752,198.816085 342.862224,194.562299 C344.169697,190.308513 342.862224,188.048236 341.554752,188.048236 C340.247279,188.048236 337.160787,191.112572 334.975057,189.609121 C332.789327,188.105669 330.739168,191.112572 328.540042,191.112572 C326.340916,191.112572 326.269112,185.233491 324.609854,183.888919 C322.950597,182.544347 322,179.855739 323.67185,177.887457 C325.3437,175.919176 323.67185,173.874138 323.67185,170.455006 C323.67185,167.035875 324.609854,164.367664 327.219709,164.367664 C329.829563,164.367664 329.722126,160.030681 330.739168,157.185341 C331.75621,154.340001 333.650437,156.232063 336.005344,156.232063 C338.360251,156.232063 341.572435,160.030681 342.862224,160.030681 C344.152014,160.030681 344.523893,159.202467 344.523893,157.185341 C344.523893,155.168214 346.099826,159.202467 348.542228,160.75369 C350.89417,162.247461 350.02029,159.425895 348.696778,156.562408 L348.542228,156.232063 C347.136159,153.261659 344.928459,154.35825 342.862224,152.881637 C340.795989,151.405023 340.008826,155.228868 338.764048,155.228868 C337.51927,155.228868 335.491616,151.829059 333.650437,150.694895 C331.809259,149.560731 330.739168,156.232063 328.540042,156.232063 C326.340916,156.232063 326.369584,154.210106 324.609854,151.829059 C322.850125,149.448013 330.739168,150.086751 330.739168,148.971374 C330.739168,147.925707 327.645893,145.319467 327.259234,144.997771 L327.219709,144.965032 C327.219709,144.965032 328.540042,141.4831 328.540042,140.328003 C328.540042,139.172905 327.219709,137.902405 324.609854,137.902405 C322,137.902405 323.67185,135.22829 323.67185,134.124721 C323.67185,133.021152 322,131.865518 322,131.173104 Z" id="Combined-Shape" fill="url(#linearGradient-8)"></path>
                <g id="Group-48-Copy-2" transform="translate(303.000000, 278.000000)">
                    <polygon id="Rectangle" fill="url(#linearGradient-1)" points="0 20 76 20 76 93 0 93"></polygon>
                    <polygon id="Rectangle" fill="url(#linearGradient-2)" points="0 20 76 20 76 93 0 93"></polygon>
                    <ellipse id="Oval" fill="url(#linearGradient-3)" cx="38" cy="21" rx="38" ry="21"></ellipse>
                </g>
                <g id="Group-48-Copy-3" transform="translate(7.000000, 224.000000)">
                    <polygon id="Rectangle" fill="url(#linearGradient-9)" points="0 65.6031141 249.291834 65.6031141 249.291834 305.054481 0 305.054481"></polygon>
                    <polygon id="Rectangle" fill="url(#linearGradient-10)" points="0 65.6031141 249.291834 65.6031141 249.291834 305.054481 0 305.054481"></polygon>
                    <ellipse id="Oval" fill="url(#linearGradient-11)" cx="124.645917" cy="68.8832698" rx="124.645917" ry="68.8832698"></ellipse>
                </g>
                <g id="Group-48-Copy-4" transform="translate(409.000000, 161.000000)">
                    <polygon id="Rectangle" fill="url(#linearGradient-12)" points="0 52.615697 199.939649 52.615697 199.939649 244.662991 0 244.662991"></polygon>
                    <polygon id="Rectangle" fill="url(#linearGradient-13)" points="0 52.615697 199.939649 52.615697 199.939649 244.662991 0 244.662991"></polygon>
                    <ellipse id="Oval" fill="url(#linearGradient-14)" cx="99.9698243" cy="55.2464819" rx="99.9698243" ry="55.2464819"></ellipse>
                </g>
                <g id="Group-49" transform="translate(144.000000, 31.000000)">
                    <ellipse id="Oval-Copy-14" fill="url(#linearGradient-15)" cx="55" cy="39" rx="55" ry="32"></ellipse>
                    <ellipse id="Oval" fill="url(#linearGradient-16)" cx="55" cy="32.5" rx="55" ry="32.5"></ellipse>
                    <ellipse id="Oval-Copy-15" fill="url(#linearGradient-17)" cx="55.5" cy="33.5" rx="41.5" ry="24.5"></ellipse>
                    <ellipse id="Oval" fill="url(#linearGradient-18)" cx="55.5" cy="28.5" rx="41.5" ry="24.5"></ellipse>
                    <ellipse id="Oval" fill="url(#linearGradient-19)" cx="55.5" cy="28" rx="26.5" ry="15"></ellipse>
                </g>
                <g id="Group-49-Copy-2" transform="translate(434.000000, 169.000000)">
                    <ellipse id="Oval-Copy-14" fill="url(#linearGradient-20)" cx="75" cy="52.5" rx="75" ry="42.5"></ellipse>
                    <ellipse id="Oval" fill="url(#linearGradient-21)" cx="75" cy="43.5" rx="75" ry="43.5"></ellipse>
                    <ellipse id="Oval-Copy-15" fill="url(#linearGradient-22)" cx="75.5" cy="44.5" rx="56.5" ry="32.5"></ellipse>
                    <ellipse id="Oval" fill="url(#linearGradient-23)" cx="75.5" cy="38.5" rx="56.5" ry="32.5"></ellipse>
                    <ellipse id="Oval" fill="url(#linearGradient-24)" cx="76" cy="37" rx="36" ry="20"></ellipse>
                </g>
                <g id="Group-49-Copy" transform="translate(37.000000, 232.000000)">
                    <ellipse id="Oval-Copy-14" fill="url(#linearGradient-25)" cx="95" cy="66" rx="95" ry="54"></ellipse>
                    <ellipse id="Oval" fill="url(#linearGradient-26)" cx="95" cy="55" rx="95" ry="55"></ellipse>
                    <ellipse id="Oval-Copy-15" fill="url(#linearGradient-27)" cx="95.5" cy="56.5" rx="71.5" ry="41.5"></ellipse>
                    <ellipse id="Oval" fill="url(#linearGradient-28)" cx="95.5" cy="48.5" rx="71.5" ry="41.5"></ellipse>
                    <ellipse id="Oval" fill="url(#linearGradient-29)" cx="96" cy="47.5" rx="46" ry="25.5"></ellipse>
                </g>
                <g id="Group-50" transform="translate(177.000000, 0.000000)">
                    <polygon id="Path-50" fill="url(#linearGradient-30)" points="24.2680632 3.70736413 18.6999656 6.8678841 11.782475 3.49808407 17.6575186 4.54747351e-13"></polygon>
                    <polygon id="Path-51" fill="url(#linearGradient-31)" points="11.782475 3.49808407 11.782475 10.9957254 18.6999656 14.8365594 18.6999656 6.8678841"></polygon>
                    <path d="M24.2680632,11.4467386 L24.2680632,6.8678841 C26.5452792,7.00920432 28.5252047,7.48778482 30.2078399,8.30362559 C31.8904751,9.11946636 33.2632791,10.0480406 34.3262518,11.0893483 L27.7386987,10.5524286 L24.2680632,11.4467386 Z" id="Path-52" fill="url(#linearGradient-32)"></path>
                    <path d="M18.6999656,14.8365594 C12.210083,19.2893459 8.72177503,24.3230745 8.23504155,29.9377452 C7.74830808,35.5524159 9.42286015,39.0741748 13.2586978,40.5030218 C7.65778242,40.0183833 3.7910858,38.1363442 1.65860792,34.8569046 C-1.54010891,29.9377452 0.422897975,24.2325372 3.04745979,19.2000961 C4.79716767,15.8451353 7.70883939,13.1103451 11.782475,10.9957254 L18.6999656,14.8365594 Z" id="Path-53" fill="url(#linearGradient-33)"></path>
                    <path d="M33.0227995,30.1888485 L25.8183773,25.9763324 C23.2290461,25.5043212 20.0069827,25.5043212 16.1521871,25.9763324 C12.2973914,26.4483436 13.5257337,28.2852676 19.8372137,31.4871046 L31.5721971,30.9932413 L33.0227995,30.1888485 Z" id="Path-58" fill="url(#linearGradient-34)"></path>
                    <polygon id="Path-59" fill="url(#linearGradient-35)" points="11.3936694 49.5047159 4.47617881 46.1349159 0.169839108 55.4567873 7.08732973 58.8265873"></polygon>
                    <polygon id="Path-60" fill="url(#linearGradient-36)" points="11.782475 62.6366451 18.6999656 66.0064451 18.6999656 58.8265873 11.782475 54.9668401"></polygon>
                    <path d="M4.47617881,46.1349159 L11.3936694,49.5047159 C15.2013575,50.2457704 18.5346874,49.9920188 21.3936589,48.7434611 C25.6821162,46.8706246 28.4855625,42.5899579 27.1178528,40.5030218 C26.2060463,39.1117311 23.6631331,38.6929795 19.4891132,39.2467671 C18.9630148,41.2462203 17.666034,42.9854645 15.5981708,44.4644998 C13.5303076,45.9435351 9.82297692,46.5003404 4.47617881,46.1349159 Z" id="Path-61" fill="url(#linearGradient-37)"></path>
                    <path d="M34.3262518,11.0893483 L29.922349,19.9194665 C23.6563011,20.3228441 19.7257763,21.6346232 18.1307745,23.8548039 C15.7382718,27.1850749 16.0473863,30.7152847 20.1642873,30.0861558 C24.2811883,29.4570268 34.9881935,25.9521921 35.6623852,35.584253 C36.1118464,42.0056269 32.5320529,48.5509599 24.9230049,55.220252 L24.9230049,62.7273619 L18.6999656,66.0064451 L18.6999656,58.8265873 C16.6956196,59.5197088 14.521085,59.8662696 12.1763619,59.8662696 C9.83163873,59.8662696 8.13529468,59.5197088 7.08732973,58.8265873 L11.3936694,49.5047159 C15.7074318,50.1329699 19.0407616,49.8792183 21.3936589,48.7434611 C24.9230049,47.0398253 27.7311672,43.25197 26.5636402,40.7970984 C25.3961133,38.3422268 21.2436066,39.3314641 18.6999656,40.0642813 C16.1563245,40.7970984 9.67297106,41.8352925 8.07127345,35.584253 C6.46957583,29.3332135 8.93009137,24.7223719 12.1763619,20.5245329 C14.3405422,17.7259735 16.5150768,15.8299824 18.6999656,14.8365594 L18.6999656,6.8678841 L24.2680632,3.70736413 L24.2680632,11.4467386 C25.7732621,10.744224 27.658024,10.3929667 29.922349,10.3929667 C32.1866739,10.3929667 33.6546415,10.6250939 34.3262518,11.0893483 Z" id="Path-49" fill="url(#linearGradient-38)"></path>
                </g>
                <g id="Group-53" transform="translate(490.000000, 126.000000)">
                    <polygon id="Path-68" fill="url(#linearGradient-39)" points="4.92151897 17.5499995 4.92151897 76.6379671 12.7154567 81.0732113 12.7154567 22.0499994"></polygon>
                    <polygon id="Path-70-Copy-2" fill="url(#linearGradient-40)" points="7.40706904 75.9337736 7.40706904 84.1121482 14.6961991 88.6277421 14.6961991 79.7328059"></polygon>
                    <path d="M6.79303689,25.0154222 L0.296199458,20.8520763 L4.92151897,17.5499995 L5.46530013,17.2287986 C15.913266,11.0597226 22.5833229,7.25757263 25.4754706,5.82234859 C29.8884892,3.63239466 30.5308762,3.61296942 33.7533976,4.0230436 C36.9759191,4.43311778 44.2884188,9.50762646 42.6406277,8.90342885 C41.5421002,8.50063044 38.7102611,8.83224596 34.1451103,9.8982754 L34.1451103,9.8982754 L12.7154567,22.0499994 L6.79303689,25.0154222 Z" id="Combined-Shape" fill="url(#linearGradient-41)"></path>
                    <polygon id="Path-70-Copy-3" fill="url(#linearGradient-42)" points="17.396199 70.4023813 17.396199 78.7121483 24.685329 82.8965687 24.685329 74.2014136"></polygon>
                    <polygon id="Path-70" fill="url(#linearGradient-43)" points="7.40706904 9.38732895 7.40706904 16.065579 14.6961991 20.2499995 14.6961991 13.1863613"></polygon>
                    <polygon id="Path-70-Copy" fill="url(#linearGradient-44)" points="17.6612669 3.55677665 17.6612669 11.2158291 24.685329 15.3965705 24.685329 7.36232431"></polygon>
                    <path d="M32.1786084,18.3550149 C30.9482407,24.2821009 29.2609428,28.179703 27.1167145,30.0478215 C24.9724862,31.9159399 22.4779908,33.4943231 19.6332284,34.782971 L20.299671,43.8650788 L33.1097197,36.6768829 L40.0439272,29.0163263 L40.0439272,17.5499995 L35.4612452,16.3296186 L32.1786084,18.3550149 Z" id="Path-73" fill="url(#linearGradient-45)"></path>
                    <path d="M32.1295122,43.7379606 C32.1295122,49.5769013 30.4585796,53.520315 27.1167145,55.5682017 C23.7748493,57.6160884 21.280354,59.1944716 19.6332284,60.3033512 L20.299671,69.385459 L33.1097197,62.1972632 L41.2813715,55.2042874 L41.2813715,43.7379606 L35.4612452,41.8499989 L32.1295122,43.7379606 Z" id="Path-73-Copy" fill="url(#linearGradient-46)"></path>
                    <path d="M35.9130804,42.7971202 L21.8961989,51.4834989 L21.8961989,67.6117705 C21.8961989,67.6117705 24.6540976,65.9127677 30.1698951,62.5147621 C38.4435914,57.4177537 40.0439272,52.9398269 40.0439272,47.8542215 C40.0439272,44.4638179 38.6669783,42.7781175 35.9130804,42.7971202 Z M34.2059958,18.4155069 L33.9947462,18.4499995 L21.5782006,26.2831836 L21.5037611,41.740628 C24.1062746,40.8587059 27.3616873,39.2248361 31.2699991,36.8390185 C37.1324668,33.2602921 38.2732173,28.5459675 38.2732173,23.1143142 C38.2732173,19.5837395 36.9174768,18.0174705 34.2059958,18.4155069 Z M14.6951993,20.9112505 L14.6961991,13.2035549 L19.7074868,10.3499997 L19.7071993,18.0322505 L24.5951993,15.2252505 L24.5961988,7.35410665 L29.6074866,4.47125054 L29.6071993,12.3462505 L34.5275976,9.52071294 C41.4277222,7.02285237 45.5212375,8.78660163 46.8081433,14.8119607 C48.0950492,20.8373198 46.720116,27.3584638 42.6833438,34.3753926 C47.4441423,34.942924 49.8245415,38.7391643 49.8245415,45.7641134 C49.8245415,56.3015372 46.9717528,60.0923339 36.9023812,66.9072255 C34.740257,68.3705385 32.438149,69.8637961 29.9960572,71.3869982 L29.9961987,79.6351113 L24.5961988,82.7888701 L24.5971011,74.6681679 C23.1397233,75.5323273 21.6396978,76.4056098 20.0970245,77.2880152 L20.0961989,85.3771896 L14.6961991,88.6277421 L14.6956793,80.3188963 C14.0423793,80.6788066 13.3823051,81.0401659 12.7154567,81.4029744 L12.7151993,81.3886583 L7.31619927,84.0137135 L7.31619927,76.649475 L12.7154567,73.144909 L12.7154567,31.6317836 L6.79303689,32.3658284 L6.79303689,25.0154222 L12.7154567,22.0499994 L14.6951993,20.9112505 Z" id="Combined-Shape" fill="url(#linearGradient-47)"></path>
                    <polygon id="Path-69" fill="url(#linearGradient-48)" points="14.7110709 13.1863613 7.40706904 9.38732895 12.4834458 6.48201344 19.7223586 10.3499997"></polygon>
                    <polygon id="Path-69-Copy" fill="url(#linearGradient-49)" points="24.6110706 7.36232431 17.6612669 3.55677665 22.5315399 0.752881425 29.6223584 4.47304359"></polygon>
                    <polygon id="Path-67" fill="url(#linearGradient-50)" points="0.296199458 20.8520763 0.296199458 27.9730826 6.97003836 32.3658284 6.97003836 25.0400453"></polygon>
                    <polygon id="Path-66" fill="url(#linearGradient-51)" points="7.40706904 76.649475 0 71.7749981 4.92151897 68.5679299 12.7154567 73.144909"></polygon>
                    <polygon id="Path-67" fill="url(#linearGradient-52)" points="4.90026034e-12 71.7749981 0 78.5579841 7.31619927 84.0137135 7.31619927 76.649475"></polygon>
                </g>
                <path d="M264.392707,136.206774 C264.161772,138.863713 262.359388,141.427204 258.985553,143.897246 C253.924802,147.60231 249.511501,154.906045 249.511501,157.641936 C249.511501,159.465864 249.007667,163.282754 248,169.092608 L250.169054,165.430677 C249.730685,169.750883 249.511501,172.218181 249.511501,172.83257 C249.511501,173.44696 250.535754,175.071198 252.584262,177.705284 L254.172058,177.705284 C256.712631,179.454273 257.982918,180.624252 257.982918,181.21522 C257.982918,182.101672 259.2326,185.057252 260.076023,185.965523 C260.919447,186.873795 262.017573,186.339039 262.930258,186.606417 C263.842943,186.873795 264.392707,188.120079 264.392707,189.822718 C264.392707,191.525357 262.678819,195.754218 264.392707,200.558515 C266.106595,205.362812 270.80966,210.927453 272.563534,211.457401 C274.317408,211.987349 277.834839,214.348633 277.834839,216.569756 C277.834839,218.790879 284.041543,227.775221 287.531045,230.257435 C289.85738,231.912244 292.227159,232.826432 294.64038,233 C291.81457,231.260379 290.401665,229.699257 290.401665,228.316633 C290.401665,226.93401 290.717561,225.939324 291.349353,225.332577 C292.988536,223.181473 293.808128,221.677426 293.808128,220.820436 C293.808128,219.534951 295.102495,217.490601 295.79399,217.490601 C296.485486,217.490601 299.383289,216.848228 299.383289,215.302762 C299.383289,214.272451 299.589955,211.966023 300.003289,208.38348 C302.158581,205.735341 303.236226,203.769146 303.236226,202.484893 C303.236226,200.558515 301.009812,199.364005 299.383289,198.873997 C297.756766,198.383989 294.298915,196.855904 291.349353,195.975739 C288.39979,195.095573 288.518949,190.676996 286.58373,189.822718 C285.293583,189.253199 283.627961,188.899654 281.586864,188.762082 C279.591444,185.345216 277.896032,183.636784 276.500628,183.636784 C274.407522,183.636784 272.607846,182.515128 271.707822,182.515128 C270.807798,182.515128 268.737407,181.393472 267.710776,182.515128 C267.026355,183.262898 266.112677,183.958985 264.969742,184.603387 C264.248333,184.603387 263.568505,184.603387 262.930258,184.603387 C261.972889,184.603387 260.076023,183.815036 260.076023,182.515128 C260.076023,181.21522 262.240415,179.285883 260.612984,177.705284 C259.52803,176.651551 258.483401,176.333138 257.479098,176.750045 C257.756422,175.658591 258.258573,174.352766 258.985553,172.83257 C260.076023,170.552277 258.029092,170.077801 257.479098,171.171721 C256.929104,172.26564 255.119001,174.123603 254.172058,174.123603 C253.225115,174.123603 253.608658,166.788646 255.183794,164.913302 C256.758929,163.037959 258.837885,161.791304 260.076023,161.791304 C261.314162,161.791304 264.392707,161.032809 264.392707,161.791304 C264.392707,162.5498 264.097646,167.189528 264.969742,167.189528 C265.841839,167.189528 266.462211,160.170765 267.710776,159.690372 C268.959341,159.209979 272.677852,155.464839 274.58924,153.716713 C276.500628,151.968586 278.473457,150.946042 279.477374,150.946042 C280.48129,150.946042 280.753866,148.129143 282.454491,148.129143 C284.155116,148.129143 283.892966,148.129143 285.238348,148.129143 C286.135269,148.129143 287.425043,147.752546 289.10767,146.999351 C286.7935,146.746447 285.952186,146.166204 286.58373,145.258621 C287.531045,143.897246 289.453977,143.897246 290.401665,143.897246 C291.349353,143.897246 290.033388,146.096257 292.336884,146.096257 C294.64038,146.096257 293.808128,144.876445 293.808128,143.897246 C293.808128,142.918047 292.336884,140.231694 292.336884,138.605237 C292.336884,136.978781 290.401665,138.411453 290.401665,136.804967 C290.401665,135.19848 289.056283,135.045376 288.293664,135.121928 C287.531045,135.19848 285.181003,139.907364 283.817747,139.907364 C282.454491,139.907364 280.14541,142.367019 279.477374,142.367019 C278.809337,142.367019 282.57514,139.423273 281.586864,139.423273 C280.598587,139.423273 278.174815,138.488005 278.826094,136.804967 C279.477374,135.121928 284.376306,134.178894 285.238348,134.178894 C286.10039,134.178894 287.479658,134.99656 288.293664,134.178894 C289.10767,133.361228 291.349353,132.126038 291.349353,132.743633 C291.349353,133.361228 291.653581,135.121928 292.336884,135.121928 C293.020188,135.121928 293.486771,133.368624 294.64038,133.368624 C295.79399,133.368624 296.352921,132.440383 295.79399,131.526934 C295.235059,130.613485 294.436693,129.739977 295.79399,129.070607 C297.151288,128.401238 300.003289,127.367598 300.003289,129.070607 C300.003289,130.773616 298.763288,131.61532 299.383289,133.368624 C300.003289,135.121928 302.013355,136.804967 302.624791,136.804967 C303.236226,136.804967 304.789764,132.743633 306.011146,132.743633 C307.232528,132.743633 310,131.218506 310,130.144557 C310,129.070607 306.563374,127 304.282221,127 C302.001067,127 297.779853,127 295.79399,127 C293.808128,127 292.297041,129.070607 291.349353,129.070607 C290.401665,129.070607 289.823743,129.070607 287.531045,129.070607 C285.238348,129.070607 281.586864,130.007724 281.586864,130.767329 C281.586864,131.526934 279.169049,131.526934 277.834839,131.526934 C276.500628,131.526934 275.726466,130.310235 273.17348,131.526934 C271.47149,132.338067 268.544565,133.898013 264.392707,136.206774 Z" id="Path-75" fill="url(#linearGradient-53)"></path>
                <line x1="207.5" y1="69.5" x2="268.925144" y2="134.550351" id="Path-81" stroke-opacity="0.411740603" stroke="#7B86EC" stroke-width="5" stroke-linecap="round" stroke-linejoin="round" stroke-dasharray="5,11"></line>
                <line x1="180" y1="259.425144" x2="262.905463" y2="195.384933" id="Path-81-Copy" stroke-opacity="0.411740603" stroke="#7B86EC" stroke-width="5" stroke-linecap="round" stroke-linejoin="round" stroke-dasharray="5,11"></line>
                <line x1="352" y1="183" x2="453" y2="212" id="Path-81-Copy-2" stroke-opacity="0.411740603" stroke="#7B86EC" stroke-width="5" stroke-linecap="round" stroke-linejoin="round" stroke-dasharray="5,11"></line>
                <g id="Group-29" transform="translate(99.000000, 217.000000)">
                    <polygon id="Path-78" fill="url(#linearGradient-54)" points="57.479252 58.1640227 49.069809 54.4901928 31.1081787 24.3416817 32.0100766 13.2315334 38.4576002 10.8602341 57.5498269 52.8819727"></polygon>
                    <path d="M24.6762726,58.1640227 L12.7360778,49.786502 C20.251941,44.0741086 27.7521111,40.9488173 35.2365881,40.4106282 C42.7210651,39.8724391 48.1500853,42.3067559 51.5236488,47.7135785 L24.6762726,58.1640227 Z" id="Path-80" fill="url(#linearGradient-55)"></path>
                    <polygon id="Path-74" fill="url(#linearGradient-56)" points="37.2237163 3.66200089 27.8532028 8.87022797 7.96355205 76.6894466 17.2592301 71.6438628 34.2865273 16.9011641 57.479252 58.1640227 65.2129429 53.7754902"></polygon>
                    <polygon id="Path-50" fill="url(#linearGradient-57)" points="37.2237163 3.66200089 27.8532028 8.87022797 19.7035307 4.89970026 29.7294027 -5.99520433e-13"></polygon>
                    <polygon id="Path-77" fill="url(#linearGradient-58)" points="19.7035307 4.85255229 1.82443226e-13 72.0242664 8.16973362 75.9687042 27.8532028 8.87022797"></polygon>
                    <path d="M17.2592301,71.6438628 C24.7986675,62.3548044 32.020216,56.7230427 38.9238757,54.7485777 C45.8275353,52.7741127 52.0126607,53.9125944 57.479252,58.1640227 L51.5236488,47.7135785 C46.7272181,45.2895803 41.748751,44.7944533 36.5882475,46.2281972 C31.4277439,47.6619412 26.7220643,50.5554676 22.4712087,54.9087763 L17.2592301,71.6438628 Z" id="Path-79" fill="url(#linearGradient-59)"></path>
                </g>
            </g>
        </g>
    </g>
</svg>