<svg width="11px" height="22px" viewBox="0 0 11 22" version="1.1" xmlns="http://www.w3.org/2000/svg" xmlns:xlink="http://www.w3.org/1999/xlink">
    <g id="Symbols" stroke="none" stroke-width="1" fill="none" fill-rule="evenodd">
        <g id="FooterSection" transform="translate(-502.000000, -55.000000)" fill="#FFFFFF">
            <g id="Group-3" transform="translate(170.000000, 15.000000)">
                <g id="Social-media-icons-footer" transform="translate(269.000000, 28.000000)">
                    <g id="facebook-icon" transform="translate(63.000000, 12.000000)">
                        <path d="M0.35122219,11.7171914 L2.73824014,11.7171914 L2.73824014,21.6451641 C2.73824014,21.8411875 2.89543525,22 3.08946233,22 L7.1366835,22 C7.33071058,22 7.48790569,21.8411875 7.48790569,21.6451641 L7.48790569,11.7639844 L10.2319726,11.7639844 C10.4103907,11.7639844 10.5604832,11.6287188 10.5808556,11.449668 L10.9976183,7.79466016 C11.0090591,7.69411328 10.9775436,7.59339453 10.9109398,7.51798438 C10.8442935,7.44244531 10.7488961,7.39921875 10.6487778,7.39921875 L7.48803328,7.39921875 L7.48803328,5.108125 C7.48803328,4.41744531 7.85614034,4.06725 8.5821895,4.06725 C8.68566778,4.06725 10.6487778,4.06725 10.6487778,4.06725 C10.8428049,4.06725 11,3.90835156 11,3.71237109 L11,0.357457031 C11,0.161433594 10.8428049,0.00262109375 10.6487778,0.00262109375 L7.80072226,0.00262109375 C7.78060502,0.0016328125 7.73598985,0 7.67027924,0 C7.17606734,0 5.45840454,0.0980117188 4.10153344,1.35910156 C2.59814255,2.75661719 2.80714059,4.42986328 2.85707216,4.71998828 L2.85707216,7.39917578 L0.35122219,7.39917578 C0.15719511,7.39917578 0,7.55798828 0,7.75401172 L0,11.3622695 C0,11.558293 0.15719511,11.7171914 0.35122219,11.7171914"></path>
                    </g>
                </g>
            </g>
        </g>
    </g>
</svg>
