<?xml version="1.0" encoding="UTF-8"?>
<svg width="16px" height="16px" viewBox="0 0 16 16" version="1.1" xmlns="http://www.w3.org/2000/svg" xmlns:xlink="http://www.w3.org/1999/xlink">
    <!-- Generator: Sketch 59.1 (86144) - https://sketch.com -->
    <title>facebook</title>
    <desc>Created with Sketch.</desc>
    <g id="Page-1" stroke="none" stroke-width="1" fill="none" fill-rule="evenodd">
        <g id="ACALA-Copy-4" transform="translate(-313.000000, -9223.000000)" fill="#4E4E4E" fill-rule="nonzero">
            <g id="facebook" transform="translate(312.000000, 9223.000000)">
                <path d="M16.1173333,0 L1.88266667,0 C1.39533333,0 1,0.395333328 1,0.882666672 L1,15.1173333 C1,15.6053333 1.39533333,16 1.88266667,16 L9.54533333,16 L9.54533333,9.804 L7.45933333,9.804 L7.45933333,7.39 L9.54533333,7.39 L9.54533333,5.60666667 C9.54533333,3.54066667 10.808,2.41666667 12.6513333,2.41666667 C13.5346667,2.41666667 14.294,2.48133334 14.5153333,2.51066667 L14.5153333,4.67066667 L13.2346667,4.67066667 C12.2346667,4.67066667 12.04,5.15133334 12.04,5.85133333 L12.04,7.392 L14.4293333,7.392 L14.1193333,9.812 L12.04,9.812 L12.04,16 L16.1166667,16 C16.6053333,16 17,15.6053333 17,15.1173333 L17,0.882666672 C17,0.395333328 16.6053333,0 16.1173333,0" id="Path"></path>
            </g>
        </g>
    </g>
</svg>