<?xml version="1.0" encoding="UTF-8"?>
<svg width="20px" height="20px" viewBox="0 0 20 20" version="1.1" xmlns="http://www.w3.org/2000/svg" xmlns:xlink="http://www.w3.org/1999/xlink">
    <!-- Generator: Sketch 63.1 (92452) - https://sketch.com -->
    <title>github (1)</title>
    <desc>Created with Sketch.</desc>
    <g id="Page-1" stroke="none" stroke-width="1" fill="none" fill-rule="evenodd">
        <g id="ACALA-Copy-5" transform="translate(-432.000000, -9102.000000)" fill="#4E4E4E" fill-rule="nonzero">
            <g id="github-(1)" transform="translate(432.000000, 9102.000000)">
                <path d="M10,-2.30926389e-14 C4.475,-2.30926389e-14 0,4.4 0,9.82666667 C0,14.1691667 2.865,17.8516667 6.8375,19.15 C7.3375,19.2425 7.52083333,18.9383333 7.52083333,18.6775 C7.52083333,18.4441667 7.5125,17.8258333 7.50833333,17.0066667 C4.72666667,17.5991667 4.14,15.6883333 4.14,15.6883333 C3.685,14.5541667 3.0275,14.2508333 3.0275,14.2508333 C2.12166667,13.6416667 3.0975,13.6541667 3.0975,13.6541667 C4.10166667,13.7225 4.62916667,14.6666667 4.62916667,14.6666667 C5.52083333,16.1691667 6.97,15.735 7.54166667,15.4841667 C7.63166667,14.8483333 7.88916667,14.4158333 8.175,14.17 C5.95416667,13.9241667 3.62,13.0791667 3.62,9.31416667 C3.62,8.24166667 4.0075,7.365 4.64916667,6.6775 C4.53666667,6.42916667 4.19916667,5.43 4.73666667,4.07666667 C4.73666667,4.07666667 5.57416667,3.81333333 7.48666667,5.08416667 C8.28666667,4.86583333 9.13666667,4.7575 9.98666667,4.7525 C10.8366667,4.7575 11.6866667,4.86583333 12.4866667,5.08416667 C14.3866667,3.81333333 15.2241667,4.07666667 15.2241667,4.07666667 C15.7616667,5.43 15.4241667,6.42916667 15.3241667,6.6775 C15.9616667,7.365 16.3491667,8.24166667 16.3491667,9.31416667 C16.3491667,13.0891667 14.0116667,13.92 11.7866667,14.1616667 C12.1366667,14.4566667 12.4616667,15.0591667 12.4616667,15.98 C12.4616667,17.295 12.4491667,18.3516667 12.4491667,18.6708333 C12.4491667,18.9283333 12.6241667,19.2358333 13.1366667,19.1375 C17.1375,17.8475 20,14.1625 20,9.82666667 C20,4.4 15.5225,-2.30926389e-14 10,-2.30926389e-14 L10,-2.30926389e-14 Z" id="Path"></path>
            </g>
        </g>
    </g>
</svg>