<?xml version="1.0" encoding="UTF-8"?>
<svg width="120px" height="37px" viewBox="0 0 120 37" version="1.1" xmlns="http://www.w3.org/2000/svg" xmlns:xlink="http://www.w3.org/1999/xlink">
    <!-- Generator: Sketch 63.1 (92452) - https://sketch.com -->
    <title>goodmore</title>
    <desc>Created with Sketch.</desc>
    <g id="Page-1" stroke="none" stroke-width="1" fill="none" fill-rule="evenodd">
        <g id="goodmore" fill-rule="nonzero">
            <path d="M6.71911517,13.9710498 C10.5452323,13.9710498 12.8166984,11.7275115 12.8166984,8.0596523 L12.8166984,6.41190844 L7.06355882,6.41190844 L7.06355882,8.75784886 L9.52121069,8.75784886 L9.51190138,8.9626532 C9.41880852,10.3124999 8.33893119,11.22481 6.79358947,11.22481 C4.82932985,11.22481 3.56326677,9.6143033 3.56326677,6.95184712 C3.56326677,4.33593735 4.70830909,2.81852352 6.64464087,2.81852352 C7.95725041,2.81852352 8.96265342,3.54464793 9.29778779,4.73623671 L12.6770591,4.73623671 C12.3326155,1.99930623 9.89358219,0.0722837383 6.63533159,0.0722837383 C2.57648229,0.0722837383 0.081593271,2.64164706 0.081593271,6.99839355 C0.081593271,11.4109958 2.57648229,13.9710498 6.71911517,13.9710498 Z M20.7761391,13.9710498 C24.8442977,13.9710498 27.4043517,11.3085936 27.4043517,7.02632142 C27.4043517,2.74404922 24.8442977,0.0722837383 20.7761391,0.0722837383 C16.7079805,0.0722837383 14.1386172,2.74404922 14.1386172,7.02632142 C14.1386172,11.3085936 16.6986712,13.9710498 20.7761391,13.9710498 Z M20.7761391,11.1968822 C18.8584259,11.1968822 17.6202907,9.57706615 17.6202907,7.02632142 C17.6202907,4.46626738 18.8677352,2.84645138 20.7761391,2.84645138 C22.684543,2.84645138 23.9319875,4.46626738 23.9319875,7.02632142 C23.9319875,9.57706615 22.684543,11.1968822 20.7761391,11.1968822 Z M35.3358645,13.9710498 C39.4040232,13.9710498 41.9640771,11.3085936 41.9640771,7.02632142 C41.9640771,2.74404922 39.4040232,0.0722837383 35.3358645,0.0722837383 C31.2677061,0.0722837383 28.6983426,2.74404922 28.6983426,7.02632142 C28.6983426,11.3085936 31.2583968,13.9710498 35.3358645,13.9710498 Z M35.3358645,11.1968822 C33.4181515,11.1968822 32.1800162,9.57706615 32.1800162,7.02632142 C32.1800162,4.46626738 33.4274607,2.84645138 35.3358645,2.84645138 C37.2442685,2.84645138 38.4917131,4.46626738 38.4917131,7.02632142 C38.4917131,9.57706615 37.2442685,11.1968822 35.3358645,11.1968822 Z M49.0856821,13.7383176 C53.135222,13.7383176 55.5277088,11.2341193 55.5277088,6.94253781 C55.5277088,2.66026563 53.1445312,0.305015923 49.0856821,0.305015923 L43.6304397,0.305015923 L43.6304397,13.7383176 L49.0856821,13.7383176 Z M48.6388363,10.9827686 L47.0469482,10.9827686 L47.0469482,3.06056498 L48.6388363,3.06056498 C50.7985909,3.06056498 52.0553448,4.42903023 52.0553448,6.95184712 C52.0553448,9.63292189 50.863756,10.9827686 48.6388363,10.9827686 Z M60.1916619,13.7383176 L60.1916619,5.35064969 L60.2661362,5.35064969 L63.5802426,13.7383176 L65.5351929,13.7383176 L68.8586086,5.35064969 L68.9237734,5.35064969 L68.9237734,13.7383176 L71.9306734,13.7383176 L71.9306734,0.305015923 L67.9835355,0.305015923 L64.5949548,9.08367393 L64.5204805,9.08367393 L61.1319,0.305015923 L57.1847621,0.305015923 L57.1847621,13.7383176 L60.1916619,13.7383176 Z M80.2252483,13.9710498 C84.293407,13.9710498 86.8534609,11.3085936 86.8534609,7.02632142 C86.8534609,2.74404922 84.293407,0.0722837383 80.2252483,0.0722837383 C76.1570899,0.0722837383 73.5877264,2.74404922 73.5877264,7.02632142 C73.5877264,11.3085936 76.1477804,13.9710498 80.2252483,13.9710498 Z M80.2252483,11.1968822 C78.307535,11.1968822 77.0694,9.57706615 77.0694,7.02632142 C77.0694,4.46626738 78.3168443,2.84645138 80.2252483,2.84645138 C82.1336523,2.84645138 83.3810966,4.46626738 83.3810966,7.02632142 C83.3810966,9.57706615 82.1336523,11.1968822 80.2252483,11.1968822 Z M91.9363318,13.7383176 L91.9363318,9.0371275 L93.6771687,9.0371275 L95.985872,13.7383176 L99.8212982,13.7383176 L97.1309142,8.53442596 C98.6017817,7.89208514 99.4303082,6.3839806 99.4303082,4.73623671 C99.4303082,1.96206908 97.6243065,0.305015923 94.2729631,0.305015923 L88.5198236,0.305015923 L88.5198236,13.7383176 L91.9363318,13.7383176 Z M93.9378286,6.70049636 L91.9363318,6.70049636 L91.9363318,2.88368854 L93.9285193,2.88368854 C95.1480359,2.88368854 95.9393254,3.65635937 95.9393254,4.80140173 C95.9393254,5.96506264 95.1945824,6.70049636 93.9378286,6.70049636 Z M110.340793,13.7383176 L110.340793,10.9827686 L104.550416,10.9827686 L104.550416,8.24583807 L109.996349,8.24583807 L109.996349,5.73233047 L104.550416,5.73233047 L104.550416,3.06056498 L110.340793,3.06056498 L110.340793,0.305015923 L101.133908,0.305015923 L101.133908,13.7383176 L110.340793,13.7383176 Z" id="GOODMORE" fill="#000000"></path>
            <path d="M6.25365081,36.6627115 C9.16745776,36.6627115 11.2248103,35.089442 11.6995839,32.4735322 L10.4242116,32.4735322 C10.0239122,34.3353897 8.40409621,35.480432 6.26296009,35.480432 C3.40500886,35.480432 1.57107925,33.2368937 1.57107925,29.6993647 C1.57107925,26.2083819 3.40500886,23.9834622 6.25365081,23.9834622 C8.33893119,23.9834622 10.0518401,25.3426181 10.4242116,27.2789499 L11.6995839,27.2789499 C11.3365217,24.6537309 9.09298346,22.8011827 6.25365081,22.8011827 C2.60441015,22.8011827 0.267779019,25.4915667 0.267779019,29.6993647 C0.267779019,33.953709 2.59510086,36.6627115 6.25365081,36.6627115 Z M13.8779572,36.4485981 L15.3674431,32.3338929 L21.0088713,32.3338929 L22.4983573,36.4485981 L23.8388947,36.4485981 L18.8211888,23.0152963 L17.5551257,23.0152963 L12.5281105,36.4485981 L13.8779572,36.4485981 Z M20.6271905,31.2353972 L15.7491239,31.2353972 L18.1602294,24.5885659 L18.2160851,24.5885659 L20.6271905,31.2353972 Z M26.5851345,36.4485981 L26.5851345,31.3843458 L29.8806221,31.3843458 C32.4406761,31.3843458 34.2001315,29.6900554 34.2001315,27.1951663 C34.2001315,24.7002773 32.4592949,23.0152963 29.8899314,23.0152963 L25.3190714,23.0152963 L25.3190714,36.4485981 L26.5851345,36.4485981 Z M29.5920342,30.2486125 L26.5851345,30.2486125 L26.5851345,24.1510294 L29.5920342,24.1510294 C31.6680053,24.1510294 32.8968314,25.2867624 32.8968314,27.1951663 C32.8968314,29.1035703 31.6586961,30.2486125 29.5920342,30.2486125 Z M37.290815,36.4485981 L37.290815,23.0152963 L36.024752,23.0152963 L36.024752,36.4485981 L37.290815,36.4485981 Z M44.6079149,36.4485981 L44.6079149,24.1696479 L49.048445,24.1696479 L49.048445,23.0152963 L38.9013216,23.0152963 L38.9013216,24.1696479 L43.3325425,24.1696479 L43.3325425,36.4485981 L44.6079149,36.4485981 Z M50.9568488,36.4485981 L52.4463348,32.3338929 L58.087763,32.3338929 L59.577249,36.4485981 L60.9177864,36.4485981 L55.9000806,23.0152963 L54.6340172,23.0152963 L49.6070021,36.4485981 L50.9568488,36.4485981 Z M57.7060822,31.2353972 L52.8280155,31.2353972 L55.2391211,24.5885659 L55.2949766,24.5885659 L57.7060822,31.2353972 Z M70.3946408,36.4485981 L70.3946408,35.2942464 L63.6640262,35.2942464 L63.6640262,23.0152963 L62.3979631,23.0152963 L62.3979631,36.4485981 L70.3946408,36.4485981 Z" id="CAPITAL" fill="#3A3A3A"></path>
            <path d="M117.196262,0.280373692 C118.589877,0.280373692 119.719626,1.41012245 119.719626,2.80373818 C119.719626,4.19735389 118.589877,5.32710266 117.196262,5.32710266 C115.802646,5.32710266 114.672897,4.19735389 114.672897,2.80373818 C114.672897,1.41012245 115.802646,0.280373692 117.196262,0.280373692 Z M117.196262,1.12149519 C116.267185,1.12149519 115.514019,1.87466103 115.514019,2.80373818 C115.514019,3.73281533 116.267185,4.48598117 117.196262,4.48598117 C118.125339,4.48598117 118.878505,3.73281533 118.878505,2.80373818 C118.878505,1.87466103 118.125339,1.12149519 117.196262,1.12149519 Z" id="Oval" fill="#000000"></path>
            <circle id="Oval" fill="#000000" cx="117.196262" cy="11.2149531" r="2.52336449"></circle>
        </g>
    </g>
</svg>