<?xml version="1.0" encoding="UTF-8"?>
<svg width="116px" height="37px" viewBox="0 0 116 37" version="1.1" xmlns="http://www.w3.org/2000/svg" xmlns:xlink="http://www.w3.org/1999/xlink">
    <!-- Generator: Sketch 59.1 (86144) - https://sketch.com -->
    <title>goodmore</title>
    <desc>Created with Sketch.</desc>
    <g id="Page-1" stroke="none" stroke-width="1" fill="none" fill-rule="evenodd">
        <g id="goodmore" transform="translate(0.000000, 1.000000)">
            <path d="M6.691016,13.657812 C10.391016,13.657812 12.491016,11.457812 12.491016,7.957812 L12.491016,6.357812 L6.991016,6.357812 L6.991016,8.657812 L9.291016,8.657812 L9.291016,8.857812 C9.191016,10.157812 8.191016,11.057812 6.691016,11.057812 C4.791016,11.057812 3.591016,9.457812 3.591016,6.957812 C3.591016,4.457812 4.691016,2.957812 6.491016,2.957812 C7.791016,2.957812 8.691016,3.657812 8.991016,4.857812 L12.191016,4.857812 C11.991016,2.157812 9.691016,0.257812 6.591016,0.257812 C2.691016,0.257812 0.291016,2.757812 0.291016,6.957812 C0.291016,11.157812 2.691016,13.657812 6.691016,13.657812 Z M20.091016,13.657812 C23.991016,13.657812 26.391016,11.057812 26.391016,6.957812 C26.391016,2.857812 23.991016,0.257812 20.091016,0.257812 C16.191016,0.257812 13.691016,2.857812 13.691016,6.957812 C13.691016,11.057812 16.191016,13.657812 20.091016,13.657812 Z M20.091016,10.957812 C18.291016,10.957812 17.091016,9.357812 17.091016,6.957812 C17.091016,4.457812 18.291016,2.957812 20.091016,2.957812 C21.891016,2.957812 23.091016,4.557812 23.091016,6.957812 C23.091016,9.457812 21.891016,10.957812 20.091016,10.957812 Z M33.991016,13.657812 C37.891016,13.657812 40.291016,11.057812 40.291016,6.957812 C40.291016,2.857812 37.891016,0.257812 33.991016,0.257812 C30.091016,0.257812 27.591016,2.857812 27.591016,6.957812 C27.591016,11.057812 30.091016,13.657812 33.991016,13.657812 Z M33.991016,10.957812 C32.191016,10.957812 30.991016,9.357812 30.991016,6.957812 C30.991016,4.457812 32.191016,2.957812 33.991016,2.957812 C35.791016,2.957812 36.991016,4.557812 36.991016,6.957812 C37.091016,9.457812 35.891016,10.957812 33.991016,10.957812 Z M47.191016,13.457812 C51.091016,13.457812 53.391016,11.057812 53.391016,6.857812 C53.391016,2.757812 51.091016,0.457812 47.191016,0.457812 L41.991016,0.457812 L41.991016,13.457812 L47.191016,13.457812 Z M46.791016,10.757812 L45.291016,10.757812 L45.291016,3.157812 L46.791016,3.157812 C48.891016,3.157812 50.091016,4.457812 50.091016,6.957812 C49.991016,9.457812 48.891016,10.757812 46.791016,10.757812 Z M57.791016,13.457812 L57.791016,5.357812 L57.891016,5.357812 L61.091016,13.457812 L62.991016,13.457812 L66.191016,5.357812 L66.291016,5.357812 L66.291016,13.457812 L69.191016,13.457812 L69.191016,0.457812 L65.291016,0.457812 L62.091016,8.957812 L61.991016,8.957812 L58.791016,0.457812 L54.991016,0.457812 L54.991016,13.457812 L57.791016,13.457812 Z M76.991016,13.657812 C80.891016,13.657812 83.291016,11.057812 83.291016,6.957812 C83.291016,2.857812 80.891016,0.257812 76.991016,0.257812 C73.091016,0.257812 70.591016,2.857812 70.591016,6.957812 C70.591016,11.057812 73.091016,13.657812 76.991016,13.657812 Z M76.991016,10.957812 C75.191016,10.957812 73.991016,9.357812 73.991016,6.957812 C73.991016,4.457812 75.191016,2.957812 76.991016,2.957812 C78.791016,2.957812 79.991016,4.557812 79.991016,6.957812 C79.991016,9.457812 78.791016,10.957812 76.991016,10.957812 Z M88.191016,13.457812 L88.191016,8.957812 L89.891016,8.957812 L92.091016,13.457812 L95.791016,13.457812 L93.191016,8.457812 C94.591016,7.857812 95.391016,6.357812 95.391016,4.757812 C95.391016,2.057812 93.691016,0.457812 90.491016,0.457812 L84.991016,0.457812 L84.991016,13.457812 L88.191016,13.457812 Z M90.091016,6.657812 L88.191016,6.657812 L88.191016,2.957812 L90.091016,2.957812 C91.291016,2.957812 91.991016,3.657812 91.991016,4.857812 C91.991016,5.957812 91.291016,6.657812 90.091016,6.657812 Z M105.791016,13.457812 L105.791016,10.757812 L100.291016,10.757812 L100.291016,8.157812 L105.491016,8.157812 L105.491016,5.757812 L100.291016,5.757812 L100.291016,3.157812 L105.791016,3.157812 L105.791016,0.457812 L96.991016,0.457812 L96.991016,13.457812 L105.791016,13.457812 Z" id="GOODMORE" fill="#000000" fill-rule="nonzero"></path>
            <path d="M6.191016,35.557812 C8.991016,35.557812 10.991016,34.057812 11.391016,31.557812 L10.191016,31.557812 C9.791016,33.357812 8.291016,34.457812 6.191016,34.457812 C3.491016,34.457812 1.691016,32.257812 1.691016,28.857812 C1.691016,25.457812 3.491016,23.357812 6.191016,23.357812 C8.191016,23.357812 9.791016,24.657812 10.191016,26.557812 L11.391016,26.557812 C11.091016,24.057812 8.891016,22.257812 6.191016,22.257812 C2.691016,22.257812 0.491016,24.857812 0.491016,28.957812 C0.491016,32.957812 2.691016,35.557812 6.191016,35.557812 Z M13.491016,35.357812 L14.891016,31.357812 L20.291016,31.357812 L21.691016,35.357812 L22.991016,35.357812 L18.191016,22.357812 L16.991016,22.357812 L12.191016,35.357812 L13.491016,35.357812 Z M19.991016,30.357812 L15.291016,30.357812 L17.591016,23.957812 L17.691016,23.957812 L19.991016,30.357812 Z M25.691016,35.357812 L25.691016,30.457812 L28.891016,30.457812 C31.291016,30.457812 32.991016,28.857812 32.991016,26.457812 C32.991016,24.057812 31.291016,22.457812 28.891016,22.457812 L24.491016,22.457812 L24.491016,35.457812 L25.691016,35.457812 L25.691016,35.357812 Z M28.491016,29.357812 L25.591016,29.357812 L25.591016,23.457812 L28.491016,23.457812 C30.491016,23.457812 31.691016,24.557812 31.691016,26.357812 C31.691016,28.157812 30.491016,29.357812 28.491016,29.357812 Z M35.891016,35.357812 L35.891016,22.357812 L34.691016,22.357812 L34.691016,35.357812 L35.891016,35.357812 Z M42.891016,35.357812 L42.891016,23.557812 L47.091016,23.557812 L47.091016,22.457812 L37.391016,22.457812 L37.391016,23.557812 L41.591016,23.557812 L41.591016,35.457812 L42.891016,35.457812 L42.891016,35.357812 Z M48.991016,35.357812 L50.391016,31.357812 L55.791016,31.357812 L57.191016,35.357812 L58.491016,35.357812 L53.691016,22.357812 L52.491016,22.357812 L47.691016,35.357812 L48.991016,35.357812 Z M55.391016,30.357812 L50.691016,30.357812 L52.991016,23.957812 L53.091016,23.957812 L55.391016,30.357812 Z M67.591016,35.357812 L67.591016,34.257812 L61.191016,34.257812 L61.191016,22.457812 L59.991016,22.457812 L59.991016,35.457812 L67.591016,35.457812 L67.591016,35.357812 Z" id="CAPITAL" fill="#3A3A3A" fill-rule="nonzero"></path>
            <circle id="Oval" stroke="#000000" stroke-width="3" cx="112.391016" cy="2.857812" r="2"></circle>
            <circle id="Oval_1_" fill="#000000" fill-rule="nonzero" cx="112.391016" cy="11.057812" r="2.4"></circle>
        </g>
    </g>
</svg>