<svg width="29px" height="19px" viewBox="0 0 29 19" version="1.1" xmlns="http://www.w3.org/2000/svg" xmlns:xlink="http://www.w3.org/1999/xlink">
    <g id="Symbols" stroke="none" stroke-width="1" fill="none" fill-rule="evenodd">
        <g id="FooterSection" transform="translate(-551.000000, -57.000000)" fill="#FFFFFF" stroke="#FFFFFF" stroke-width="0.5">
            <g id="Group-3" transform="translate(170.000000, 15.000000)">
                <g id="Social-media-icons-footer" transform="translate(269.000000, 28.000000)">
                    <g id="G+-icon" transform="translate(113.000000, 15.000000)">
                        <path d="M8.75,0 C10.85175,0 12.87475,0.7344 14.44975,2.0672 L14.44975,2.0672 L12.15025,4.6308 C11.21225,3.8369 10.00475,3.4 8.75,3.4 C5.8555,3.4 3.5,5.6882 3.5,8.5 C3.5,11.3118 5.8555,13.6 8.75,13.6 C11.032,13.6 12.978,12.1788 13.70075,10.2 L13.70075,10.2 L8.75,10.2 L8.75,6.8 L17.5,6.8 L17.5,8.5 C17.5,13.1869 13.57475,17 8.75,17 C3.92525,17 0,13.1869 0,8.5 C0,3.8131 3.92525,0 8.75,0 Z M24.25,4 L24.25,7.4 L27.75,7.4 L27.75,9.1 L24.25,9.1 L24.25,12.5 L22.5,12.5 L22.5,9.1 L19,9.1 L19,7.4 L22.5,7.4 L22.5,4 L24.25,4 Z" id="Combined-Shape"></path>
                    </g>
                </g>
            </g>
        </g>
    </g>
</svg>
