<svg width="25px" height="20px" viewBox="0 0 25 20" version="1.1" xmlns="http://www.w3.org/2000/svg" xmlns:xlink="http://www.w3.org/1999/xlink">
    <defs>
        <polygon id="path-1" points="0.00258404901 0.00446795751 24.9791384 0.00446795751 24.9791384 19.1571423 0.00258404901 19.1571423"></polygon>
    </defs>
    <g id="Symbols" stroke="none" stroke-width="1" fill="none" fill-rule="evenodd">
        <g id="FooterSection" transform="translate(-611.000000, -56.000000)">
            <g id="Group-3" transform="translate(170.000000, 15.000000)">
                <g id="Social-media-icons-footer" transform="translate(269.000000, 28.000000)">
                    <g id="Google-developers-Copy-2" transform="translate(162.000000, 0.000000)">
                        <g id="Google-developers-grey`" transform="translate(0.000000, 10.800000)">
                            <g id="google-developers-vector-logo">
                                <g id="Group-5" transform="translate(10.120859, 2.442857)">
                                    <g id="Group-2">
                                        <mask id="mask-2" fill="white">
                                            <use xlink:href="#path-1"></use>
                                        </mask>
                                        <g id="Clip-2"></g>
                                        <path d="M7.01460543,-0.0646736011 C6.28578409,-0.0740789609 5.65957378,0.444700886 5.34940213,1.07865514 C4.74350067,2.0983529 4.13747613,3.11813316 3.53153365,4.13783092 C4.25809844,6.06749724 5.42948878,7.80666378 6.58569875,9.49509087 C6.63747608,9.02387409 6.70459789,8.50030906 6.99901479,8.11167795 C8.49436218,5.65580649 9.98868388,3.19840873 11.4847698,0.743527318 C11.8099167,0.346687136 11.4553117,-0.148373053 10.9827512,-0.0737076967 C9.66017271,-0.0788228924 8.33730701,-0.0663649158 7.01460543,-0.0646736011" id="Fill-1" fill="#FFFFFF" mask="url(#mask-2)"></path>
                                        <path d="M13.5758183,0.293142849 C13.714108,-0.0215571423 14.1133866,0.0427285703 14.3926362,0.0191142852 L18.3611756,0.0295714278 C18.9988758,0.0269571421 19.6114677,0.387514275 19.9367995,0.930342832 L24.6985558,8.64488549 C25.070099,9.20211404 25.075224,9.97165688 24.6985558,10.5276426 C23.7881092,11.9725711 22.9277931,13.4475425 21.9949945,14.8752425 C21.8947765,14.3351139 21.7366327,13.7962282 21.4244796,13.3373568 C20.5100707,11.9319854 19.6812801,10.4752712 18.7642872,9.07234262 L13.7667364,1.04305712 C13.6364573,0.818871407 13.4743944,0.560614271 13.5758183,0.293142849" id="Fill-3" fill="#FFFFFF" mask="url(#mask-2)"></path>
                                        <path d="M2.95765943,4.38904274 C4.0632448,6.34169983 5.08252293,8.34685692 6.3444002,10.2070712 C7.98014629,12.8712425 9.61563398,15.5370424 11.2521984,18.1994567 C11.7401099,18.8676424 11.093064,19.1596709 10.4582924,19.1571586 C9.14137485,19.1507566 7.82385439,19.1649423 6.50741063,19.1449709 C5.79373936,19.1057995 5.2093136,18.6167138 4.90090735,18.0006852 C3.33979721,15.4712139 1.76873848,12.9472711 0.213916191,10.4142426 C-0.128987113,9.82139974 -0.0477187717,9.0707569 0.372361463,8.54258549 C1.23414181,7.15804267 2.09596522,5.77358556 2.95765943,4.38904274" id="Fill-4" fill="#FFFFFF" mask="url(#mask-2)"></path>
                                        <path d="M18.5065854,9.57857117 C18.5470557,10.106893 18.464069,10.6582102 18.1405515,11.0912949 C16.6555877,13.5071027 15.1593297,15.9170904 13.6818134,18.3365611 C13.4172215,18.7348477 13.7181917,19.1341924 14.1568185,19.120558 L18.2071292,19.1402566 C18.9113709,19.1149415 19.5261604,18.6358662 19.820788,18.0138131 C20.3882734,17.0294112 20.9932011,16.0664987 21.5768092,15.0912135 C21.4851473,14.4514154 21.2095887,13.8620034 20.8474832,13.3321757 C20.0672522,12.0809877 19.2869392,10.8297998 18.5065854,9.57857117" id="Fill-6" fill="#FFFFFF" mask="url(#mask-2)"></path>
                                    </g>
                                </g>
                                <g id="Group-12"></g>
                            </g>
                        </g>
                    </g>
                </g>
            </g>
        </g>
    </g>
</svg>
