<?xml version="1.0" encoding="UTF-8"?>
<svg width="53px" height="60px" viewBox="0 0 53 60" version="1.1" xmlns="http://www.w3.org/2000/svg" xmlns:xlink="http://www.w3.org/1999/xlink">
    <!-- Generator: Sketch 59.1 (86144) - https://sketch.com -->
    <title>Group 17</title>
    <desc>Created with Sketch.</desc>
    <g id="Page-1" stroke="none" stroke-width="1" fill="none" fill-rule="evenodd">
        <g id="ACALA-Copy-4" transform="translate(-934.000000, -754.000000)" fill="#98A5AE">
            <g id="Group-17" transform="translate(934.000000, 754.000000)">
                <path d="M0,6.34531187e-13 L0,59.8016886 L6.87098666,59.8016886 C9.3300041,58.7070815 10.5595128,56.9689589 10.5595128,54.5873208 C10.5595128,52.2056827 10.5595128,35.5824526 10.5595128,4.7176305 C9.93142188,1.5725435 8.49860844,6.34531187e-13 6.2610725,6.34531187e-13 C4.02353656,6.34531187e-13 1.93651239,6.34531187e-13 0,6.34531187e-13 Z" id="Path-54"></path>
                <path d="M15.0502283,13.1675927 L15.0502283,4.18982929 C15.4090717,1.39660976 17.1404156,0 20.24426,0 C23.3481044,0 26.8706414,0 30.8118711,0 L15.0502283,13.1675927 Z" id="Path-55"></path>
                <polygon id="Path-56" points="38.4912211 4.9572749e-15 15.0502283 19.3300481 15.0502283 40.5023138 38.4912211 59.8016886 52.8236642 59.8016886 16.0178959 30.4809057 16.0178959 29.281527 52.8236642 4.9572749e-15"></polygon>
                <path d="M15.0502283,46.5637376 L15.0502283,56.0658065 C14.9567659,58.5563946 16.3893379,59.8016886 19.3479443,59.8016886 C22.3065507,59.8016886 26.1304701,59.8016886 30.8197025,59.8016886 L15.0502283,46.5637376 Z" id="Path-57"></path>
            </g>
        </g>
    </g>
</svg>