<?xml version="1.0" encoding="UTF-8"?>
<svg width="16px" height="16px" viewBox="0 0 16 16" version="1.1" xmlns="http://www.w3.org/2000/svg" xmlns:xlink="http://www.w3.org/1999/xlink">
    <!-- Generator: Sketch 59.1 (86144) - https://sketch.com -->
    <title>linkedin</title>
    <desc>Created with Sketch.</desc>
    <g id="Page-1" stroke="none" stroke-width="1" fill="none" fill-rule="evenodd">
        <g id="ACALA-Copy-4" transform="translate(-345.000000, -9223.000000)" fill="#4E4E4E" fill-rule="nonzero">
            <g id="linkedin" transform="translate(345.000000, 9223.000000)">
                <path d="M14.8571429,0 L1.13928571,0 C0.510714286,0 0,0.517857143 0,1.15357143 L0,14.8464286 C0,15.4821429 0.510714286,16 1.13928571,16 L14.8571429,16 C15.4857143,16 16,15.4821429 16,14.8464286 L16,1.15357143 C16,0.517857143 15.4857143,0 14.8571429,0 Z M3.99699248,14 L2,14 L2,6 L4,6 L4,14 L3.99699248,14 Z M3.5,5 C2.67012987,5 2,4.32597403 2,3.5 C2,2.67402597 2.67012987,2 3.5,2 C4.32597403,2 5,2.67402597 5,3.5 C5,4.32987013 4.32987013,5 3.5,5 Z M13,14 L10.7567568,14 L10.7567568,10.2026472 C10.7567568,9.2971246 10.7398649,8.13235965 9.59121622,8.13235965 C8.4222973,8.13235965 8.24324324,9.11821086 8.24324324,10.1369238 L8.24324324,14 L6,14 L6,6.19351894 L8.15202703,6.19351894 L8.15202703,7.25969877 L8.18243243,7.25969877 C8.48310811,6.64628024 9.21621622,6 10.3074324,6 C12.5777027,6 13,7.61752624 13,9.72067549 L13,14 L13,14 Z" id="Shape"></path>
            </g>
        </g>
    </g>
</svg>