<svg xmlns="http://www.w3.org/2000/svg" xmlns:xlink="http://www.w3.org/1999/xlink" viewBox="0 0 148.12 124.31"><defs><style>.cls-1{fill:url(#linear-gradient);}.cls-2{fill:url(#linear-gradient-2);}.cls-3{fill:url(#New_Gradient_Swatch);}</style><linearGradient id="linear-gradient" x1="40.28" y1="45.17" x2="70.47" y2="143.92" gradientUnits="userSpaceOnUse"><stop offset="0.39" stop-color="#ff9373"/><stop offset="0.51" stop-color="#fe8f73"/><stop offset="0.62" stop-color="#fb8373"/><stop offset="0.73" stop-color="#f77073"/><stop offset="0.83" stop-color="#f15472"/><stop offset="0.94" stop-color="#e93172"/><stop offset="1" stop-color="#e41a72"/></linearGradient><linearGradient id="linear-gradient-2" x1="138.69" y1="62.19" x2="11.99" y2="62.19" gradientUnits="userSpaceOnUse"><stop offset="0.09" stop-color="#ff9373"/><stop offset="0.15" stop-color="#fd8a73"/><stop offset="0.55" stop-color="#f04e72"/><stop offset="0.85" stop-color="#e72872"/><stop offset="1" stop-color="#e41a72"/></linearGradient><linearGradient id="New_Gradient_Swatch" x1="139.06" y1="62.15" x2="88.07" y2="62.15" gradientUnits="userSpaceOnUse"><stop offset="0" stop-color="#ff9373"/><stop offset="1" stop-color="#e41a72"/></linearGradient></defs><title>Asset 1</title><g id="Layer_2" data-name="Layer 2"><g id="Layer_1-2" data-name="Layer 1"><path class="cls-1" d="M99.25,92.37a73.3,73.3,0,0,0-20.92-2.93A71,71,0,0,0,45,97.66L51.65,86.4l5.9-10L73.48,49.24l15,25L63.78,33,37.19,78.33l-26.59,46H29.83A66.78,66.78,0,0,1,73.4,107.52c17.62-.07,33.55,6.33,45,16.79Z"/><path class="cls-2" d="M64.25.07,32.12,54.52,0,109l5.3,7.34,5.3,8,26.59-46L63.78,33,88.43,74.26a78.7,78.7,0,0,0-10.61-.68,76.74,76.74,0,0,0-20.27,2.78l-5.9,10L45,97.66a71,71,0,0,1,33.29-8.22,73.3,73.3,0,0,1,20.92,2.93l19.11,31.94h20.33Z"/><polygon class="cls-3" points="64.25 0.07 138.69 124.31 148.12 108.41 82.94 0 64.25 0.07"/></g></g></svg>