<?xml version="1.0" encoding="UTF-8"?>
<svg width="61px" height="60px" viewBox="0 0 61 60" version="1.1" xmlns="http://www.w3.org/2000/svg" xmlns:xlink="http://www.w3.org/1999/xlink">
    <!-- Generator: Sketch 59.1 (86144) - https://sketch.com -->
    <title>Group 58</title>
    <desc>Created with Sketch.</desc>
    <g id="Page-1" stroke="none" stroke-width="1" fill="none" fill-rule="evenodd">
        <g id="ACALA-Copy-4" transform="translate(-764.000000, -7486.000000)">
            <g id="Group-58" transform="translate(764.000000, 7486.000000)">
                <circle id="Oval-13" stroke="#0B34D5" cx="30" cy="30" r="29.5"></circle>
                <path d="M30.4004802,59.5 C33.1485757,59.5 37.3874779,56.1166404 40.8503099,50.9353729 C44.8592445,44.9369983 47.3009604,37.5113551 47.3009604,30 C47.3009604,15.1047308 37.9364418,0.5 30.4004802,0.5 C22.8645186,0.5 13.5,15.1047308 13.5,30 C13.5,37.5113551 15.9417158,44.9369983 19.9506505,50.9353729 C23.4134825,56.1166404 27.6523847,59.5 30.4004802,59.5 Z" id="Oval-13-Copy" stroke="#0B34D5"></path>
                <line x1="30.5" y1="0.5" x2="30.5" y2="58.6377674" id="Line" stroke="#0B34D5" stroke-linecap="square"></line>
                <line x1="0.5" y1="30.5" x2="59.576222" y2="30.5" id="Line" stroke="#0B34D5" stroke-linecap="square"></line>
                <circle id="Oval-11" fill="#FFB200" cx="6.5" cy="48.5" r="2.5"></circle>
                <circle id="Oval-11-Copy-2" fill="#FFB200" cx="30.5" cy="30.5" r="2.5"></circle>
                <circle id="Oval-11-Copy-3" fill="#FFB200" cx="55.5" cy="15.5" r="2.5"></circle>
                <circle id="Oval-11-Copy-4" fill="#FFB200" cx="15.5" cy="17.5" r="2.5"></circle>
                <circle id="Oval-11-Copy-5" fill="#FFB200" cx="9.5" cy="8.5" r="2.5"></circle>
            </g>
        </g>
    </g>
</svg>