<?xml version="1.0" encoding="UTF-8"?>
<svg width="60px" height="50px" viewBox="0 0 60 50" version="1.1" xmlns="http://www.w3.org/2000/svg" xmlns:xlink="http://www.w3.org/1999/xlink">
    <!-- Generator: Sketch 63.1 (92452) - https://sketch.com -->
    <title>Group 96</title>
    <desc>Created with Sketch.</desc>
    <defs>
        <linearGradient x1="15.8505917%" y1="33.7977701%" x2="81.3989375%" y2="69.5636214%" id="linearGradient-1">
            <stop stop-color="#00C8FA" offset="0%"></stop>
            <stop stop-color="#04ABFD" offset="100%"></stop>
        </linearGradient>
        <linearGradient x1="18.1849471%" y1="34.2638702%" x2="88.9422063%" y2="60.9098043%" id="linearGradient-2">
            <stop stop-color="#FFEF19" offset="0%"></stop>
            <stop stop-color="#FFD519" offset="100%"></stop>
        </linearGradient>
        <linearGradient x1="24.1929838%" y1="32.4973268%" x2="80.5510084%" y2="66.9822176%" id="linearGradient-3">
            <stop stop-color="#FC8E19" offset="0%"></stop>
            <stop stop-color="#FE860A" offset="100%"></stop>
        </linearGradient>
    </defs>
    <g id="Page-1" stroke="none" stroke-width="1" fill="none" fill-rule="evenodd">
        <g id="Group-96" transform="translate(-3.000000, 0.000000)">
            <path d="M25.6437393,0.471670128 L43.8613617,7.98449098 C44.9846754,8.44773776 45.7176224,9.54282641 45.7176224,10.7579113 L45.7176224,24.2420887 C45.7176224,25.4571736 44.9846754,26.5522622 43.8613617,27.015509 L25.6437393,34.5283299 C24.9111707,34.8304361 24.0888293,34.8304361 23.3562607,34.5283299 L5.13863833,27.015509 C4.01532458,26.5522622 3.28237761,25.4571736 3.28237761,24.2420887 L3.28237761,10.7579113 C3.28237761,9.54282641 4.01532458,8.44773776 5.13863833,7.98449098 L23.3562607,0.471670128 C24.0888293,0.169563935 24.9111707,0.169563935 25.6437393,0.471670128 Z" id="Polygon" fill="url(#linearGradient-1)"></path>
            <path d="M42.6437393,0.471670128 L60.8613617,7.98449098 C61.9846754,8.44773776 62.7176224,9.54282641 62.7176224,10.7579113 L62.7176224,24.2420887 C62.7176224,25.4571736 61.9846754,26.5522622 60.8613617,27.015509 L42.6437393,34.5283299 C41.9111707,34.8304361 41.0888293,34.8304361 40.3562607,34.5283299 L22.1386383,27.015509 C21.0153246,26.5522622 20.2823776,25.4571736 20.2823776,24.2420887 L20.2823776,10.7579113 C20.2823776,9.54282641 21.0153246,8.44773776 22.1386383,7.98449098 L40.3562607,0.471670128 C41.0888293,0.169563935 41.9111707,0.169563935 42.6437393,0.471670128 Z" id="Polygon-Copy" fill="url(#linearGradient-2)"></path>
            <path d="M35.6437393,15.4716701 L53.8613617,22.984491 C54.9846754,23.4477378 55.7176224,24.5428264 55.7176224,25.7579113 L55.7176224,39.2420887 C55.7176224,40.4571736 54.9846754,41.5522622 53.8613617,42.015509 L35.6437393,49.5283299 C34.9111707,49.8304361 34.0888293,49.8304361 33.3562607,49.5283299 L15.1386383,42.015509 C14.0153246,41.5522622 13.2823776,40.4571736 13.2823776,39.2420887 L13.2823776,25.7579113 C13.2823776,24.5428264 14.0153246,23.4477378 15.1386383,22.984491 L33.3562607,15.4716701 C34.0888293,15.1695639 34.9111707,15.1695639 35.6437393,15.4716701 Z" id="Polygon-Copy-2" fill="url(#linearGradient-3)"></path>
        </g>
    </g>
</svg>