<svg width="151" height="36" viewBox="0 0 151 36" fill="none" xmlns="http://www.w3.org/2000/svg">
<g clip-path="url(#clip0)">
<g filter="url(#filter0_d)">
<path d="M63.752 27L60.128 21.84C59.68 21.872 59.328 21.888 59.072 21.888H54.92V27H52.52V10.2L59.072 10.2C61.248 10.2 62.96 10.72 64.208 11.76C65.456 12.8 66.08 14.232 66.08 16.056C66.08 17.352 65.76 18.456 65.12 19.368C64.48 20.28 63.568 20.944 62.384 21.36L66.368 27H63.752ZM59 19.848C60.52 19.848 61.68 19.52 62.48 18.864C63.28 18.208 63.68 17.272 63.68 16.056C63.68 14.84 63.28 13.912 62.48 13.272C61.68 12.616 60.52 12.288 59 12.288L54.92 12.288V19.848H59ZM81.1175 14.28L74.9495 28.272C74.4055 29.568 73.7655 30.48 73.0295 31.008C72.3095 31.536 71.4375 31.8 70.4135 31.8C69.7895 31.8 69.1815 31.696 68.5895 31.488C68.0135 31.296 67.5335 31.008 67.1495 30.624L68.1335 28.896C68.7895 29.52 69.5495 29.832 70.4135 29.832C70.9735 29.832 71.4375 29.68 71.8055 29.376C72.1895 29.088 72.5335 28.584 72.8375 27.864L73.2455 26.976L67.6295 14.28H70.0295L74.4695 24.456L78.8615 14.28H81.1175ZM87.7413 14.16C89.5013 14.16 90.8453 14.592 91.7733 15.456C92.7173 16.32 93.1893 17.608 93.1893 19.32V27H91.0053V25.32C90.6213 25.912 90.0693 26.368 89.3493 26.688C88.6453 26.992 87.8053 27.144 86.8293 27.144C85.4053 27.144 84.2613 26.8 83.3973 26.112C82.5493 25.424 82.1253 24.52 82.1253 23.4C82.1253 22.28 82.5333 21.384 83.3493 20.712C84.1653 20.024 85.4613 19.68 87.2373 19.68H90.8853V19.224C90.8853 18.232 90.5973 17.472 90.0213 16.944C89.4453 16.416 88.5973 16.152 87.4773 16.152C86.7253 16.152 85.9893 16.28 85.2693 16.536C84.5493 16.776 83.9413 17.104 83.4453 17.52L82.4853 15.792C83.1413 15.264 83.9253 14.864 84.8373 14.592C85.7493 14.304 86.7173 14.16 87.7413 14.16ZM87.2133 25.368C88.0933 25.368 88.8533 25.176 89.4933 24.792C90.1333 24.392 90.5973 23.832 90.8853 23.112V21.336H87.3333C85.3813 21.336 84.4053 21.992 84.4053 23.304C84.4053 23.944 84.6533 24.448 85.1493 24.816C85.6453 25.184 86.3333 25.368 87.2133 25.368ZM104.437 14.16C105.669 14.16 106.773 14.432 107.749 14.976C108.725 15.52 109.485 16.28 110.029 17.256C110.589 18.232 110.869 19.36 110.869 20.64C110.869 21.92 110.589 23.056 110.029 24.048C109.485 25.024 108.725 25.784 107.749 26.328C106.773 26.872 105.669 27.144 104.437 27.144C103.493 27.144 102.629 26.96 101.845 26.592C101.061 26.224 100.413 25.688 99.9011 24.984V27H97.6931V9.192H99.9971V16.2C100.509 15.528 101.149 15.024 101.917 14.688C102.685 14.336 103.525 14.16 104.437 14.16ZM104.245 25.128C105.061 25.128 105.789 24.944 106.429 24.576C107.085 24.192 107.597 23.664 107.965 22.992C108.349 22.304 108.541 21.52 108.541 20.64C108.541 19.76 108.349 18.984 107.965 18.312C107.597 17.624 107.085 17.096 106.429 16.728C105.789 16.36 105.061 16.176 104.245 16.176C103.445 16.176 102.717 16.36 102.061 16.728C101.405 17.096 100.893 17.624 100.525 18.312C100.157 18.984 99.9731 19.76 99.9731 20.64C99.9731 21.52 100.157 22.304 100.525 22.992C100.893 23.664 101.405 24.192 102.061 24.576C102.717 24.944 103.445 25.128 104.245 25.128ZM114.292 14.28H116.596V27H114.292V14.28ZM115.444 11.832C114.996 11.832 114.62 11.688 114.316 11.4C114.028 11.112 113.884 10.76 113.884 10.344C113.884 9.928 114.028 9.576 114.316 9.288C114.62 8.984 114.996 8.832 115.444 8.832C115.892 8.832 116.26 8.976 116.548 9.264C116.852 9.536 117.004 9.88 117.004 10.296C117.004 10.728 116.852 11.096 116.548 11.4C116.26 11.688 115.892 11.832 115.444 11.832ZM128.028 14.16C129.644 14.16 130.924 14.632 131.868 15.576C132.828 16.504 133.308 17.872 133.308 19.68V27H131.004V19.944C131.004 18.712 130.708 17.784 130.116 17.16C129.524 16.536 128.676 16.224 127.572 16.224C126.324 16.224 125.34 16.592 124.62 17.328C123.9 18.048 123.54 19.088 123.54 20.448V27H121.236V14.28L123.444 14.28V16.2C123.908 15.544 124.532 15.04 125.316 14.688C126.116 14.336 127.02 14.16 128.028 14.16ZM142.444 14.16C144.204 14.16 145.548 14.592 146.476 15.456C147.42 16.32 147.892 17.608 147.892 19.32V27H145.708V25.32C145.324 25.912 144.772 26.368 144.052 26.688C143.348 26.992 142.508 27.144 141.532 27.144C140.108 27.144 138.964 26.8 138.1 26.112C137.252 25.424 136.828 24.52 136.828 23.4C136.828 22.28 137.236 21.384 138.052 20.712C138.868 20.024 140.164 19.68 141.94 19.68H145.588V19.224C145.588 18.232 145.3 17.472 144.724 16.944C144.148 16.416 143.3 16.152 142.18 16.152C141.428 16.152 140.692 16.28 139.972 16.536C139.252 16.776 138.644 17.104 138.148 17.52L137.188 15.792C137.844 15.264 138.628 14.864 139.54 14.592C140.452 14.304 141.42 14.16 142.444 14.16ZM141.916 25.368C142.796 25.368 143.556 25.176 144.196 24.792C144.836 24.392 145.3 23.832 145.588 23.112V21.336H142.036C140.084 21.336 139.108 21.992 139.108 23.304C139.108 23.944 139.356 24.448 139.852 24.816C140.348 25.184 141.036 25.368 141.916 25.368Z" fill="#250410"/>
</g>
<ellipse cx="18.0355" cy="19.0082" rx="16.852" ry="16.8519" fill="url(#paint0_linear)"/>
<mask id="mask0" mask-type="alpha" maskUnits="userSpaceOnUse" x="1" y="2" width="34" height="34">
<ellipse cx="18.0355" cy="19.0082" rx="16.852" ry="16.8519" fill="url(#paint1_linear)"/>
</mask>
<g mask="url(#mask0)">
<g filter="url(#filter1_f)">
<path d="M13.4827 18.2192C18.0022 23.7069 9.9285 32.7293 7.66177 34.0886C17.2487 40.2832 29.4071 28.7962 28.2503 15.5357C27.371 5.45529 6.94823 10.2848 13.4827 18.2192Z" fill="#FF1F00"/>
</g>
<g filter="url(#filter2_f)">
<path d="M15.8597 21.2779C10.9968 16.092 14.256 6.89661 16.4307 5.39436C9.09618 4.36714 -2.04801 11.6937 -0.0413542 24.8524C1.48406 34.8554 22.8906 28.7759 15.8597 21.2779Z" fill="#FF8A00"/>
</g>
</g>
<ellipse opacity="0.5" cx="18.0355" cy="19.0082" rx="16.852" ry="16.8519" fill="url(#paint2_radial)"/>
<mask id="mask1" mask-type="alpha" maskUnits="userSpaceOnUse" x="1" y="2" width="34" height="34">
<ellipse cx="18.0355" cy="19.0082" rx="16.852" ry="16.8519" fill="url(#paint3_linear)"/>
</mask>
<g mask="url(#mask1)">
<g filter="url(#filter3_f)">
<path d="M23.2635 23.442C18.3606 28.6389 9.75258 34.4325 2.80353 27.8765C-4.14551 21.3205 -2.92073 9.29284 1.98225 4.09594C6.88522 -1.10096 19.606 -3.29858 26.555 3.25744C33.5041 9.81345 28.1665 18.2451 23.2635 23.442Z" fill="white"/>
</g>
</g>
<path fill-rule="evenodd" clip-rule="evenodd" d="M14.741 27.6822C20.6649 31.4377 28.5116 29.6799 32.2671 23.756C36.0227 17.8321 34.2648 9.98536 28.3409 6.22985C22.417 2.47434 14.5703 4.23217 10.8148 10.1561C7.0593 16.08 8.81713 23.9267 14.741 27.6822ZM13.5095 29.6247C20.5063 34.0604 29.774 31.9842 34.2097 24.9875C38.6453 17.9907 36.5692 8.72296 29.5724 4.28732C22.5757 -0.148325 13.3079 1.92785 8.87228 8.92457C4.43664 15.9213 6.51281 25.1891 13.5095 29.6247Z" fill="#2E0513"/>
<path fill-rule="evenodd" clip-rule="evenodd" d="M31.4096 0.78125L31.325 4.20789L35.1524 4.59713L33.361 8.83204L31.2427 7.936L31.8205 6.57015L28.973 6.28057L28.9982 3.94074L25.448 4.93596L24.7978 2.72977L31.4096 0.78125Z" fill="#2E0513"/>
</g>
<defs>
<filter id="filter0_d" x="47.5195" y="5.83203" width="105.372" height="32.968" filterUnits="userSpaceOnUse" color-interpolation-filters="sRGB">
<feFlood flood-opacity="0" result="BackgroundImageFix"/>
<feColorMatrix in="SourceAlpha" type="matrix" values="0 0 0 0 0 0 0 0 0 0 0 0 0 0 0 0 0 0 127 0"/>
<feOffset dy="2"/>
<feGaussianBlur stdDeviation="2.5"/>
<feColorMatrix type="matrix" values="0 0 0 0 0.992157 0 0 0 0 0.105882 0 0 0 0 0.517647 0 0 0 0.1 0"/>
<feBlend mode="normal" in2="BackgroundImageFix" result="effect1_dropShadow"/>
<feBlend mode="normal" in="SourceGraphic" in2="effect1_dropShadow" result="shape"/>
</filter>
<filter id="filter1_f" x="-44.2969" y="-42.8086" width="125.317" height="132.119" filterUnits="userSpaceOnUse" color-interpolation-filters="sRGB">
<feFlood flood-opacity="0" result="BackgroundImageFix"/>
<feBlend mode="normal" in="SourceGraphic" in2="BackgroundImageFix" result="shape"/>
<feGaussianBlur stdDeviation="25" result="effect1_foregroundBlur"/>
</filter>
<filter id="filter2_f" x="-52.5273" y="-47.8438" width="124.578" height="130.405" filterUnits="userSpaceOnUse" color-interpolation-filters="sRGB">
<feFlood flood-opacity="0" result="BackgroundImageFix"/>
<feBlend mode="normal" in="SourceGraphic" in2="BackgroundImageFix" result="shape"/>
<feGaussianBlur stdDeviation="25" result="effect1_foregroundBlur"/>
</filter>
<filter id="filter3_f" x="-89.5" y="-88.6133" width="204.39" height="204.614" filterUnits="userSpaceOnUse" color-interpolation-filters="sRGB">
<feFlood flood-opacity="0" result="BackgroundImageFix"/>
<feBlend mode="normal" in="SourceGraphic" in2="BackgroundImageFix" result="shape"/>
<feGaussianBlur stdDeviation="40" result="effect1_foregroundBlur"/>
</filter>
<linearGradient id="paint0_linear" x1="32.1174" y1="10.8598" x2="5.07572" y2="27.2255" gradientUnits="userSpaceOnUse">
<stop stop-color="#F3A8FF"/>
<stop offset="0.463542" stop-color="#FFB3CE"/>
<stop offset="1" stop-color="#FF001F"/>
</linearGradient>
<linearGradient id="paint1_linear" x1="8.46958" y1="6.51793" x2="18.0355" y2="35.8601" gradientUnits="userSpaceOnUse">
<stop stop-color="#FC6434"/>
<stop offset="0.463542" stop-color="#F2236E"/>
<stop offset="1" stop-color="#E91C35"/>
</linearGradient>
<radialGradient id="paint2_radial" cx="0" cy="0" r="1" gradientUnits="userSpaceOnUse" gradientTransform="translate(5.14422 5.71728) rotate(47.7203) scale(35.8694)">
<stop stop-color="#FF0F00"/>
<stop offset="0.416667" stop-color="#FF00A8"/>
<stop offset="0.588542" stop-color="#FF008A"/>
<stop offset="1" stop-color="#D003AF"/>
</radialGradient>
<linearGradient id="paint3_linear" x1="8.46958" y1="6.51793" x2="18.0355" y2="35.8601" gradientUnits="userSpaceOnUse">
<stop stop-color="#FC6434"/>
<stop offset="0.463542" stop-color="#F2236E"/>
<stop offset="1" stop-color="#E91C35"/>
</linearGradient>
<clipPath id="clip0">
<rect x="0.5" width="150" height="36" fill="white"/>
</clipPath>
</defs>
</svg>
