<?xml version="1.0" encoding="UTF-8"?>
<svg width="100px" height="55px" viewBox="0 0 100 55" version="1.1" xmlns="http://www.w3.org/2000/svg" xmlns:xlink="http://www.w3.org/1999/xlink">
    <!-- Generator: Sketch 59.1 (86144) - https://sketch.com -->
    <title>Group 66</title>
    <desc>Created with Sketch.</desc>
    <defs>
        <polygon id="path-1" points="1.33333333e-05 0.02314 100 0.02314 100 39.4482733 1.33333333e-05 39.4482733"></polygon>
        <polygon id="path-3" points="0.0148 0.0229221447 97.0148333 0.0229221447 97.0148333 6.43333333 0.0148 6.43333333"></polygon>
    </defs>
    <g id="Page-1" stroke="none" stroke-width="1" fill="none" fill-rule="evenodd">
        <g id="ACALA-Copy-4" transform="translate(-1496.000000, -6607.000000)">
            <g id="Group-66" transform="translate(1466.000000, 6555.000000)">
                <rect id="Rectangle" x="0" y="0" width="160" height="160"></rect>
                <g id="Group-7" transform="translate(30.000000, 52.000000)">
                    <g id="Group-3" transform="translate(0.000000, 0.010333)">
                        <mask id="mask-2" fill="white">
                            <use xlink:href="#path-1"></use>
                        </mask>
                        <g id="Clip-2"></g>
                        <path d="M99.78308,0.673906667 L81.2364467,32.5068733 L100.000013,32.5068733 L100.000013,38.63484 L69.90238,38.63484 L88.4490467,6.74764 L70.9327467,6.74764 L70.9327467,0.673906667 L99.78308,0.673906667 Z M57.6464133,0.673906667 L64.7505133,0.673906667 L64.7505133,38.63484 L59.3275467,38.63484 L39.5336133,13.6348733 L39.5336133,38.63484 L32.4295133,38.63484 L32.4295133,0.673906667 L37.9067133,0.673906667 L57.6464133,25.7281067 L57.6464133,0.673906667 Z M13.6117133,0.02314 C20.06508,0.02314 24.3492467,4.14464 26.24728,7.88647333 L20.98698,10.9775733 C18.98048,7.99494 16.81128,6.31380667 13.6117133,6.31380667 C10.5748467,6.31380667 8.40564667,8.10340667 8.40564667,10.54374 C8.40564667,12.87564 9.81561333,14.2313733 13.0694133,15.42444 L15.6724467,16.4005733 C23.7527133,19.2747733 27.2776467,22.7997067 27.2776467,28.2227067 C27.2776467,35.5979733 20.28198,39.4482733 13.8286467,39.4482733 C7.04988,39.4482733 1.73534667,35.4353067 1.33333333e-05,30.12074 L5.47721333,27.2465733 C6.83298,30.28344 9.38178,32.99494 13.8286467,32.99494 C17.19088,32.99494 19.90238,31.36804 19.90238,28.3311733 C19.90238,25.24004 17.9501133,23.8843067 13.72018,22.31164 L11.2798133,21.4439733 C5.63991333,19.38324 1.35574667,16.5632733 1.35574667,10.2726067 C1.35574667,4.30730667 6.83298,0.02314 13.6117133,0.02314 L13.6117133,0.02314 Z" id="Fill-1" fill="#000000" mask="url(#mask-2)"></path>
                    </g>
                    <g id="Group-6" transform="translate(1.766667, 48.110333)">
                        <mask id="mask-4" fill="white">
                            <use xlink:href="#path-3"></use>
                        </mask>
                        <g id="Clip-5"></g>
                        <path d="M93.267,3.30212667 L94.9434,3.30212667 C95.4829333,3.30212667 96.0513333,2.91672667 96.0513333,2.21342667 C96.0513333,1.51009333 95.4829333,1.13436 94.9434,1.13436 L93.267,1.13436 L93.267,3.30212667 Z M95.9743,6.32736 C95.9357667,5.46026 95.3866,4.92072667 94.5965667,4.26556 L93.267,4.26556 L93.267,6.32736 L92.3035667,6.32736 L92.3035667,0.170893333 L92.9683333,0.170893333 L93.267,0.170893333 L94.9434,0.170893333 C95.2131667,0.170893333 95.4636333,0.219093333 95.7141667,0.305793333 C95.9550333,0.40216 96.1862333,0.54666 96.3693,0.720093333 C96.7836,1.10546 97.0148333,1.63536 97.0148333,2.21342667 C97.0148333,2.80112667 96.7836,3.33102667 96.3693,3.70679333 C96.2151333,3.86092667 96.0321,3.97652667 95.8394,4.07289333 C96.0032,4.23666 96.1573333,4.40046 96.3018667,4.59312667 C96.7065333,5.11342667 96.9088333,5.67222667 96.9377333,6.28882667 L96.9377333,6.32736 L95.9743,6.32736 Z M88.7195,5.35426 L91.3304333,5.35426 L91.3304333,6.31772667 L87.7560667,6.31772667 L87.7560667,0.16126 L91.1088667,0.16126 L91.1088667,1.12472667 L88.7195,1.12472667 L88.7195,2.55062667 L90.9354667,2.55062667 L90.9354667,3.51406 L88.7195,3.51406 L88.7195,5.35426 Z M85.7039,0.170893333 L86.677,0.170893333 C86.7251667,0.941693333 86.6481,1.71246 86.4554,2.51209333 C86.2242,3.42739333 85.8773667,4.21739333 85.5690667,4.91109333 C85.3378,5.45062667 85.1258667,5.92269333 85.0295,6.32736 L83.7288333,6.32736 C83.6421667,5.94196 83.4976333,5.48912667 83.3338333,4.96889333 C83.1700667,4.44866 82.9966333,3.88019333 82.8328667,3.26359333 C82.6690667,3.91872667 82.4763667,4.50642667 82.3029333,5.04596 C82.1488,5.53732667 82.0042667,5.96122667 81.9175667,6.32736 L80.6458,6.32736 C80.5398667,5.92269333 80.3375,5.45062667 80.0966667,4.91109333 C79.7883667,4.21739333 79.4415,3.42739333 79.2199,2.51209333 C79.0176,1.71246 78.9405,0.941693333 78.9886667,0.170893333 L79.9617667,0.170893333 C79.8365333,1.92439333 80.4627667,3.35029333 80.983,4.52569333 C81.0793667,4.74729333 81.1661,4.94962667 81.2527667,5.16156 C81.2913,5.02669333 81.3395,4.89179333 81.3876667,4.74729333 C81.7923333,3.49479333 82.2836667,1.96292667 82.3414667,0.170893333 L83.3145667,0.170893333 C83.3723667,1.86659333 83.8637333,3.41776 84.2587333,4.67986 C84.3069,4.85326 84.3647333,5.01706 84.4129,5.17119333 C84.4996333,4.95926 84.5863333,4.74729333 84.6923,4.52569333 C85.2029333,3.35029333 85.8388,1.92439333 85.7039,0.170893333 L85.7039,0.170893333 Z M76.8594333,4.90142667 C77.1581,4.53532667 77.3122667,3.95726 77.3122667,3.24432667 C77.3122667,2.52172667 77.1581,1.95329333 76.8594333,1.58719333 C76.5607667,1.22106 76.0983333,1.02839333 75.4817333,1.02839333 C74.8747333,1.02839333 74.4123,1.22106 74.1136333,1.58719333 C73.8149667,1.95329333 73.6511667,2.52172667 73.6511667,3.24432667 C73.6511667,3.95726 73.8149333,4.53532667 74.1136333,4.90142667 C74.4123,5.26756 74.8747333,5.45062667 75.4817333,5.45062667 C76.0983333,5.45062667 76.5607667,5.26756 76.8594333,4.90142667 L76.8594333,4.90142667 Z M77.6013,0.980226667 C78.0445,1.52936 78.2757333,2.29049333 78.2757333,3.24432667 C78.2757333,4.19812667 78.0445,4.95926 77.6013,5.50839333 C77.3604667,5.80706 77.0521667,6.02869333 76.6956667,6.18282667 C76.3392,6.33699333 75.9345333,6.41406 75.4817,6.41406 C75.0289,6.41406 74.6242667,6.33699333 74.2677667,6.18282667 C73.9113,6.02869333 73.603,5.80706 73.3621333,5.50839333 C72.9189667,4.95926 72.6877333,4.19812667 72.6877333,3.24432667 C72.6877333,2.29049333 72.9189667,1.52936 73.3621333,0.980226667 C73.603,0.68156 73.9113,0.450293333 74.2677667,0.29616 C74.6242667,0.141993333 75.0289,0.06496 75.4817,0.06496 C75.9345333,0.06496 76.3392,0.141993333 76.6956667,0.29616 C77.0521667,0.450293333 77.3604667,0.68156 77.6013,0.980226667 L77.6013,0.980226667 Z M69.9515333,3.30212667 C70.4814667,3.30212667 71.0595,2.92639333 71.0595,2.21342667 C71.0595,1.50046 70.4814667,1.12472667 69.9515333,1.12472667 L68.2751333,1.12472667 L68.2751333,3.30212667 L69.9515333,3.30212667 Z M71.3774333,0.720093333 C71.7917,1.09582667 72.0229667,1.63536 72.0229667,2.21342667 C72.0229667,2.80112667 71.7917,3.33102667 71.3774333,3.71642667 C71.1847333,3.88982667 70.9631667,4.03436 70.7126667,4.13066 C70.4718,4.21739333 70.2116667,4.26556 69.9515333,4.26556 L68.2751333,4.26556 L68.2751333,6.32736 L67.3117,6.32736 L67.3117,0.16126 L69.9515333,0.16126 C70.2116667,0.16126 70.4718,0.20946 70.7126667,0.305793333 C70.9631667,0.40216 71.1847333,0.537026667 71.3774333,0.720093333 L71.3774333,0.720093333 Z M60.5001,6.32736 L59.5270333,6.32736 L60.1629,0.16126 L61.7429333,0.16126 L62.928,4.91109333 L64.1130667,0.16126 L65.6931,0.16126 L66.3289667,6.32736 L65.3559,6.32736 L64.8356667,1.21142667 L63.4868,6.32736 L62.3692,6.32736 L61.0300333,1.21142667 L60.5001,6.32736 Z M56.1549667,5.35426 L58.7659,5.35426 L58.7659,6.31772667 L55.1915,6.31772667 L55.1915,0.16126 L58.5443,0.16126 L58.5443,1.12472667 L56.1549667,1.12472667 L56.1549667,2.55062667 L58.3708667,2.55062667 L58.3708667,3.51406 L56.1549667,3.51406 L56.1549667,5.35426 Z M49.854,4.90142667 C50.1526667,4.53532667 50.3068,3.95726 50.3068,3.24432667 C50.3068,2.52172667 50.1526667,1.95329333 49.854,1.58719333 C49.5553333,1.22106 49.0928667,1.02839333 48.4762667,1.02839333 C47.8693,1.02839333 47.4068333,1.22106 47.1081667,1.58719333 C46.8095,1.95329333 46.6457333,2.52172667 46.6457333,3.24432667 C46.6457333,3.95726 46.8095,4.53532667 47.1081667,4.90142667 C47.4068333,5.26756 47.8693,5.45062667 48.4762667,5.45062667 C49.0928667,5.45062667 49.5553333,5.26756 49.854,4.90142667 L49.854,4.90142667 Z M50.5958333,0.980226667 C51.0390333,1.52936 51.2703,2.29049333 51.2703,3.24432667 C51.2703,4.19812667 51.0390333,4.95926 50.5958333,5.50839333 C50.355,5.80706 50.0467,6.02869333 49.6902,6.18282667 C49.3337333,6.33699333 48.9290667,6.41406 48.4762667,6.41406 C48.0234667,6.41406 47.6188,6.33699333 47.2623333,6.18282667 C46.9058667,6.02869333 46.5975667,5.80706 46.3567,5.50839333 C45.9135,4.95926 45.6822667,4.19812667 45.6822667,3.24432667 C45.6822667,2.29049333 45.9135,1.52936 46.3567,0.980226667 C46.5975667,0.68156 46.9058667,0.450293333 47.2623333,0.29616 C47.6188,0.141993333 48.0234667,0.06496 48.4762667,0.06496 C48.9290667,0.06496 49.3337333,0.141993333 49.6902,0.29616 C50.0467,0.450293333 50.355,0.68156 50.5958333,0.980226667 L50.5958333,0.980226667 Z M45.0464,0.16126 L45.0464,1.12472667 L43.5434,1.12472667 L43.5434,6.32736 L42.5799667,6.32736 L42.5799667,1.12472667 L41.0866,1.12472667 L41.0866,0.16126 L45.0464,0.16126 Z M37.5796667,0.16126 L37.5796667,1.12472667 L36.0767,1.12472667 L36.0767,6.32736 L35.1132333,6.32736 L35.1132333,1.12472667 L33.6199,1.12472667 L33.6199,0.16126 L37.5796667,0.16126 Z M32.3481333,5.08452667 C32.4445,5.05559333 32.5312,5.02669333 32.5986333,5.00742667 L32.8780333,5.93232667 C32.8106,5.95159333 32.7335333,5.97089333 32.6468,5.99979333 C32.2614333,6.12506 31.6833667,6.31772667 31.0667667,6.39479333 C30.8740667,6.42369333 30.691,6.43336 30.5176,6.43336 C29.9491333,6.43336 29.4867,6.30809333 29.1302,6.04796 C28.5810333,5.65292667 28.3113,4.98816 28.3113,4.08252667 L28.3113,2.37722667 C28.3113,1.47156 28.5810333,0.806793333 29.1302,0.411793333 C29.6023,0.0745933333 30.2478333,-0.0506733333 31.0667667,0.06496 C31.6833667,0.141993333 32.2614333,0.334726667 32.6468,0.459926667 C32.7335333,0.48886 32.8106,0.508126667 32.8780333,0.527393333 L32.5986333,1.45229333 C32.5312,1.43302667 32.4445,1.40416 32.3481333,1.37522667 C32.0013,1.25962667 31.4714,1.08619333 30.9415,1.01876 C30.3827,0.941693333 29.9587667,0.999493333 29.6986667,1.19216 C29.4192667,1.39449333 29.2747333,1.79912667 29.2747333,2.37722667 L29.2747333,4.08252667 C29.2747333,4.66059333 29.4192667,5.06526 29.6986667,5.26756 C29.9587667,5.46026 30.3827,5.51806 30.9415,5.44099333 C31.4714,5.37356 32.0013,5.20009333 32.3481333,5.08452667 L32.3481333,5.08452667 Z M24.7754333,5.35426 L27.3864,5.35426 L27.3864,6.31772667 L23.812,6.31772667 L23.812,0.16126 L27.1648,0.16126 L27.1648,1.12472667 L24.7754333,1.12472667 L24.7754333,2.55062667 L26.9913667,2.55062667 L26.9913667,3.51406 L24.7754333,3.51406 L24.7754333,5.35426 Z M21.519,0.16126 L22.4824333,0.16126 L22.4824333,6.32736 L21.4033667,6.32736 L18.7635333,1.86659333 L18.7635333,6.32736 L17.8000667,6.32736 L17.8000667,0.16126 L18.3299667,0.16126 L18.3396,0.16126 L18.8791333,0.16126 L21.5189667,4.63169333 L21.5189667,0.16126 L21.519,0.16126 Z M15.5937667,0.16126 L16.5572333,0.16126 L16.5572333,6.32736 L15.4781333,6.32736 L12.8383,1.86659333 L12.8383,6.32736 L11.8748667,6.32736 L11.8748667,0.16126 L12.4047667,0.16126 L12.4144,0.16126 L12.9539,0.16126 L15.5937667,4.63169333 L15.5937667,0.16126 Z M9.50476667,4.90142667 C9.80343333,4.53532667 9.9576,3.95726 9.9576,3.24432667 C9.9576,2.52172667 9.80343333,1.95329333 9.50476667,1.58719333 C9.2061,1.22106 8.74363333,1.02839333 8.12703333,1.02839333 C7.52006667,1.02839333 7.0576,1.22106 6.75893333,1.58719333 C6.46026667,1.95329333 6.2965,2.52172667 6.2965,3.24432667 C6.2965,3.95726 6.46026667,4.53532667 6.75893333,4.90142667 C7.0576,5.26756 7.52006667,5.45062667 8.12703333,5.45062667 C8.74363333,5.45062667 9.2061,5.26756 9.50476667,4.90142667 L9.50476667,4.90142667 Z M10.2466333,0.980226667 C10.6898333,1.52936 10.9210667,2.29049333 10.9210667,3.24432667 C10.9210667,4.19812667 10.6898333,4.95926 10.2466333,5.50839333 C10.0057667,5.80706 9.69746667,6.02869333 9.341,6.18282667 C8.9845,6.33699333 8.57986667,6.41406 8.12703333,6.41406 C7.67423333,6.41406 7.26956667,6.33699333 6.9131,6.18282667 C6.5566,6.02869333 6.2483,5.80706 6.00746667,5.50839333 C5.56426667,4.95926 5.33303333,4.19812667 5.33303333,3.24432667 C5.33303333,2.29049333 5.56426667,1.52936 6.00746667,0.980226667 C6.2483,0.68156 6.5566,0.450293333 6.9131,0.29616 C7.26956667,0.141993333 7.67423333,0.06496 8.12703333,0.06496 C8.57986667,0.06496 8.9845,0.141993333 9.341,0.29616 C9.69746667,0.450293333 10.0057667,0.68156 10.2466333,0.980226667 L10.2466333,0.980226667 Z M4.05166667,5.08452667 C4.148,5.05559333 4.2347,5.02669333 4.30216667,5.00742667 L4.58156667,5.93232667 C4.51413333,5.95159333 4.43703333,5.97089333 4.35033333,5.99979333 C3.96493333,6.12506 3.38686667,6.31772667 2.77026667,6.39479333 C2.57756667,6.42369333 2.39453333,6.43336 2.2211,6.43336 C1.65266667,6.43336 1.1902,6.30809333 0.833733333,6.04796 C0.284566667,5.65292667 0.0148,4.98816 0.0148,4.08252667 L0.0148,2.37722667 C0.0148,1.47156 0.284566667,0.806793333 0.833733333,0.411793333 C1.30583333,0.0745933333 1.95133333,-0.0506733333 2.77026667,0.06496 C3.38686667,0.141993333 3.96493333,0.334726667 4.35033333,0.459926667 C4.43703333,0.48886 4.51413333,0.508126667 4.58156667,0.527393333 L4.30216667,1.45229333 C4.2347,1.43302667 4.148,1.40416 4.05166667,1.37522667 C3.7048,1.25962667 3.17493333,1.08619333 2.64503333,1.01876 C2.08623333,0.941693333 1.6623,0.999493333 1.40216667,1.19216 C1.12276667,1.39449333 0.978266667,1.79912667 0.978266667,2.37722667 L0.978266667,4.08252667 C0.978266667,4.66059333 1.12276667,5.06526 1.40216667,5.26756 C1.6623,5.46026 2.08623333,5.51806 2.64503333,5.44099333 C3.17493333,5.37356 3.7048,5.20009333 4.05166667,5.08452667 L4.05166667,5.08452667 Z" id="Fill-4" fill="#000000" mask="url(#mask-4)"></path>
                    </g>
                </g>
            </g>
        </g>
    </g>
</svg>