<?xml version="1.0" encoding="UTF-8"?>
<svg width="46px" height="36px" viewBox="0 0 46 36" version="1.1" xmlns="http://www.w3.org/2000/svg" xmlns:xlink="http://www.w3.org/1999/xlink">
    <!-- Generator: Sketch 59.1 (86144) - https://sketch.com -->
    <title>Group 40</title>
    <desc>Created with Sketch.</desc>
    <g id="Page-1" stroke="none" stroke-width="1" fill="none" fill-rule="evenodd">
        <g id="ACALA-Copy-4" transform="translate(-272.000000, -2354.000000)">
            <g id="Group-40" transform="translate(272.000000, 2350.000000)">
                <rect id="Rectangle-Copy-30" x="0" y="0" width="46" height="46"></rect>
                <g id="Group-35" transform="translate(0.000000, 6.000000)">
                    <g id="借呗-copy-7" transform="translate(23.000000, 23.661579) scale(-1, 1) translate(-23.000000, -23.661579) translate(0.000000, 13.161579)" fill="#0155FF" fill-rule="nonzero">
                        <path d="M44.144325,6.15676229 C38.9909916,4.83295274 34.6738487,2.26628602 32.7243249,1.40342886 C30.2005153,0.287238373 28.7490867,1.18819077 22.9090866,2.48057177 C17.0690865,3.7739051 14.5490865,3.91771464 14.5490865,3.91771464 C13.7100389,5.32819083 14.7948008,7.62533372 16.7300389,8.22819087 C18.665277,8.83104803 25.7843248,8.1577147 27.634801,7.86914325 C28.5281343,7.72914325 28.6443248,8.80247659 27.5862296,9.86533375 C26.4528962,11.0043814 23.5681343,11.9596195 21.4014675,12.6015243 C18.2662294,13.5300957 13.8214674,12.1796195 13.8214674,12.1796195 C13.8214674,12.1796195 7.65003879,8.77676233 3.64432443,7.86914325 C-0.36234231,6.96057183 0.0090862892,10.383429 0.0090862892,10.383429 C0.0090862892,10.383429 7.49194355,15.2443814 9.82337214,16.4891434 C12.1548008,17.7348577 15.7348008,21.0386673 18.9109913,20.7996197 C22.0871819,20.560572 33.4881344,17.600572 35.9957535,17.9262863 C37.1090868,18.0710482 38.8452773,18.5215244 40.4805154,18.9110482 C40.5262297,18.9215244 40.571944,18.9329529 40.6176583,18.9434291 C40.7509917,18.9862863 40.8871821,19.028191 41.0348012,19.028191 C41.5224202,19.028191 41.9319441,18.7615244 42.1814679,18.380572 C42.2376583,18.2739053 42.2938488,18.1529529 42.3500393,18.0348577 C43.5319441,15.5491434 44.7328965,10.6015243 45.3024203,8.06819087 C45.4928965,7.22057184 44.9814679,6.37200038 44.144325,6.15676229 Z" id="Path"></path>
                    </g>
                    <g id="Group-33" transform="translate(26.919211, 0.000000)" stroke="#5890FF" stroke-linecap="round" stroke-linejoin="round" stroke-width="4">
                        <line x1="7.50026512" y1="-2" x2="7.50026512" y2="12" id="Path-46-Copy" transform="translate(7.500265, 5.000000) rotate(-450.000000) translate(-7.500265, -5.000000) "></line>
                        <line x1="1" y1="-0.00129401127" x2="4.83842103" y2="4.67296002" id="Path-47-Copy" transform="translate(3.000000, 2.498706) rotate(-450.000000) translate(-3.000000, -2.498706) "></line>
                    </g>
                    <g id="Group-33" transform="translate(34.419211, 13.000000) rotate(-180.000000) translate(-34.419211, -13.000000) translate(26.919211, 10.000000)" stroke="#5890FF" stroke-linecap="round" stroke-linejoin="round" stroke-width="4">
                        <line x1="7.50026512" y1="-2" x2="7.50026512" y2="12" id="Path-46-Copy" transform="translate(7.500265, 5.000000) rotate(-450.000000) translate(-7.500265, -5.000000) "></line>
                        <line x1="1" y1="-0.00129401127" x2="4.83842103" y2="4.67296002" id="Path-47-Copy" transform="translate(3.000000, 2.498706) rotate(-450.000000) translate(-3.000000, -2.498706) "></line>
                    </g>
                </g>
            </g>
        </g>
    </g>
</svg>