<?xml version="1.0" encoding="UTF-8"?>
<svg width="20px" height="17px" viewBox="0 0 20 17" version="1.1" xmlns="http://www.w3.org/2000/svg" xmlns:xlink="http://www.w3.org/1999/xlink">
    <!-- Generator: Sketch 59.1 (86144) - https://sketch.com -->
    <title>twitter</title>
    <desc>Created with Sketch.</desc>
    <g id="Page-1" stroke="none" stroke-width="1" fill="none" fill-rule="evenodd">
        <g id="ACALA-Copy-4" transform="translate(-240.000000, -9224.000000)" fill="#4E4E4E" fill-rule="nonzero">
            <g id="twitter" transform="translate(240.000000, 9224.000000)">
                <path d="M19.8906628,1.92317393 C19.3273725,2.74709106 18.6463798,3.4491021 17.8476846,4.02920703 C17.856092,4.14690948 17.8602956,4.32346315 17.8602956,4.55886805 C17.8602956,5.65181935 17.7005566,6.74266882 17.3810785,7.83141647 C17.0616004,8.92016411 16.5760778,9.96477334 15.9245107,10.9652442 C15.2729436,11.965715 14.4973685,12.8505852 13.5977855,13.6198547 C12.6982025,14.3891243 11.6136585,15.0028585 10.3441536,15.4610573 C9.07464858,15.9192561 7.71686677,16.1483555 6.27080811,16.1483555 C3.992425,16.1483555 1.90741021,15.538825 0.015763727,14.3197639 C0.310019848,14.3533932 0.637905235,14.3702078 0.999419889,14.3702078 C2.89106638,14.3702078 4.57673359,13.7901029 6.0564215,12.6298931 C5.17365314,12.6130784 4.38336527,12.3419424 3.68555791,11.8164851 C2.98775054,11.2910277 2.50853343,10.6205441 2.24790658,9.8050343 C2.52534807,9.84707089 2.78177126,9.86808918 3.01717616,9.86808918 C3.37869083,9.86808918 3.73600182,9.82184894 4.08910915,9.72936845 C3.14748957,9.53600014 2.36771085,9.06729217 1.749773,8.32324455 C1.13183514,7.57919692 0.822866216,6.71534503 0.822866216,5.73168887 L0.822866216,5.68124495 C1.39456382,6.00072302 2.00829802,6.17307304 2.66406881,6.198295 C2.10918584,5.82837302 1.66780166,5.34495225 1.33991627,4.74803268 C1.01203088,4.15111312 0.848088181,3.50374965 0.848088166,2.80594229 C0.848088166,2.06609833 1.03304916,1.38090194 1.40297116,0.750353107 C2.4202566,2.00304345 3.65823413,3.00561608 5.11690376,3.75807102 C6.57557338,4.51052595 8.13723265,4.92879001 9.80188155,5.01286319 C9.73462301,4.69338512 9.70099374,4.38231436 9.70099375,4.07965093 C9.70099375,2.95307035 10.0982395,1.9925343 10.892731,1.19804277 C11.6872226,0.403551245 12.6477586,0.00630548199 13.7743392,0.00630548199 C14.9513637,0.00630548199 15.9434272,0.435078691 16.7505297,1.29262511 C17.6669273,1.11607144 18.5286774,0.788186043 19.3357799,0.308968927 C19.0247091,1.27581047 18.4277895,2.02406175 17.5450212,2.55372277 C18.3269017,2.46964959 19.1087823,2.25946664 19.8906628,1.92317393 Z" id="Path"></path>
            </g>
        </g>
    </g>
</svg>