<?xml version="1.0" encoding="UTF-8"?>
<svg width="20px" height="17px" viewBox="0 0 20 17" version="1.1" xmlns="http://www.w3.org/2000/svg" xmlns:xlink="http://www.w3.org/1999/xlink">
    <!-- Generator: Sketch 63.1 (92452) - https://sketch.com -->
    <title>Group 99</title>
    <desc>Created with Sketch.</desc>
    <g id="Page-1" stroke="none" stroke-width="1" fill="none" fill-rule="evenodd">
        <g id="ACALA-Copy-5" transform="translate(-360.000000, -9104.000000)">
            <g id="Group-99" transform="translate(360.000000, 9102.000000)">
                <g id="twitter">
                    <rect id="Rectangle" x="0" y="0" width="20" height="20"></rect>
                    <path d="M19.8748991,3.91686845 C19.3116088,4.74078558 18.6306161,5.44279662 17.8319209,6.02290155 C17.8403282,6.140604 17.8445319,6.31715767 17.8445319,6.55256257 C17.8445319,7.64551387 17.6847928,8.73636334 17.3653148,9.82511099 C17.0458367,10.9138586 16.5603141,11.9584679 15.908747,12.9589387 C15.2571798,13.9594095 14.4816048,14.8442797 13.5820218,15.6135492 C12.6824388,16.3828188 11.5978948,16.996553 10.3283898,17.4547518 C9.05888486,17.9129507 7.70110304,18.1420501 6.25504438,18.1420501 C3.97666127,18.1420501 1.89164648,17.5325195 0,16.3134584 C0.294256121,16.3470877 0.622141508,16.3639023 0.983656162,16.3639023 C2.87530266,16.3639023 4.56096986,15.7837974 6.04065777,14.6235876 C5.15788941,14.6067729 4.36760155,14.3356369 3.66979418,13.8101796 C2.97198682,13.2847222 2.49276971,12.6142386 2.23214285,11.7987288 C2.50958434,11.8407654 2.76600753,11.8617837 3.00141243,11.8617837 C3.3629271,11.8617837 3.7202381,11.8155435 4.07334543,11.723063 C3.13172584,11.5296947 2.35194712,11.0609867 1.73400927,10.3169391 C1.11607142,9.57289144 0.807102489,8.70903955 0.807102489,7.72538339 L0.807102489,7.67493946 C1.3788001,7.99441754 1.9925343,8.16676756 2.64830508,8.19198952 C2.09342211,7.82206754 1.65203793,7.33864677 1.32415254,6.7417272 C0.996267155,6.14480764 0.832324454,5.49744417 0.832324439,4.79963681 C0.832324439,4.05979285 1.01728544,3.37459646 1.38720743,2.74404763 C2.40449287,3.99673796 3.64247041,4.9993106 5.10114003,5.75176554 C6.55980965,6.50422047 8.12146892,6.92248453 9.78611783,7.00655771 C9.71885928,6.68707963 9.68523001,6.37600888 9.68523003,6.07334545 C9.68523003,4.94676487 10.0824758,3.98622881 10.8769673,3.19173729 C11.6714588,2.39724576 12.6319949,2 13.7585755,2 C14.9355999,2 15.9276634,2.42877321 16.7347659,3.28631963 C17.6511636,3.10976596 18.5129136,2.78188056 19.3200161,2.30266344 C19.0089454,3.26950499 18.4120258,4.01775627 17.5292575,4.54741728 C18.311138,4.4633441 19.0930186,4.25316116 19.8748991,3.91686845 Z" id="Path" fill="#4E4E4E" fill-rule="nonzero"></path>
                </g>
            </g>
        </g>
    </g>
</svg>