<svg width="20px" height="17px" viewBox="0 0 20 17" version="1.1" xmlns="http://www.w3.org/2000/svg" xmlns:xlink="http://www.w3.org/1999/xlink">
    <g id="Symbols" stroke="none" stroke-width="1" fill="none" fill-rule="evenodd">
        <g id="FooterSection" transform="translate(-439.000000, -58.000000)" fill="#FFFFFF">
            <g id="Group-3" transform="translate(170.000000, 15.000000)">
                <g id="Social-media-icons-footer" transform="translate(269.000000, 28.000000)">
                    <g id="twitter-icon" transform="translate(0.000000, 15.000000)">
                        <path d="M19.7142461,1.93849693 C19.2691474,2.13586814 18.8071005,2.29157698 18.3329895,2.40430472 C18.8554054,1.90787289 19.2481941,1.28694237 19.469791,0.593871959 C19.5330417,0.396012323 19.3181361,0.224918198 19.1394714,0.330856867 C18.4799068,0.722082658 17.7694485,1.01557526 17.0277802,1.20327573 C16.9847502,1.21416753 16.9403527,1.2196867 16.8958086,1.2196867 C16.7607112,1.2196867 16.6293746,1.16952579 16.5260734,1.07848398 C15.7369793,0.383020306 14.7220878,0 13.6684156,0 C13.212474,0 12.7521365,0.071065359 12.3001511,0.21124239 C10.8997483,0.645595818 9.81921298,1.80076201 9.48019947,3.22597656 C9.35301446,3.76055412 9.31858073,4.29562011 9.37777744,4.81627765 C9.3845665,4.87610931 9.35628689,4.91786937 9.33885023,4.93745508 C9.30822619,4.97179112 9.2648055,4.99147452 9.21972418,4.99147452 C9.21469343,4.99147452 9.20951616,4.99123031 9.20438773,4.99074189 C6.13895539,4.70594319 3.37468387,3.22910246 1.42075282,0.832319438 C1.32111479,0.710067484 1.13004422,0.72506203 1.05062685,0.861282845 C0.667997277,1.51772163 0.465790689,2.26852348 0.465790689,3.03251272 C0.465790689,4.20335725 0.936189639,5.30675073 1.75327032,6.11113245 C1.40966565,6.02966371 1.0770993,5.90135533 0.76817257,5.72977278 C0.618715526,5.64674109 0.434824752,5.75346123 0.432724539,5.92440883 C0.411331668,7.66377623 1.42969094,9.21148695 2.95522731,9.90841589 C2.92450558,9.90914852 2.89378386,9.90949041 2.86301329,9.90949041 C2.6211957,9.90949041 2.3763499,9.88614386 2.13536262,9.84008569 C1.9670525,9.80794754 1.82565442,9.9676126 1.87791554,10.1307943 C2.37307747,11.6766978 3.70412432,12.8161857 5.2969652,13.0749027 C3.975003,13.9623161 2.43554661,14.4304195 0.833279184,14.4304195 L0.3337703,14.4301264 C0.179868619,14.4301264 0.0497042329,14.5304482 0.0104839695,14.6795145 C-0.0281501878,14.8263341 0.0430128555,14.9812126 0.174251769,15.0575529 C1.97975147,16.1082946 4.03918161,16.66363 6.13079875,16.66363 C7.96164753,16.66363 9.67424942,16.3002931 11.221081,15.5837785 C12.6391157,14.9269001 13.8922105,13.9879094 14.9455407,12.792888 C15.92678,11.6796772 16.6940905,10.3945909 17.2260794,8.97338136 C17.7332077,7.61864606 18.0012535,6.17311317 18.0012535,4.79302878 L18.0012535,4.72728722 C18.0012046,4.50569029 18.1014288,4.29718306 18.2762838,4.15524771 C18.9398046,3.61651856 19.5176075,2.98235181 19.9935745,2.27037948 C20.1192454,2.08238597 19.9210439,1.84677133 19.7142461,1.93849693" id="Fill-1"></path>
                    </g>
                </g>
            </g>
        </g>
    </g>
</svg>
