<?xml version="1.0" encoding="UTF-8"?>
<svg width="53px" height="25px" viewBox="0 0 53 25" version="1.1" xmlns="http://www.w3.org/2000/svg" xmlns:xlink="http://www.w3.org/1999/xlink">
    <!-- Generator: Sketch 63.1 (92452) - https://sketch.com -->
    <title>Group 104</title>
    <desc>Created with Sketch.</desc>
    <g id="Page-1" stroke="none" stroke-width="1" fill="none" fill-rule="evenodd">
        <g id="Group-105" transform="translate(-99.000000, -298.000000)" fill="#000000" fill-rule="nonzero">
            <g id="Group-104" transform="translate(99.000000, 298.000000)">
                <path d="M12.1194795,7.86176482 L12.1194795,6.06990959 C12.1200208,5.419845 11.727324,4.83401862 11.125792,4.58755663 L1.7361678e-14,2.17020975e-14 L1.7361678e-14,0.993665173 L9.91018114,5.06606342 C10.118769,5.15657705 10.2165421,5.39738837 10.1300906,5.60769239 C10.090562,5.70838972 10.0108785,5.78807325 9.91018114,5.8276019 L1.7361678e-14,9.92443454 L1.7361678e-14,13.9214934 L5.97217203,11.4576925 L9.89796395,13.0764708 C9.99954373,13.1178219 10.0801509,13.1983968 10.1215427,13.29996 C10.1629345,13.4015233 10.1616116,13.5154885 10.1178735,13.6160636 C10.0783448,13.7167609 9.99866127,13.7964444 9.89796395,13.8359731 L1.7361678e-14,17.9205885 L1.7361678e-14,24.2328058 L11.1115386,19.6574664 C11.7130706,19.4110044 12.1057675,18.825178 12.1052038,18.1751134 L12.1052038,14.0680998 C12.1060394,13.4174623 11.7133905,12.8309029 11.1115386,12.5837106 L7.17556572,10.9547513 L11.1115386,9.33597299 C11.7215052,9.10213258 12.1229222,8.51500941 12.1194795,7.86176482 Z" id="Path"></path>
                <polygon id="Path" points="23.4916293 7.17963812 24.2104076 9.85316757 24.9027153 7.17963812 25.5583714 7.17963812 24.5178737 10.7959278 23.9599551 10.7959278 23.1597289 7.88416301 22.3880094 10.7959278 21.832127 10.7959278 20.7895931 7.17963812 21.4472854 7.17963812 22.1395931 9.85316757 22.8604076 7.17963812"></polygon>
                <path d="M27.4785072,10.3438916 C27.9029447,10.3832734 28.3034593,10.141313 28.4660638,9.74728521 L29.0972855,9.74728521 C28.9303172,10.3723983 28.3581452,10.8814481 27.4785072,10.8814481 C26.3361995,10.8814481 25.7049778,10.0669685 25.7049778,8.99389154 C25.7049778,7.85158383 26.4705886,7.11855214 27.4581452,7.11855214 C28.5597289,7.11855214 29.225566,8.04705894 29.1441181,9.18936665 L26.3728511,9.18936665 C26.3606776,9.49066144 26.4716368,9.78393761 26.6801992,10.0017183 C26.8887617,10.219499 27.1769678,10.3430308 27.4785072,10.3438916 Z M28.4966068,8.66402728 C28.4435737,8.11764124 27.9846056,7.70066299 27.4356521,7.70013617 C26.8866986,7.69961035 26.4269318,8.11570774 26.3728511,8.66199108 L28.4966068,8.66402728 Z" id="Shape"></path>
                <path d="M30.3882357,7.74977387 C30.6311084,7.33219037 31.0891715,7.08778491 31.5712674,7.11855214 C32.3979643,7.11855214 33.1167426,7.81085984 33.1167426,9.00000013 C33.1167426,10.1891404 32.3979643,10.8814481 31.5712674,10.8814481 C31.0891715,10.9122154 30.6311084,10.6678099 30.3882357,10.2502264 L30.3882357,10.7959278 L29.777376,10.7959278 L29.777376,5.92330326 L30.3882357,5.92330326 L30.3882357,7.74977387 Z M32.4509055,9.00000013 C32.4509055,8.1407241 32.0436656,7.64389152 31.4165163,7.64389152 C30.8728511,7.64389152 30.3617652,8.05113134 30.3617652,9.00000013 C30.3617652,9.94886893 30.8728511,10.358145 31.4165163,10.358145 C32.0416294,10.358145 32.4509055,9.86131236 32.4509055,9.00000013 Z" id="Shape"></path>
                <path d="M34.9737562,8.50316755 L34.8719462,8.50316755 L34.8719462,7.94524899 L34.9533942,7.94524899 C35.800453,7.94524899 36.250453,7.71108609 36.250453,7.13076934 C36.250453,6.60746616 35.820815,6.33868788 35.3015842,6.33868788 C35.0338799,6.31740341 34.769115,6.40651562 34.56876,6.58533539 C34.3684049,6.76415516 34.2498877,7.01712768 34.2407245,7.28552047 L33.6095028,7.28552047 C33.6828059,6.42624444 34.2936657,5.8276019 35.3158376,5.8276019 C36.1628965,5.8276019 36.8959282,6.16357475 36.8959282,7.06357477 C36.8964747,7.57018652 36.5786319,8.02250123 36.1018105,8.19366528 C36.8287336,8.42171958 37.0303173,8.90429878 37.0303173,9.41538476 C37.0303173,10.3968327 36.1954757,10.8733033 35.2690051,10.8733033 C34.1266973,10.8733033 33.601358,10.1626698 33.5341634,9.34819018 L34.1674213,9.34819018 C34.2346159,9.94683273 34.5889145,10.3662897 35.2751136,10.3662897 C35.9205888,10.3662897 36.3766974,10.0303169 36.3766974,9.42556575 C36.3766974,8.73122185 35.7515842,8.50316755 34.9737562,8.50316755 Z" id="Path"></path>
                <path d="M22.3819008,13.6608599 L22.7076926,13.6608599 L22.7076926,14.1719459 L22.404299,14.1719459 C22.0825795,14.1719459 22.0276021,14.2452491 22.0276021,14.6219459 L22.0276021,14.9171948 L22.7076926,14.9171948 L22.7076926,15.4079188 L22.0276021,15.4079188 L22.0276021,18.5334844 L21.4167424,18.5334844 L21.4167424,15.4079188 L20.911765,15.4079188 L20.911765,14.9171948 L21.4167424,14.9171948 L21.4167424,14.6545251 C21.4065614,13.9031676 21.5613125,13.6608599 22.3819008,13.6608599 Z" id="Path"></path>
                <path d="M24.6481904,18.6190048 C23.8092764,18.6190048 22.915385,18.048869 22.915385,16.7375568 C22.915385,15.4262446 23.8092764,14.8561088 24.6481904,14.8561088 C25.4871045,14.8561088 26.3830321,15.4282808 26.3830321,16.7375568 C26.3830321,18.0468328 25.4891407,18.6190048 24.6481904,18.6190048 Z M25.7314483,16.7375568 C25.7314483,15.7764708 25.2000004,15.3936654 24.6481904,15.3936654 C24.0963804,15.3936654 23.5669687,15.7500002 23.5669687,16.7375568 C23.5669687,17.7251134 24.0984166,18.0814482 24.6481904,18.0814482 C25.1979642,18.0814482 25.7314483,17.6660636 25.7314483,16.7375568 L25.7314483,16.7375568 Z" id="Shape"></path>
                <path d="M28.1504529,18.6190048 C27.3115389,18.6190048 26.995928,18.0549776 26.995928,17.2282808 L26.995928,14.9171948 L27.6067877,14.9171948 L27.6067877,17.0470591 C27.6067877,17.6049776 27.7004529,18.089593 28.36629,18.089593 C28.9445706,18.089593 29.286652,17.6823532 29.286652,16.9065613 L29.286652,14.9171948 L29.8975118,14.9171948 L29.8975118,18.5334844 L29.286652,18.5334844 L29.286652,18.0142537 C29.0534209,18.415172 28.6132766,18.6494423 28.1504529,18.6190048 Z" id="Path"></path>
                <path d="M32.5303172,14.8561088 C33.4058829,14.8561088 33.7214937,15.420136 33.7214937,16.2468328 L33.7214937,18.5334844 L33.110634,18.5334844 L33.110634,16.4280545 C33.110634,15.8721722 33.0169688,15.3875568 32.3185525,15.3875568 C31.7260186,15.3875568 31.3635751,15.7947966 31.3635751,16.5705885 L31.3635751,18.5334844 L30.7527154,18.5334844 L30.7527154,14.9171948 L31.3635751,14.9171948 L31.3635751,15.46086 C31.6079807,15.0560798 32.0586713,14.8224758 32.5303172,14.8561088 L32.5303172,14.8561088 Z" id="Path"></path>
                <path d="M37.6656114,13.6608599 L37.6656114,18.5334844 L37.0547517,18.5334844 L37.0547517,17.9877831 C36.8118791,18.4053666 36.3538159,18.649772 35.87172,18.6190048 C35.0450231,18.6190048 34.3262449,17.9348419 34.3262449,16.7375568 C34.3262449,15.5402717 35.0450231,14.8561088 35.87172,14.8561088 C36.3538159,14.8253416 36.8118791,15.069747 37.0547517,15.4873305 L37.0547517,13.6547513 L37.6656114,13.6608599 Z M34.992082,16.7375568 C34.992082,17.598869 35.3993218,18.0957016 36.0264711,18.0957016 C36.5701363,18.0957016 37.0812223,17.6884618 37.0812223,16.7375568 C37.0812223,15.7866518 36.5701363,15.3814482 36.0264711,15.3814482 C35.401358,15.3814482 34.992082,15.8782808 34.992082,16.7375568 Z" id="Shape"></path>
                <path d="M40.7484169,16.3079188 L40.7484169,16.2203622 C40.7484169,15.5626699 40.3778287,15.3407242 39.9339372,15.3407242 C39.4309961,15.3407242 39.1357472,15.6156111 39.1072404,16.0595025 L38.4760187,16.0595025 C38.5371046,15.2796382 39.2212676,14.837783 39.9278286,14.837783 C40.92353,14.837783 41.37353,15.3142536 41.3653852,16.3282808 L41.3653852,17.1631224 C41.3502316,17.6198738 41.3816151,18.0769813 41.4590504,18.5273758 L40.8481907,18.5273758 C40.8215848,18.3623023 40.8059397,18.1956481 40.8013581,18.0285071 C40.5794124,18.3990953 40.2027155,18.6128962 39.563349,18.6128962 C38.8852947,18.6128962 38.3212675,18.2382356 38.3212675,17.5723985 C38.3029417,16.7253396 39.2640277,16.4769233 40.7484169,16.3079188 Z M38.9809961,17.5642537 C38.9809961,17.9083713 39.2436657,18.1364256 39.6794124,18.1364256 C40.2515843,18.1364256 40.7952495,17.8737559 40.7952495,17.0205885 L40.7952495,16.7925342 C39.6875572,16.9065613 38.9809961,17.0674211 38.9809961,17.5642537 Z" id="Shape"></path>
                <path d="M42.9230776,14.00905 L42.9230776,14.9171948 L43.6092767,14.9171948 L43.6092767,15.4079188 L42.9230776,15.4079188 L42.9230776,17.5520365 C42.9230776,17.9287333 42.9515844,18.0223985 43.2997744,18.0223985 L43.6092767,18.0223985 L43.6092767,18.5334844 L43.1653853,18.5334844 C42.4730776,18.5334844 42.3122178,18.3787333 42.3122178,17.6253396 L42.3122178,15.4079188 L41.7420821,15.4079188 L41.7420821,14.9171948 L42.3122178,14.9171948 L42.3122178,14.00905 L42.9230776,14.00905 Z" id="Path"></path>
                <path d="M44.8045256,14.4000002 L44.1936658,14.4000002 L44.1936658,13.6608599 L44.8045256,13.6608599 L44.8045256,14.4000002 Z M44.8045256,18.5334844 L44.1936658,18.5334844 L44.1936658,14.9171948 L44.8045256,14.9171948 L44.8045256,18.5334844 Z" id="Shape"></path>
                <path d="M47.1889147,18.6190048 C46.3479645,18.6190048 45.4540731,18.048869 45.4540731,16.7375568 C45.4540731,15.4262446 46.3479645,14.8561088 47.1889147,14.8561088 C48.029865,14.8561088 48.9217202,15.4282808 48.9217202,16.7375568 C48.9217202,18.0468328 48.0278288,18.6190048 47.1889147,18.6190048 Z M48.2701365,16.7375568 C48.2701365,15.7764708 47.7386885,15.3936654 47.1889147,15.3936654 C46.639141,15.3936654 46.1056568,15.7500002 46.1056568,16.7375568 C46.1056568,17.7251134 46.6371048,18.0814482 47.1889147,18.0814482 C47.7407247,18.0814482 48.2701365,17.6660636 48.2701365,16.7375568 Z" id="Shape"></path>
                <path d="M51.3529419,14.8561088 C52.2264714,14.8561088 52.5420822,15.420136 52.5420822,16.2468328 L52.5420822,18.5334844 L51.9312225,18.5334844 L51.9312225,16.4280545 C51.9312225,15.8721722 51.8375573,15.3875568 51.1371048,15.3875568 C50.5466071,15.3875568 50.1841636,15.7947966 50.1841636,16.5705885 L50.1841636,18.5334844 L49.5733039,18.5334844 L49.5733039,14.9171948 L50.1841636,14.9171948 L50.1841636,15.46086 C50.4289107,15.0553945 50.8805878,14.8216871 51.3529419,14.8561088 Z" id="Path"></path>
            </g>
        </g>
    </g>
</svg>