<?xml version="1.0" encoding="UTF-8"?>
<svg width="20px" height="16px" viewBox="0 0 20 16" version="1.1" xmlns="http://www.w3.org/2000/svg" xmlns:xlink="http://www.w3.org/1999/xlink">
    <!-- Generator: Sketch 59.1 (86144) - https://sketch.com -->
    <title>wechat</title>
    <desc>Created with Sketch.</desc>
    <g id="Page-1" stroke="none" stroke-width="1" fill="none" fill-rule="evenodd">
        <g id="ACALA-Copy-4" transform="translate(-377.000000, -9223.000000)" fill="#4E4E4E" fill-rule="nonzero">
            <g id="wechat" transform="translate(377.000000, 9223.000000)">
                <path d="M19.6250658,8.35294643 C19.1275204,7.20725824 18.1888018,6.29734935 17.0989404,5.73695839 C15.1757518,4.74734945 12.7844293,4.75316092 10.8661426,5.76186465 C9.53363597,6.45674945 8.42089896,7.7020627 8.10554177,9.21719383 C7.84573973,10.3329945 8.07858118,11.5343067 8.66109328,12.505651 C9.52791703,13.968479 11.0948991,14.9024639 12.7223383,15.2021693 C13.9012512,15.4454205 15.1210136,15.3009642 16.2664301,14.9655598 C16.9543336,15.2362079 17.5670743,15.6745581 18.2337361,16 C18.0617076,15.4144282 17.8775723,14.8325997 17.6814525,14.254901 C18.4298131,13.7152653 19.1079127,13.0419659 19.5147725,12.1968133 C20.1226112,11.0220678 20.1593757,9.56422111 19.6250658,8.35294643 L19.6250658,8.35294643 Z M11.7294965,1.01511394 C9.58045614,-0.132688244 6.90427641,-0.305185588 4.59244301,0.487811655 C3.07304133,1.00693871 1.69834457,1.97161576 0.849064499,3.28374005 C0.0781662459,4.4691483 -0.210382253,5.94722974 0.160854773,7.30350027 C0.53381449,8.80774246 1.6346055,10.0691803 2.97054202,10.9112289 C2.71214037,11.6061234 2.46665881,12.3002004 2.23409733,13 C3.07390268,12.5830633 3.91370803,12.1473236 4.75437471,11.7238467 C5.76214113,12.0304178 6.83450796,12.180842 7.9068748,12.1473236 C7.62798231,11.3720851 7.55258835,10.5439685 7.6872334,9.73481345 C7.88103463,8.61398953 8.52703875,7.58881578 9.40474302,6.82933697 C10.8914138,5.50903744 12.9973873,4.95230433 15,5.08719563 C14.6244563,3.3417842 13.332448,1.86697283 11.7062403,1.01593147 L11.7294965,1.01593147 L11.7294965,1.01511394 Z M12.9286915,9.35890748 C12.7165679,10.0217173 11.7554149,10.2209668 11.2895551,9.71674344 C10.7759928,9.25013349 10.975937,8.27523384 11.6498606,8.06683505 C12.3948303,7.75169543 13.2555038,8.6127382 12.9286915,9.35890748 Z M16.9105383,9.45012087 C16.6557998,10.047459 15.7751611,10.1871097 15.3423048,9.72534492 C15.1343347,9.53064939 15.0736353,9.23707707 15,8.98122061 C15.1034875,8.51435907 15.4179302,8.0301686 15.925417,8.00774292 C16.6269427,7.90784679 17.2548332,8.7956992 16.8956122,9.4511402 L16.9105383,9.4511402 L16.9105383,9.45012087 Z M10.9992267,4.03864805 C11.0057533,4.82019437 9.95904178,5.30815253 9.37164324,4.77790466 C8.76221726,4.34280863 8.93517349,3.28393943 9.65065755,3.06517153 C10.2910851,2.8089935 11.0481766,3.3449342 10.997595,4.02888889 L10.9992267,4.03864805 Z M5.96464121,4.23898916 C5.82441261,4.91703498 4.91211148,5.24428343 4.37810142,4.78954612 C3.75930199,4.35510958 3.93295717,3.27835659 4.65937389,3.05910824 C5.37111553,2.78626585 6.17987578,3.50572525 5.96464121,4.23898916 Z" id="Shape"></path>
            </g>
        </g>
    </g>
</svg>