<?xml version="1.0" encoding="UTF-8"?>
<svg width="1693px" height="970px" viewBox="0 0 1693 970" version="1.1" xmlns="http://www.w3.org/2000/svg" xmlns:xlink="http://www.w3.org/1999/xlink">
    <!-- Generator: Sketch 59.1 (86144) - https://sketch.com -->
    <title>Group 31</title>
    <desc>Created with Sketch.</desc>
    <defs>
        <linearGradient x1="-1.39424445%" y1="33.5865621%" x2="106.592093%" y2="68.6092652%" id="linearGradient-1">
            <stop stop-color="#0AD2FF" offset="0%"></stop>
            <stop stop-color="#4C00FF" offset="25.9611776%"></stop>
            <stop stop-color="#4C00FF" offset="100%"></stop>
        </linearGradient>
        <rect id="path-2" x="0" y="0" width="1693" height="970" rx="2"></rect>
        <linearGradient x1="44.151364%" y1="46.9269932%" x2="79.8245523%" y2="63.1784424%" id="linearGradient-4">
            <stop stop-color="#3E38FF" offset="0%"></stop>
            <stop stop-color="#4000B2" offset="99.926098%"></stop>
        </linearGradient>
        <linearGradient x1="44.151364%" y1="46.8163111%" x2="79.850935%" y2="63.6655494%" id="linearGradient-5">
            <stop stop-color="#3E38FF" offset="0%"></stop>
            <stop stop-color="#4000B2" offset="99.926098%"></stop>
        </linearGradient>
        <linearGradient x1="44.151364%" y1="46.6630852%" x2="79.850935%" y2="64.3232505%" id="linearGradient-6">
            <stop stop-color="#3E38FF" offset="0%"></stop>
            <stop stop-color="#4000B2" offset="99.926098%"></stop>
        </linearGradient>
        <linearGradient x1="44.151364%" y1="46.3849373%" x2="79.850935%" y2="65.5171624%" id="linearGradient-7">
            <stop stop-color="#3E38FF" offset="0%"></stop>
            <stop stop-color="#4000B2" offset="99.926098%"></stop>
        </linearGradient>
        <linearGradient x1="44.151364%" y1="45.9253714%" x2="79.850935%" y2="67.4897862%" id="linearGradient-8">
            <stop stop-color="#3E38FF" offset="0%"></stop>
            <stop stop-color="#4000B2" offset="99.926098%"></stop>
        </linearGradient>
        <linearGradient x1="44.151364%" y1="45.4135873%" x2="79.850935%" y2="69.6865494%" id="linearGradient-9">
            <stop stop-color="#3E38FF" offset="0%"></stop>
            <stop stop-color="#4000B2" offset="99.926098%"></stop>
        </linearGradient>
        <linearGradient x1="44.151364%" y1="44.8432938%" x2="79.850935%" y2="72.1344564%" id="linearGradient-10">
            <stop stop-color="#3E38FF" offset="0%"></stop>
            <stop stop-color="#4000B2" offset="99.926098%"></stop>
        </linearGradient>
        <linearGradient x1="44.151364%" y1="44.2073692%" x2="79.850935%" y2="74.8640759%" id="linearGradient-11">
            <stop stop-color="#3E38FF" offset="0%"></stop>
            <stop stop-color="#4000B2" offset="99.926098%"></stop>
        </linearGradient>
        <linearGradient x1="44.151364%" y1="43.4976101%" x2="79.850935%" y2="77.9106195%" id="linearGradient-12">
            <stop stop-color="#3E38FF" offset="0%"></stop>
            <stop stop-color="#4000B2" offset="99.926098%"></stop>
        </linearGradient>
        <linearGradient x1="44.151364%" y1="42.7046379%" x2="79.850935%" y2="81.3143444%" id="linearGradient-13">
            <stop stop-color="#3E38FF" offset="0%"></stop>
            <stop stop-color="#4000B2" offset="99.926098%"></stop>
        </linearGradient>
        <linearGradient x1="44.151364%" y1="41.8176167%" x2="79.850935%" y2="85.1217617%" id="linearGradient-14">
            <stop stop-color="#3E38FF" offset="0%"></stop>
            <stop stop-color="#4000B2" offset="99.926098%"></stop>
        </linearGradient>
        <linearGradient x1="44.151364%" y1="40.8247351%" x2="79.850935%" y2="89.3835702%" id="linearGradient-15">
            <stop stop-color="#3E38FF" offset="0%"></stop>
            <stop stop-color="#4000B2" offset="99.926098%"></stop>
        </linearGradient>
        <linearGradient x1="44.151364%" y1="39.7120588%" x2="79.850935%" y2="94.1595809%" id="linearGradient-16">
            <stop stop-color="#3E38FF" offset="0%"></stop>
            <stop stop-color="#4000B2" offset="99.926098%"></stop>
        </linearGradient>
        <linearGradient x1="44.151364%" y1="38.463355%" x2="79.850935%" y2="99.5194711%" id="linearGradient-17">
            <stop stop-color="#3E38FF" offset="0%"></stop>
            <stop stop-color="#4000B2" offset="99.926098%"></stop>
        </linearGradient>
        <linearGradient x1="44.151364%" y1="37.0598224%" x2="79.850935%" y2="105.543943%" id="linearGradient-18">
            <stop stop-color="#3E38FF" offset="0%"></stop>
            <stop stop-color="#4000B2" offset="99.926098%"></stop>
        </linearGradient>
        <linearGradient x1="44.151364%" y1="35.479696%" x2="79.850935%" y2="112.32642%" id="linearGradient-19">
            <stop stop-color="#3E38FF" offset="0%"></stop>
            <stop stop-color="#4000B2" offset="99.926098%"></stop>
        </linearGradient>
        <linearGradient x1="44.151364%" y1="33.6975892%" x2="79.850935%" y2="119.975869%" id="linearGradient-20">
            <stop stop-color="#3E38FF" offset="0%"></stop>
            <stop stop-color="#4000B2" offset="99.926098%"></stop>
        </linearGradient>
        <linearGradient x1="44.6657589%" y1="33.2949694%" x2="77.2255074%" y2="121.70406%" id="linearGradient-21">
            <stop stop-color="#3E38FF" offset="0%"></stop>
            <stop stop-color="#4000B2" offset="99.926098%"></stop>
        </linearGradient>
        <linearGradient x1="45.2566537%" y1="33.2949694%" x2="74.2096314%" y2="121.70406%" id="linearGradient-22">
            <stop stop-color="#3E38FF" offset="0%"></stop>
            <stop stop-color="#4000B2" offset="99.926098%"></stop>
        </linearGradient>
        <linearGradient x1="45.7856444%" y1="33.2949694%" x2="71.5097084%" y2="121.70406%" id="linearGradient-23">
            <stop stop-color="#3E38FF" offset="0%"></stop>
            <stop stop-color="#4000B2" offset="99.926098%"></stop>
        </linearGradient>
        <linearGradient x1="46.2596415%" y1="33.2949694%" x2="69.0904678%" y2="121.70406%" id="linearGradient-24">
            <stop stop-color="#3E38FF" offset="0%"></stop>
            <stop stop-color="#4000B2" offset="99.926098%"></stop>
        </linearGradient>
        <linearGradient x1="46.684194%" y1="33.2949694%" x2="66.9235887%" y2="121.70406%" id="linearGradient-25">
            <stop stop-color="#3E38FF" offset="0%"></stop>
            <stop stop-color="#4000B2" offset="99.926098%"></stop>
        </linearGradient>
        <linearGradient x1="51.4314275%" y1="8.84974352%" x2="83.3443969%" y2="20.417908%" id="linearGradient-26">
            <stop stop-color="#00FAFF" offset="0%"></stop>
            <stop stop-color="#5200E6" offset="100%"></stop>
        </linearGradient>
        <linearGradient x1="51.4961713%" y1="8.84974352%" x2="84.8525728%" y2="20.417908%" id="linearGradient-27">
            <stop stop-color="#00FAFF" offset="0%"></stop>
            <stop stop-color="#5200E6" offset="100%"></stop>
        </linearGradient>
        <linearGradient x1="51.5675861%" y1="8.84974352%" x2="86.5161448%" y2="20.417908%" id="linearGradient-28">
            <stop stop-color="#00FAFF" offset="0%"></stop>
            <stop stop-color="#5200E6" offset="100%"></stop>
        </linearGradient>
        <linearGradient x1="51.6463994%" y1="8.84974352%" x2="88.3520616%" y2="20.417908%" id="linearGradient-29">
            <stop stop-color="#00FAFF" offset="0%"></stop>
            <stop stop-color="#5200E6" offset="100%"></stop>
        </linearGradient>
        <linearGradient x1="51.7334343%" y1="8.84974352%" x2="90.3794962%" y2="20.417908%" id="linearGradient-30">
            <stop stop-color="#00FAFF" offset="0%"></stop>
            <stop stop-color="#5200E6" offset="100%"></stop>
        </linearGradient>
        <linearGradient x1="51.8296036%" y1="8.84974352%" x2="92.6197129%" y2="20.417908%" id="linearGradient-31">
            <stop stop-color="#00FAFF" offset="0%"></stop>
            <stop stop-color="#5200E6" offset="100%"></stop>
        </linearGradient>
        <linearGradient x1="51.9359755%" y1="8.84974352%" x2="95.0975942%" y2="20.417908%" id="linearGradient-32">
            <stop stop-color="#00FAFF" offset="0%"></stop>
            <stop stop-color="#5200E6" offset="100%"></stop>
        </linearGradient>
        <linearGradient x1="52.0537381%" y1="8.84974352%" x2="97.8408147%" y2="20.417908%" id="linearGradient-33">
            <stop stop-color="#00FAFF" offset="0%"></stop>
            <stop stop-color="#5200E6" offset="100%"></stop>
        </linearGradient>
        <linearGradient x1="52.1464288%" y1="9.56238699%" x2="100%" y2="20.9302131%" id="linearGradient-34">
            <stop stop-color="#00FAFF" offset="0%"></stop>
            <stop stop-color="#5200E6" offset="100%"></stop>
        </linearGradient>
        <linearGradient x1="52.1464288%" y1="12.0768751%" x2="100%" y2="22.737828%" id="linearGradient-35">
            <stop stop-color="#00FAFF" offset="0%"></stop>
            <stop stop-color="#5200E6" offset="100%"></stop>
        </linearGradient>
        <linearGradient x1="52.1464288%" y1="14.5275016%" x2="100%" y2="24.4995342%" id="linearGradient-36">
            <stop stop-color="#00FAFF" offset="0%"></stop>
            <stop stop-color="#5200E6" offset="100%"></stop>
        </linearGradient>
        <linearGradient x1="52.1464288%" y1="16.9069544%" x2="100%" y2="26.2100749%" id="linearGradient-37">
            <stop stop-color="#00FAFF" offset="0%"></stop>
            <stop stop-color="#5200E6" offset="100%"></stop>
        </linearGradient>
        <linearGradient x1="52.1464288%" y1="19.1939607%" x2="100%" y2="27.8541577%" id="linearGradient-38">
            <stop stop-color="#00FAFF" offset="0%"></stop>
            <stop stop-color="#5200E6" offset="100%"></stop>
        </linearGradient>
        <linearGradient x1="52.1464288%" y1="21.3641204%" x2="100%" y2="29.4142419%" id="linearGradient-39">
            <stop stop-color="#00FAFF" offset="0%"></stop>
            <stop stop-color="#5200E6" offset="100%"></stop>
        </linearGradient>
        <linearGradient x1="52.1464288%" y1="23.4209498%" x2="100%" y2="30.8928552%" id="linearGradient-40">
            <stop stop-color="#00FAFF" offset="0%"></stop>
            <stop stop-color="#5200E6" offset="100%"></stop>
        </linearGradient>
        <linearGradient x1="52.1464288%" y1="25.3684501%" x2="100%" y2="32.292874%" id="linearGradient-41">
            <stop stop-color="#00FAFF" offset="0%"></stop>
            <stop stop-color="#5200E6" offset="100%"></stop>
        </linearGradient>
        <linearGradient x1="52.1464288%" y1="27.2104755%" x2="100%" y2="33.6170691%" id="linearGradient-42">
            <stop stop-color="#00FAFF" offset="0%"></stop>
            <stop stop-color="#5200E6" offset="100%"></stop>
        </linearGradient>
        <linearGradient x1="52.1464288%" y1="28.9507177%" x2="100%" y2="34.8680942%" id="linearGradient-43">
            <stop stop-color="#00FAFF" offset="0%"></stop>
            <stop stop-color="#5200E6" offset="100%"></stop>
        </linearGradient>
        <linearGradient x1="52.1464288%" y1="30.5928854%" x2="100%" y2="36.0486155%" id="linearGradient-44">
            <stop stop-color="#00FAFF" offset="0%"></stop>
            <stop stop-color="#5200E6" offset="100%"></stop>
        </linearGradient>
        <linearGradient x1="52.1464288%" y1="32.1404815%" x2="100%" y2="37.1611513%" id="linearGradient-45">
            <stop stop-color="#00FAFF" offset="0%"></stop>
            <stop stop-color="#5200E6" offset="100%"></stop>
        </linearGradient>
        <linearGradient x1="52.1464288%" y1="33.5925208%" x2="100%" y2="38.2049931%" id="linearGradient-46">
            <stop stop-color="#00FAFF" offset="0%"></stop>
            <stop stop-color="#5200E6" offset="100%"></stop>
        </linearGradient>
        <linearGradient x1="52.1464288%" y1="34.9659681%" x2="100%" y2="39.1923368%" id="linearGradient-47">
            <stop stop-color="#00FAFF" offset="0%"></stop>
            <stop stop-color="#5200E6" offset="100%"></stop>
        </linearGradient>
    </defs>
    <g id="Page-1" stroke="none" stroke-width="1" fill="none" fill-rule="evenodd">
        <g id="ACALA-Copy-4" transform="translate(-200.000000, -2850.000000)">
            <g id="Group-31" transform="translate(200.000000, 2850.000000)">
                <mask id="mask-3" fill="white">
                    <use xlink:href="#path-2"></use>
                </mask>
                <use id="Rectangle" fill="url(#linearGradient-1)" xlink:href="#path-2"></use>
                <g id="xian" mask="url(#mask-3)">
                    <g transform="translate(-863.000000, -482.000000)">
                        <path d="M0.021,848.5058 C706.04,877.8828 1754.081,1048.1788 1812.005,758.9088 C1823.936,699.3278 1351.54,302.9668 1248.288,147.7268" id="Stroke-1" stroke="url(#linearGradient-4)" stroke-width="1"></path>
                        <path d="M22.9717,870.4043 C728.3587,883.1353 1743.1797,1021.0123 1795.1677,733.0023 C1805.8367,673.5253 1353.8037,292.2053 1248.5137,140.7343" id="Stroke-3" stroke="url(#linearGradient-5)" stroke-width="1.048"></path>
                        <path d="M45.9229,892.3027 C750.6779,888.3877 1732.2789,993.8457 1778.3299,707.0947 C1787.7359,647.7217 1356.0679,281.4437 1248.7389,133.7417" id="Stroke-5" stroke="url(#linearGradient-6)" stroke-width="1.095"></path>
                        <path d="M68.8736,914.2011 C772.9966,893.6391 1721.3776,966.6801 1761.4926,681.1871 C1769.6366,621.9191 1358.3326,270.6811 1248.9656,126.7491" id="Stroke-7" stroke="url(#linearGradient-7)" stroke-width="1.143"></path>
                        <path d="M91.8248,936.0996 C795.3158,898.8916 1710.4768,939.5136 1744.6548,655.2806 C1751.5368,596.1166 1360.5968,259.9196 1249.1908,119.7576" id="Stroke-9" stroke="url(#linearGradient-8)" stroke-width="1.19"></path>
                        <path d="M114.7754,957.998 C817.6344,904.144 1700.2284,912.411 1727.8174,629.373 C1733.5724,570.327 1362.8614,249.158 1249.4174,112.765" id="Stroke-11" stroke="url(#linearGradient-9)" stroke-width="1.238"></path>
                        <path d="M137.7266,979.8965 C839.9536,909.3965 1689.4116,885.2385 1710.9796,603.4665 C1715.4916,544.5225 1365.1256,238.3965 1249.6436,105.7725" id="Stroke-13" stroke="url(#linearGradient-10)" stroke-width="1.286"></path>
                        <path d="M160.6773,1001.7949 C862.2733,914.6489 1678.5803,858.0609 1694.1423,577.5599 C1697.4063,518.7169 1367.3903,227.6349 1249.8683,98.7799" id="Stroke-15" stroke="url(#linearGradient-11)" stroke-width="1.333"></path>
                        <path d="M183.6284,1023.6933 C884.5914,919.9003 1667.7324,830.8793 1677.31417,551.6523 C1679.3174,492.9113 1369.6544,216.8733 1250.0944,91.7873" id="Stroke-17" stroke="url(#linearGradient-12)" stroke-width="1.381"></path>
                        <path d="M206.5791,1045.5908 C906.9111,925.1528 1656.8671,803.6948 1660.46859,525.7458 C1661.2261,467.1048 1371.9191,206.1118 1250.3211,84.7948" id="Stroke-19" stroke="url(#linearGradient-13)" stroke-width="1.429"></path>
                        <path d="M229.5303,1067.4892 C929.2303,930.4052 1645.9843,776.5102 1643.63509,499.8382 C1643.1313,441.2972 1374.1833,195.3492 1250.5463,77.8022" id="Stroke-21" stroke="url(#linearGradient-14)" stroke-width="1.476"></path>
                        <path d="M252.481,1089.3877 C951.549,935.6577 1635.084,749.3237 1626.792,473.9307 C1625.032,415.4907 1376.448,184.5877 1250.773,70.8097" id="Stroke-23" stroke="url(#linearGradient-15)" stroke-width="1.524"></path>
                        <path d="M275.4322,1111.2861 C973.8682,940.9091 1624.1662,722.1381 1609.9542,448.0241 C1606.9292,389.6831 1378.7122,173.8261 1250.9982,63.8181" id="Stroke-25" stroke="url(#linearGradient-16)" stroke-width="1.571"></path>
                        <path d="M298.3828,1133.1845 C996.1868,946.1625 1613.2318,694.9545 1593.1168,422.1175 C1588.8228,363.8775 1380.9768,163.0645 1251.2238,56.8255" id="Stroke-27" stroke="url(#linearGradient-17)" stroke-width="1.619"></path>
                        <path d="M321.334,1155.083 C1018.506,951.414 1602.28,667.774 1576.279,396.21 C1570.712,338.071 1383.241,152.303 1251.45,49.833" id="Stroke-29" stroke="url(#linearGradient-18)" stroke-width="1.667"></path>
                        <path d="M344.2847,1176.9814 C1040.8257,956.6664 1591.3097,640.5974 1559.4417,370.3034 C1552.5987,312.2664 1385.5057,141.5414 1251.6767,42.8404" id="Stroke-31" stroke="url(#linearGradient-19)" stroke-width="1.714"></path>
                        <path d="M367.2359,1198.8799 C1063.1439,961.9179 1580.3239,613.4269 1542.6039,344.3959 C1534.4809,286.4629 1387.7699,130.7789 1251.9019,35.8479" id="Stroke-33" stroke="url(#linearGradient-20)" stroke-width="1.762"></path>
                        <path d="M390.1866,1220.7783 C1085.4626,967.1713 1569.3216,586.2613 1525.7666,318.4893 C1516.3596,260.6603 1390.0346,120.0173 1252.1276,28.8563" id="Stroke-35" stroke="url(#linearGradient-21)" stroke-width="1.81"></path>
                        <path d="M413.1377,1242.6767 C1107.7827,972.4227 1557.8647,559.1857 1508.9297,292.5817 C1498.1397,234.8767 1392.2987,109.2557 1252.3537,21.8637" id="Stroke-37" stroke="url(#linearGradient-22)" stroke-width="1.857"></path>
                        <path d="M436.0884,1264.5752 C1130.1014,977.6752 1546.9644,532.0192 1492.0914,266.6752 C1480.0404,209.0742 1394.5634,98.4942 1252.5794,14.8712" id="Stroke-39" stroke="url(#linearGradient-23)" stroke-width="1.905"></path>
                        <path d="M459.0396,1286.4736 C1152.4206,982.9266 1536.0626,504.8526 1475.2536,240.7676 C1461.9406,183.2716 1396.8276,87.7326 1252.8056,7.8786" id="Stroke-41" stroke="url(#linearGradient-24)" stroke-width="1.952"></path>
                        <path d="M481.9903,1308.372 C1174.7393,988.18 1525.1623,477.686 1458.4163,214.861 C1443.8413,157.469 1399.0913,76.971 1253.0323,0.886" id="Stroke-43" stroke="url(#linearGradient-25)" stroke-width="2"></path>
                        <g id="Group-89" stroke="none" stroke-width="1" fill-rule="evenodd" transform="translate(226.000000, 184.030000)">
                            <path d="M1249.73,1597.8264 C1403.55,723.2694 1216.533,68.9864 955.135,5.7974 C704.93,-54.6856 279.011,400.3904 0.861,1117.9154" id="Stroke-45" stroke="url(#linearGradient-26)" stroke-width="2"></path>
                            <path d="M1275.0571,1581.0745 C1415.0721,719.9225 1214.8231,81.5355 948.7061,23.8145 C697.1821,-30.7415 284.0571,414.8015 17.1041,1101.8725" id="Stroke-47" stroke="url(#linearGradient-27)" stroke-width="1.952"></path>
                            <path d="M1300.3843,1564.3215 C1426.5943,716.5735 1213.1603,94.0225 942.2773,41.8315 C689.4803,-6.8755 289.1043,429.2115 33.3483,1085.8295" id="Stroke-49" stroke="url(#linearGradient-28)" stroke-width="1.905"></path>
                            <path d="M1325.7114,1547.5696 C1438.1164,713.2256 1211.5404,106.4416 935.8484,59.8486 C681.8184,16.9156 294.1504,443.6216 49.5914,1069.7866" id="Stroke-51" stroke="url(#linearGradient-29)" stroke-width="1.857"></path>
                            <path d="M1351.0396,1530.8167 C1449.6396,709.8777 1209.9566,118.7917 929.4196,77.8657 C674.1886,40.6307 299.1976,458.0327 65.8346,1053.7437" id="Stroke-53" stroke="url(#linearGradient-30)" stroke-width="1.81"></path>
                            <path d="M1376.3667,1514.0647 C1461.1617,706.5297 1208.4027,131.0707 922.9917,95.8817 C666.5887,64.2707 304.2447,472.4427 82.0787,1037.7007" id="Stroke-55" stroke="url(#linearGradient-31)" stroke-width="1.762"></path>
                            <path d="M1401.6938,1497.3118 C1472.6828,703.1808 1206.8738,143.2768 916.5628,113.8988 C659.0098,87.8368 309.2908,486.8538 98.3218,1021.6578" id="Stroke-57" stroke="url(#linearGradient-32)" stroke-width="1.714"></path>
                            <path d="M1427.021,1480.5598 C1484.206,699.8328 1205.364,155.4088 910.134,131.9158 C651.449,111.3318 314.338,501.2638 114.565,1005.6148" id="Stroke-59" stroke="url(#linearGradient-33)" stroke-width="1.667"></path>
                            <path d="M1452.3491,1463.8069 C1495.7281,696.4849 1203.8681,167.4659 903.7041,149.9329 C643.9001,134.7579 319.3841,515.6739 130.8091,989.5729" id="Stroke-61" stroke="url(#linearGradient-34)" stroke-width="1.619"></path>
                            <path d="M1477.6763,1447.054 C1507.2503,693.137 1202.3813,179.449 897.2763,167.95 C636.3593,158.117 324.4313,530.085 147.0523,973.53" id="Stroke-63" stroke="url(#linearGradient-35)" stroke-width="1.571"></path>
                            <path d="M1503.0034,1430.302 C1518.7734,689.788 1200.8994,191.358 890.8474,185.967 C628.8214,181.412 329.4774,544.495 163.2964,957.487" id="Stroke-65" stroke="url(#linearGradient-36)" stroke-width="1.524"></path>
                            <path d="M1528.33931,1413.5491 C1530.2956,686.4411 1199.4156,203.1931 884.4186,203.98313 C621.2846,204.6451 334.5246,558.9051 179.5396,941.4441" id="Stroke-67" stroke="url(#linearGradient-37)" stroke-width="1.476"></path>
                            <path d="M1553.6587,1396.7971 C1541.8167,683.0921 1197.9287,214.9561 877.9897,222.0011 C613.7427,227.8201 339.5707,573.3171 195.7837,925.4011" id="Stroke-69" stroke="url(#linearGradient-38)" stroke-width="1.429"></path>
                            <path d="M1578.9858,1380.0442 C1553.3398,679.7442 1196.4328,226.6482 871.5608,240.0182 C606.1948,250.9402 344.6178,587.7272 212.0268,909.3572" id="Stroke-71" stroke="url(#linearGradient-39)" stroke-width="1.381"></path>
                            <path d="M1604.313,1363.2922 C1564.862,676.3962 1194.925,238.2702 865.132,258.0352 C598.636,274.0072 349.664,602.1372 228.27,893.3142" id="Stroke-73" stroke="url(#linearGradient-40)" stroke-width="1.333"></path>
                            <path d="M1629.6401,1346.5393 C1576.3841,673.0483 1193.4021,249.8243 858.7031,276.0523 C591.0651,297.0253 354.7111,616.5483 244.5141,877.2713" id="Stroke-75" stroke="url(#linearGradient-41)" stroke-width="1.286"></path>
                            <path d="M1654.9683,1329.7874 C1587.9063,669.6994 1191.8603,261.3134 852.2753,294.0694 C583.4793,319.9964 359.7583,630.9584 260.7573,861.2294" id="Stroke-77" stroke="url(#linearGradient-42)" stroke-width="1.238"></path>
                            <path d="M1680.2954,1313.0344 C1599.4284,666.3514 1190.2974,272.7384 845.8464,312.0864 C575.8764,342.9254 364.8044,645.3684 277.0014,845.1864" id="Stroke-79" stroke="url(#linearGradient-43)" stroke-width="1.19"></path>
                            <path d="M1705.6226,1296.2815 C1610.9506,663.0035 1188.7116,284.1025 839.4176,330.1035 C568.2546,365.8135 369.8516,659.7795 293.2446,829.1435" id="Stroke-81" stroke="url(#linearGradient-44)" stroke-width="1.143"></path>
                            <path d="M1730.9497,1279.5295 C1622.4727,659.6555 1187.0997,295.4085 832.9887,348.1205 C560.6137,388.6645 374.8977,674.1895 309.4877,813.1005" id="Stroke-83" stroke="url(#linearGradient-45)" stroke-width="1.095"></path>
                            <path d="M1756.2778,1262.7766 C1633.9958,656.3066 1185.3518,306.0046 826.5598,366.1366 C552.8678,410.9816 379.9448,688.5996 325.7318,797.0576" id="Stroke-85" stroke="url(#linearGradient-46)" stroke-width="1.048"></path>
                            <path d="M1781.605,1246.0247 C1645.518,652.9597 1183.793,317.8547 820.131,384.1537 C545.265,434.2647 384.991,703.0107 341.975,781.0147" id="Stroke-87" stroke="url(#linearGradient-47)"></path>
                        </g>
                    </g>
                </g>
            </g>
        </g>
    </g>
</svg>