<?xml version="1.0" encoding="UTF-8"?>
<svg width="63px" height="57px" viewBox="0 0 63 57" version="1.1" xmlns="http://www.w3.org/2000/svg" xmlns:xlink="http://www.w3.org/1999/xlink">
    <!-- Generator: Sketch 59.1 (86144) - https://sketch.com -->
    <title>Group 23</title>
    <desc>Created with Sketch.</desc>
    <g id="Page-1" stroke="none" stroke-width="1" fill="none" fill-rule="evenodd">
        <g id="ACALA-Copy-4" transform="translate(-984.000000, -3292.000000)">
            <g id="Group-23" transform="translate(984.000000, 3289.000000)">
                <rect id="Rectangle-20" fill="#EEF4FF" opacity="0" x="0" y="0" width="62.7272727" height="62.7272727"></rect>
                <g id="Group-22" transform="translate(0.000000, 3.136364)">
                    <path d="M8.88636364,10.9772727 L8.88636364,46.4342112 L44.5794941,46.4342112 L44.5794941,10.9772727 L8.88636364,10.9772727 Z" id="Rectangle-24" stroke="#0B34D5" stroke-width="1.04545455" transform="translate(26.732929, 28.705742) rotate(-45.000000) translate(-26.732929, -28.705742) "></path>
                    <path d="M28.75,15.1590909 L28.75,42.5086294 L56.2832708,42.5086294 L56.2832708,15.1590909 L28.75,15.1590909 Z" id="Rectangle-24-Copy-2" stroke="#0B34D5" stroke-width="1.04545455" transform="translate(42.516635, 28.833860) rotate(-45.000000) translate(-42.516635, -28.833860) "></path>
                    <line x1="0.522727273" y1="28.75" x2="59.0681818" y2="28.75" id="Line" stroke="#0B34D5" stroke-width="1.04545455" stroke-linecap="square"></line>
                    <circle id="Oval-9-Copy-4" fill="#FFB200" cx="42.3409091" cy="47.5681818" r="2.61363636"></circle>
                    <circle id="Oval-9-Copy" fill="#FFB200" cx="26.6590909" cy="53.8409091" r="2.61363636"></circle>
                    <circle id="Oval-9" fill="#FFB200" cx="26.6590909" cy="2.61363636" r="2.61363636"></circle>
                    <circle id="Oval-9-Copy-5" fill="#FFB200" cx="24.5681818" cy="28.75" r="2.61363636"></circle>
                    <circle id="Oval-9-Copy-6" fill="#FFB200" cx="60.1136364" cy="28.75" r="2.61363636"></circle>
                    <circle id="Oval-9-Copy-3" fill="#FFB200" cx="2.61363636" cy="28.75" r="2.61363636"></circle>
                    <circle id="Oval-9-Copy-7" fill="#FFB200" cx="49.6590909" cy="28.75" r="2.61363636"></circle>
                    <circle id="Oval-9-Copy-8" fill="#FFB200" cx="42.3409091" cy="9.93181818" r="2.61363636"></circle>
                </g>
            </g>
        </g>
    </g>
</svg>