<svg width="26px" height="18px" viewBox="0 0 26 18" version="1.1" xmlns="http://www.w3.org/2000/svg" xmlns:xlink="http://www.w3.org/1999/xlink">
    <g id="Symbols" stroke="none" stroke-width="1" fill="none" fill-rule="evenodd">
        <g id="FooterSection" transform="translate(-670.000000, -57.000000)" fill="#FFFFFF">
            <g id="Group-3" transform="translate(170.000000, 15.000000)">
                <g id="Social-media-icons-footer" transform="translate(269.000000, 28.000000)">
                    <g id="youtube-icon" transform="translate(231.000000, 14.000000)">
                        <path d="M17.8306743,9.38449989 L10.4252564,12.9702299 C10.2279313,13.065773 10,12.9197149 10,12.6977948 L10,5.30220808 C10,5.07712708 10.2339233,4.93124787 10.4316596,5.03299355 L17.8370775,8.84285028 C18.0572544,8.95610645 18.053436,9.27667094 17.8306743,9.38449989 Z M20.6001332,0 L5.39986681,0 C2.41759996,0 0,2.36526718 0,5.28297815 L0,12.7170219 C0,15.6347328 2.41759996,18 5.39986681,18 L20.6001332,18 C23.5824,18 26,15.6347328 26,12.7170219 L26,5.28297815 C26,2.36526718 23.5824,0 20.6001332,0 L20.6001332,0 Z" id="youtube"></path>
                    </g>
                </g>
            </g>
        </g>
    </g>
</svg>
