<?xml version="1.0" encoding="UTF-8"?>
<svg width="46px" height="39px" viewBox="0 0 46 39" version="1.1" xmlns="http://www.w3.org/2000/svg" xmlns:xlink="http://www.w3.org/1999/xlink">
    <!-- Generator: Sketch 59.1 (86144) - https://sketch.com -->
    <title>Group 41</title>
    <desc>Created with Sketch.</desc>
    <g id="Page-1" stroke="none" stroke-width="1" fill="none" fill-rule="evenodd">
        <g id="ACALA-Copy-4" transform="translate(-272.000000, -2254.000000)">
            <g id="Group-41" transform="translate(272.000000, 2251.000000)">
                <rect id="Rectangle-Copy-29" x="0" y="0" width="46" height="46"></rect>
                <g id="Group-38" transform="translate(0.000000, 5.000000)">
                    <g id="借呗-copy-6" transform="translate(23.000000, 18.500000) scale(-1, 1) translate(-23.000000, -18.500000) ">
                        <g id="Group-34">
                            <path d="M44.144325,22.1567623 C38.9909916,20.8329527 34.6738487,18.266286 32.7243249,17.4034289 C30.2005153,16.2872384 28.7490867,17.1881908 22.9090866,18.4805718 C17.0690865,19.7739051 14.5490865,19.9177146 14.5490865,19.9177146 C13.7100389,21.3281908 14.7948008,23.6253337 16.7300389,24.2281909 C18.665277,24.831048 25.7843248,24.1577147 27.634801,23.8691433 C28.5281343,23.7291432 28.6443248,24.8024766 27.5862296,25.8653338 C26.4528962,27.0043814 23.5681343,27.9596195 21.4014675,28.6015243 C18.2662294,29.5300957 13.8214674,28.1796195 13.8214674,28.1796195 C13.8214674,28.1796195 7.65003879,24.7767623 3.64432443,23.8691433 C-0.36234231,22.9605718 0.0090862892,26.383429 0.0090862892,26.383429 C0.0090862892,26.383429 7.49194355,31.2443814 9.82337214,32.4891434 C12.1548008,33.7348577 15.7348008,37.0386673 18.9109913,36.7996197 C22.0871819,36.560572 33.4881344,33.600572 35.9957535,33.9262863 C37.1090868,34.0710482 38.8452773,34.5215244 40.4805154,34.9110482 C40.5262297,34.9215244 40.571944,34.9329529 40.6176583,34.9434291 C40.7509917,34.9862863 40.8871821,35.028191 41.0348012,35.028191 C41.5224202,35.028191 41.9319441,34.7615244 42.1814679,34.380572 C42.2376583,34.2739053 42.2938488,34.1529529 42.3500393,34.0348577 C43.5319441,31.5491434 44.7328965,26.6015243 45.3024203,24.0681909 C45.4928965,23.2205718 44.9814679,22.3720004 44.144325,22.1567623 Z" id="Path" fill="#0155FF" fill-rule="nonzero"></path>
                            <line x1="13.7155304" y1="0.906270339" x2="13.7155304" y2="14.9062703" id="Path-46-Copy" stroke="#5890FF" stroke-width="4" stroke-linecap="round" stroke-linejoin="round" transform="translate(13.715530, 7.906270) scale(-1, 1) rotate(-180.000000) translate(-13.715530, -7.906270) "></line>
                            <polyline id="Path-47-Copy" stroke="#5890FF" stroke-width="4" stroke-linecap="round" stroke-linejoin="round" transform="translate(13.481691, 12.726772) scale(-1, 1) rotate(-180.000000) translate(-13.481691, -12.726772) " points="7 16 13.7155304 9.45354494 19.9633825 16"></polyline>
                        </g>
                    </g>
                    <g id="Group-32" transform="translate(32.500000, 10.000000) rotate(-180.000000) translate(-32.500000, -10.000000) translate(26.000000, 2.000000)"></g>
                </g>
            </g>
        </g>
    </g>
</svg>