<?xml version="1.0" encoding="UTF-8"?>
<svg width="37px" height="37px" viewBox="0 0 37 37" version="1.1" xmlns="http://www.w3.org/2000/svg" xmlns:xlink="http://www.w3.org/1999/xlink">
    <!-- Generator: Sketch 59.1 (86144) - https://sketch.com -->
    <title>Group 39</title>
    <desc>Created with Sketch.</desc>
    <g id="Page-1" stroke="none" stroke-width="1" fill="none" fill-rule="evenodd">
        <g id="ACALA-Copy-4" transform="translate(-277.000000, -2462.000000)">
            <g id="Group-39" transform="translate(272.000000, 2457.000000)">
                <rect id="Rectangle-Copy-31" x="0" y="0" width="46" height="46"></rect>
                <g id="政府机构" transform="translate(5.000000, 5.000000)" fill-rule="nonzero">
                    <path d="M33.1055616,10.8760005 L30.0094891,10.8760005 C29.7991174,10.8784994 29.601542,10.7752213 29.4835154,10.6010597 L29.2061839,10.1874531 C28.841704,9.64640122 28.3152816,9.23463677 27.7023772,9.01118462 L19.0955349,5.82426216 L19.0955349,4.3085016 C21.9190573,4.26546739 24.7903956,3.67016079 27.1190246,4.2391687 C27.3581035,4.29893844 27.5111141,4.12919238 27.4848154,3.85425158 C27.3477525,2.84872787 27.3541922,1.82883398 27.5039417,0.82512124 C27.5565391,0.547789653 27.5206772,0.478456756 27.1740127,0.368480438 C23.2507271,-0.865166964 21.6249902,1.58539231 17.663452,0.411514649 C17.3120059,0.30631991 17.2737533,0.449767282 17.1852941,0.724708079 C16.867319,1.69536863 16.9653414,2.74253445 17.1852941,3.72514895 L17.1852941,5.97249112 L10.0320518,8.94185172 C9.3070494,9.23669497 8.72323414,9.79910938 8.40153329,10.5126005 C8.29877897,10.731973 8.07953583,10.8731805 7.83730696,10.8760005 L3.19200288,10.8760005 C1.43477257,10.8760005 0.00747121731,12.2435321 0.00747121731,13.9242571 L0.00747121731,33.2394458 C0.00747121731,34.9129985 1.44194494,36.2877071 3.19200288,36.2877071 L14.493265,36.2877071 C15.0104196,36.2877071 15.4340663,35.876998 15.4495808,35.3600761 C15.4399975,35.325666 15.4399975,35.2892915 15.4495808,35.2548814 L15.4495808,30.0214431 C15.4495808,29.488297 16.016198,29.0651273 16.7143085,29.0651273 L19.4493717,29.0651273 C20.1474823,29.0651273 20.7164902,29.4978602 20.7164902,30.0214431 L20.7164902,35.2548814 C20.7218776,35.6473421 20.9736841,35.9939352 21.3452678,36.1203472 C21.508523,36.230016 21.7008701,36.2883031 21.8975402,36.2877071 L33.0936076,36.2877071 C34.8532287,36.2877071 36.2877025,34.9201708 36.2877025,33.2394458 L36.2877025,13.9242571 C36.2877025,12.2435321 34.8532287,10.8760005 33.1055616,10.8760005 L33.1055616,10.8760005 Z" id="Shape" fill="#0155FF"></path>
                    <path d="M4.46390292,16.7740783 L6.46499376,16.7740783 C6.62437973,16.7740783 6.70407271,16.8537712 6.70407271,17.0131572 L6.70407271,21.6058639 C6.70407271,21.7652499 6.62437973,21.8449429 6.46499376,21.8449429 L4.46390292,21.8449429 C4.30451695,21.8449429 4.22482396,21.7652499 4.22482396,21.6058639 L4.22482396,17.0131572 C4.22482396,16.8537712 4.30451695,16.7740783 4.46390292,16.7740783 L4.46390292,16.7740783 Z" id="Path" fill="#5890FF"></path>
                    <path d="M9.45348068,16.7740783 L11.4545715,16.7740783 C11.6139575,16.7740783 11.6936505,16.8537712 11.6936505,17.0131572 L11.6936505,21.6058639 C11.6936505,21.7652499 11.6139575,21.8449429 11.4545715,21.8449429 L9.45348068,21.8449429 C9.29409472,21.8449429 9.21440173,21.7652499 9.21440173,21.6058639 L9.21440173,17.0131572 C9.21440173,16.8537712 9.29409472,16.7740783 9.45348068,16.7740783 Z" id="Path" fill="#5890FF"></path>
                    <path d="M14.4430585,16.7740783 L16.4441493,16.7740783 C16.6035353,16.7740783 16.6832282,16.8537712 16.6832282,17.0131572 L16.6832282,21.6058639 C16.6832282,21.7652499 16.6035353,21.8449429 16.4441493,21.8449429 L14.4430585,21.8449429 C14.2836725,21.8449429 14.2039795,21.7652499 14.2039795,21.6058639 L14.2039795,17.0131572 C14.2039795,16.8537712 14.2836725,16.7740783 14.4430585,16.7740783 Z" id="Path" fill="#5890FF"></path>
                    <path d="M19.435027,16.7740783 L21.4361179,16.7740783 C21.5955038,16.7740783 21.6751968,16.8537712 21.6751968,17.0131572 L21.6751968,21.6058639 C21.6751968,21.7652499 21.5955038,21.8449429 21.4361179,21.8449429 L19.435027,21.8449429 C19.275641,21.8449429 19.1959481,21.7652499 19.1959481,21.6058639 L19.1959481,17.0131572 C19.1959481,16.8537712 19.275641,16.7740783 19.435027,16.7740783 Z" id="Path" fill="#5890FF"></path>
                    <path d="M24.4246048,16.7740783 L26.4256956,16.7740783 C26.5850816,16.7740783 26.6647746,16.8537712 26.6647746,17.0131572 L26.6647746,21.6058639 C26.6647746,21.7652499 26.5850816,21.8449429 26.4256956,21.8449429 L24.4246048,21.8449429 C24.2652188,21.8449429 24.1855258,21.7652499 24.1855258,21.6058639 L24.1855258,17.0131572 C24.1855258,16.8537712 24.2652188,16.7740783 24.4246048,16.7740783 L24.4246048,16.7740783 Z" id="Path" fill="#5890FF"></path>
                    <path d="M29.4165733,16.7740783 L31.4176642,16.7740783 C31.5770501,16.7740783 31.6567431,16.8537712 31.6567431,17.0131572 L31.6567431,21.6058639 C31.6567431,21.7652499 31.5770501,21.8449429 31.4176642,21.8449429 L29.4165733,21.8449429 C29.2571874,21.8449429 29.1774944,21.7652499 29.1774944,21.6058639 L29.1774944,17.0131572 C29.1774944,16.8537712 29.2571874,16.7740783 29.4165733,16.7740783 Z" id="Path" fill="#5890FF"></path>
                    <path d="M4.46390292,25.2900706 L6.46499376,25.2900706 C6.62437973,25.2900706 6.70407271,25.3697636 6.70407271,25.5291495 L6.70407271,30.1218562 C6.70407271,30.2812422 6.62437973,30.3609352 6.46499376,30.3609352 L4.46390292,30.3609352 C4.30451695,30.3609352 4.22482396,30.2812422 4.22482396,30.1218562 L4.22482396,25.5291495 C4.22482396,25.3697636 4.30451695,25.2900706 4.46390292,25.2900706 L4.46390292,25.2900706 Z" id="Path" fill="#5890FF"></path>
                    <path d="M9.45348068,25.2900706 L11.4545715,25.2900706 C11.6139575,25.2900706 11.6936505,25.3697636 11.6936505,25.5291495 L11.6936505,30.1218562 C11.6936505,30.2812422 11.6139575,30.3609352 11.4545715,30.3609352 L9.45348068,30.3609352 C9.29409472,30.3609352 9.21440173,30.2812422 9.21440173,30.1218562 L9.21440173,25.5291495 C9.21440173,25.3697636 9.29409472,25.2900706 9.45348068,25.2900706 Z" id="Path" fill="#5890FF"></path>
                    <path d="M24.4246048,25.2900706 L26.4256956,25.2900706 C26.5850816,25.2900706 26.6647746,25.3697636 26.6647746,25.5291495 L26.6647746,30.1218562 C26.6647746,30.2812422 26.5850816,30.3609352 26.4256956,30.3609352 L24.4246048,30.3609352 C24.2652188,30.3609352 24.1855258,30.2812422 24.1855258,30.1218562 L24.1855258,25.5291495 C24.1855258,25.3697636 24.2652188,25.2900706 24.4246048,25.2900706 L24.4246048,25.2900706 Z" id="Path" fill="#5890FF"></path>
                    <path d="M29.4165733,25.2900706 L31.4176642,25.2900706 C31.5770501,25.2900706 31.6567431,25.3697636 31.6567431,25.5291495 L31.6567431,30.1218562 C31.6567431,30.2812422 31.5770501,30.3609352 31.4176642,30.3609352 L29.4165733,30.3609352 C29.2571874,30.3609352 29.1774944,30.2812422 29.1774944,30.1218562 L29.1774944,25.5291495 C29.1774944,25.3697636 29.2571874,25.2900706 29.4165733,25.2900706 Z" id="Path" fill="#5890FF"></path>
                </g>
            </g>
        </g>
    </g>
</svg>