<?xml version="1.0" encoding="UTF-8"?>
<svg width="120px" height="37px" viewBox="0 0 120 37" version="1.1" xmlns="http://www.w3.org/2000/svg" xmlns:xlink="http://www.w3.org/1999/xlink">
    <!-- Generator: Sketch 59.1 (86144) - https://sketch.com -->
    <title>Group 59</title>
    <desc>Created with Sketch.</desc>
    <defs>
        <polygon id="path-1" points="0 36.1791045 119.702328 36.1791045 119.702328 0.181970149 0 0.181970149"></polygon>
    </defs>
    <g id="Page-1" stroke="none" stroke-width="1" fill="none" fill-rule="evenodd">
        <g id="ACALA-Copy-4" transform="translate(-1193.000000, -6616.000000)">
            <g id="Group-59" transform="translate(1173.000000, 6555.000000)">
                <rect id="Rectangle" x="0" y="0" width="160" height="160"></rect>
                <g id="Group-37" transform="translate(20.000000, 61.000000)">
                    <polygon id="Fill-1" fill="#0474B7" points="72.1008 36.3553433 84.0012179 36.3553433 72.1008 24.3488955"></polygon>
                    <polygon id="Fill-2" fill="#027CBF" points="72.1008 24.3489672 84.0012179 36.3554149 84.0012179 24.3489672"></polygon>
                    <polygon id="Fill-3" fill="#0880C3" points="84.0011104 36.3553433 95.9018866 36.3553433 84.0011104 24.3488955"></polygon>
                    <polygon id="Fill-4" fill="#0E87C9" points="84.0011104 24.3489672 95.9018866 36.3554149 95.9018866 24.3489672"></polygon>
                    <polygon id="Fill-5" fill="#1490CF" points="95.9017433 36.3553433 107.802161 36.3553433 95.9017433 24.3488955"></polygon>
                    <polygon id="Fill-6" fill="#069AD7" points="95.9017433 24.3489672 107.802161 36.3554149 107.802161 24.3489672"></polygon>
                    <polygon id="Fill-7" fill="#17B0E7" points="107.802054 36.3553433 119.702472 36.3553433 119.702472 36.3549851 107.802054 24.3488955"></polygon>
                    <polygon id="Fill-8" fill="#38BDE8" points="107.802054 24.3489672 119.702472 36.3550567 119.702472 24.3489672"></polygon>
                    <g id="Group-36" transform="translate(0.000000, 0.176239)">
                        <path d="M75.8744955,29.7941373 L75.8744955,29.7719284 C75.8744955,27.5714507 77.5326448,25.7693015 79.910794,25.7693015 C81.3690627,25.7693015 82.2430925,26.2557493 82.9623761,26.9635701 L81.878794,28.213003 C81.2816597,27.6710328 80.6730627,27.3389731 79.8989731,27.3389731 C78.5940179,27.3389731 77.6544358,28.4225552 77.6544358,29.7497194 L77.6544358,29.7719284 C77.6544358,31.0990925 78.5721672,32.2045254 79.8989731,32.2045254 C80.783391,32.2045254 81.3260776,31.8506149 81.9332418,31.2978985 L83.0168239,32.3922269 C82.2216,33.2436896 81.3361075,33.7749134 79.8434507,33.7749134 C77.5663164,33.7749134 75.8744955,32.0164657 75.8744955,29.7941373" id="Fill-9" fill="#FFFFFF"></path>
                        <path d="M87.9301254,31.5519403 L87.9301254,31.2535522 C87.6428418,31.1206567 87.2667224,31.0321791 86.858006,31.0321791 C86.1387224,31.0321791 85.6966925,31.3201791 85.6966925,31.8503284 L85.6966925,31.8728955 C85.6966925,32.3263881 86.0724537,32.5911045 86.6137075,32.5911045 C87.3992597,32.5911045 87.9301254,32.1605373 87.9301254,31.5519403 M84.0718567,31.938806 L84.0718567,31.9173134 C84.0718567,30.6231045 85.0551403,30.0259701 86.4589612,30.0259701 C87.0560955,30.0259701 87.4880955,30.1259104 87.9082746,30.269194 L87.9082746,30.1696119 C87.9082746,29.4732537 87.4762746,29.0863881 86.636991,29.0863881 C85.9954388,29.0863881 85.5415881,29.2078209 85.0003343,29.4066269 L84.5794388,28.1242388 C85.2317373,27.8369552 85.8732896,27.6488955 86.8791403,27.6488955 C87.7979463,27.6488955 88.460991,27.8921194 88.8804537,28.3122985 C89.3239164,28.7543284 89.522006,29.4066269 89.522006,30.2032836 L89.522006,33.6417313 L87.8971701,33.6417313 L87.8971701,33.0001791 C87.4880955,33.4540299 86.9239164,33.7524179 86.1057672,33.7524179 C84.9888716,33.7524179 84.0718567,33.1108657 84.0718567,31.938806" id="Fill-11" fill="#FFFFFF"></path>
                        <path d="M95.7400478,30.6900179 L95.7400478,30.667809 C95.7400478,29.6834507 95.0766448,29.0311522 94.291809,29.0311522 C93.5066149,29.0311522 92.8546746,29.6834507 92.8546746,30.667809 L92.8546746,30.6900179 C92.8546746,31.6740179 93.5066149,32.3263164 94.291809,32.3263164 C95.0766448,32.3263164 95.7400478,31.6847642 95.7400478,30.6900179 L95.7400478,30.6900179 Z M91.1950925,27.7150925 L92.8761672,27.7150925 L92.8761672,28.5669134 C93.2852418,28.0134806 93.8497791,27.604406 94.7223761,27.604406 C96.1047045,27.604406 97.4207642,28.6883463 97.4207642,30.667809 L97.4207642,30.6900179 C97.4207642,32.6687642 96.1276299,33.7523463 94.7223761,33.7523463 C93.8264955,33.7523463 93.2737791,33.3432716 92.8761672,32.8682866 L92.8761672,35.4112119 L91.1950925,35.4112119 L91.1950925,27.7150925 Z" id="Fill-13" fill="#FFFFFF"></path>
                        <mask id="mask-2" fill="white">
                            <use xlink:href="#path-1"></use>
                        </mask>
                        <g id="Clip-16"></g>
                        <path d="M98.9609552,33.6419104 L100.641672,33.6419104 L100.641672,27.7149851 L98.9609552,27.7149851 L98.9609552,33.6419104 Z M98.9165373,27.0623284 L100.68609,27.0623284 L100.68609,25.5696716 L98.9165373,25.5696716 L98.9165373,27.0623284 Z" id="Fill-15" fill="#FFFFFF" mask="url(#mask-2)"></path>
                        <path d="M102.721648,31.9610507 L102.721648,29.1526925 L102.013827,29.1526925 L102.013827,27.7148418 L102.721648,27.7148418 L102.721648,26.2003343 L104.402364,26.2003343 L104.402364,27.7148418 L105.796155,27.7148418 L105.796155,29.1526925 L104.402364,29.1526925 L104.402364,31.6848716 C104.402364,32.0717373 104.568931,32.2594388 104.943618,32.2594388 C105.253469,32.2594388 105.530722,32.1820657 105.773588,32.0502448 L105.773588,33.3985433 C105.420036,33.6091701 105.011319,33.7417075 104.446782,33.7417075 C103.417648,33.7417075 102.721648,33.3326328 102.721648,31.9610507" id="Fill-17" fill="#FFFFFF" mask="url(#mask-2)"></path>
                        <path d="M110.762794,31.5519403 L110.762794,31.2535522 C110.47551,31.1206567 110.099391,31.0321791 109.690316,31.0321791 C108.971391,31.0321791 108.529361,31.3201791 108.529361,31.8503284 L108.529361,31.8728955 C108.529361,32.3263881 108.905122,32.5911045 109.446376,32.5911045 C110.231928,32.5911045 110.762794,32.1605373 110.762794,31.5519403 M106.904167,31.938806 L106.904167,31.9173134 C106.904167,30.6231045 107.887809,30.0259701 109.29163,30.0259701 C109.888764,30.0259701 110.320764,30.1259104 110.740943,30.269194 L110.740943,30.1696119 C110.740943,29.4732537 110.308943,29.0863881 109.469301,29.0863881 C108.827749,29.0863881 108.374257,29.2078209 107.832645,29.4066269 L107.412107,28.1242388 C108.064048,27.8369552 108.705958,27.6488955 109.711809,27.6488955 C110.630615,27.6488955 111.29366,27.8921194 111.713122,28.3122985 C112.156585,28.7543284 112.354675,29.4066269 112.354675,30.2032836 L112.354675,33.6417313 L110.729481,33.6417313 L110.729481,33.0001791 C110.320764,33.4540299 109.756227,33.7524179 108.938078,33.7524179 C107.82154,33.7524179 106.904167,33.1108657 106.904167,31.938806" id="Fill-18" fill="#FFFFFF" mask="url(#mask-2)"></path>
                        <polygon id="Fill-19" fill="#FFFFFF" mask="url(#mask-2)" points="114.105672 33.6419104 115.786388 33.6419104 115.786388 25.5696716 114.105672 25.5696716"></polygon>
                        <polygon id="Fill-20" fill="#10436B" mask="url(#mask-2)" points="-3.58208955e-05 0.451773134 4.15339701 0.451773134 4.15339701 7.92186269 11.8126209 7.92186269 11.8126209 0.451773134 15.9653373 0.451773134 15.9653373 19.3301015 11.8126209 19.3301015 11.8126209 11.7518328 4.15339701 11.7518328 4.15339701 19.3301015 -3.58208955e-05 19.3301015"></polygon>
                        <polygon id="Fill-21" fill="#10436B" mask="url(#mask-2)" points="55.4380657 0.451773134 59.5914985 0.451773134 59.5914985 7.92186269 67.2507224 7.92186269 67.2507224 0.451773134 71.4034388 0.451773134 71.4034388 19.3301015 67.2507224 19.3301015 67.2507224 11.7518328 59.5914985 11.7518328 59.5914985 19.3301015 55.4380657 19.3301015"></polygon>
                        <path d="M30.2593433,11.4278687 L27.7515224,5.30607761 L25.2433433,11.4278687 L30.2593433,11.4278687 Z M25.8906269,0.316943284 L29.7202388,0.316943284 L37.8107463,19.3299582 L33.4685373,19.3299582 L31.7426866,15.0959284 L23.76,15.0959284 L22.0341493,19.3299582 L17.8001194,19.3299582 L25.8906269,0.316943284 Z" id="Fill-22" fill="#10436B" mask="url(#mask-2)"></path>
                        <path d="M38.0813731,16.5792358 L40.5361791,13.6390567 C42.234806,15.041803 44.0147463,15.9319522 46.1718806,15.9319522 C47.8715821,15.9319522 48.8960597,15.2581612 48.8960597,14.1520119 L48.8960597,14.0979224 C48.8960597,13.0458627 48.2487761,12.5064 45.0933134,11.6979224 C41.2905672,10.7264597 38.8368358,9.67511642 38.8368358,5.9264597 L38.8368358,5.87237015 C38.8368358,2.44717612 41.5875224,0.181862687 45.444,0.181862687 C48.1946866,0.181862687 50.5413134,1.04514627 52.4559403,2.5825791 L50.298806,5.7104597 C48.6259701,4.55129552 46.9814328,3.84992239 45.3899104,3.84992239 C43.7987463,3.84992239 42.9626866,4.57780299 42.9626866,5.49517612 L42.9626866,5.54854925 C42.9626866,6.78902687 43.7722388,7.19380299 47.0355224,8.02986269 C50.8647761,9.02783284 53.0219104,10.4033552 53.0219104,13.6931463 L53.0219104,13.7472358 C53.0219104,17.4958925 50.163403,19.6000119 46.0912836,19.6000119 C43.2327761,19.6000119 40.3466866,18.6016836 38.0813731,16.5792358" id="Fill-23" fill="#10436B" mask="url(#mask-2)"></path>
                        <polygon id="Fill-24" fill="#10436B" mask="url(#mask-2)" points="85.7780776 0.451773134 100.0176 0.451773134 100.0176 4.1463403 89.9042866 4.1463403 89.9042866 7.97595224 98.8039881 7.97595224 98.8039881 11.6705194 89.9042866 11.6705194 89.9042866 15.6351761 100.153003 15.6351761 100.153003 19.3301015 85.7780776 19.3301015"></polygon>
                        <polygon id="Fill-25" fill="#10436B" mask="url(#mask-2)" points="108.081457 11.8864836 100.826651 0.451737313 105.681457 0.451737313 110.185576 8.03000597 114.770293 0.451737313 119.489696 0.451737313 112.23489 11.8058866 112.23489 19.3300657 108.081457 19.3300657"></polygon>
                        <polygon id="Fill-26" fill="#0880C3" mask="url(#mask-2)" points="78.3466388 13.5344597 75.4490866 10.6369075 72.5511761 13.5344597"></polygon>
                        <polygon id="Fill-27" fill="#0E87C9" mask="url(#mask-2)" points="72.5512836 13.5344597 75.449194 16.4320119 78.3467463 13.5344597"></polygon>
                        <polygon id="Fill-28" fill="#1490CF" mask="url(#mask-2)" points="81.2444776 16.4321552 78.3465672 13.534603 75.4490149 16.4321552"></polygon>
                        <polygon id="Fill-29" fill="#069AD7" mask="url(#mask-2)" points="75.4491224 16.4321552 78.3466746 19.3300657 81.2445851 16.4321552"></polygon>
                        <polygon id="Fill-30" fill="#0DAEE5" mask="url(#mask-2)" points="84.1423522 19.329994 81.2444418 16.4320836 78.3465313 19.329994"></polygon>
                        <polygon id="Fill-31" fill="#10436B" mask="url(#mask-2)" points="78.3466388 6.32163582 75.4118328 9.25644179 72.4766687 6.32163582"></polygon>
                        <polygon id="Fill-32" fill="#10436B" mask="url(#mask-2)" points="72.4767761 6.32163582 75.4115821 3.38682985 78.3467463 6.32163582"></polygon>
                        <polygon id="Fill-33" fill="#10436B" mask="url(#mask-2)" points="81.2815522 3.38672239 78.3467463 6.32152836 75.4115821 3.38672239"></polygon>
                        <polygon id="Fill-34" fill="#10436B" mask="url(#mask-2)" points="75.4116896 3.38672239 78.3464955 0.451916418 81.2816597 3.38672239"></polygon>
                        <polygon id="Fill-35" fill="#10436B" mask="url(#mask-2)" points="84.2165015 0.451773134 81.2816955 3.3865791 78.3465313 0.451773134"></polygon>
                    </g>
                </g>
            </g>
        </g>
    </g>
</svg>