<?xml version="1.0" encoding="UTF-8"?>
<svg width="51px" height="60px" viewBox="0 0 51 60" version="1.1" xmlns="http://www.w3.org/2000/svg" xmlns:xlink="http://www.w3.org/1999/xlink">
    <!-- Generator: Sketch 59.1 (86144) - https://sketch.com -->
    <title>Group 61</title>
    <desc>Created with Sketch.</desc>
    <g id="Page-1" stroke="none" stroke-width="1" fill="none" fill-rule="evenodd">
        <g id="ACALA-Copy-4" transform="translate(-1401.000000, -1525.000000)">
            <g id="Group-61" transform="translate(1396.000000, 1525.000000)">
                <g id="Group-9-Copy-7" opacity="0" fill="#EEF4FF">
                    <rect id="Rectangle-20" x="0" y="0" width="60" height="60"></rect>
                </g>
                <g id="Group-60" transform="translate(5.000000, 1.000000)">
                    <path d="M43.9864995,25.16732 C43.9864995,25.16732 49.6573549,31.7914054 49.6573549,33.6041882 C49.6573549,35.416971 49.0441838,36.1281485 47.4395702,36.6260406 C45.8349566,37.1239326 42.4094468,36.2348922 41.2963953,38.3182293 C40.1833438,40.4015665 42.4094468,44.5526906 42.4094468,46.5407828 C42.4094468,48.528875 42.476457,53.2485298 35.3286775,52.0472773 C28.1808979,50.8460249 27.4908561,50.0442414 24.8291063,51.2454938 C22.1673565,52.4467463 21,57.091589 21,57.091589" id="Path-5" stroke="#0B34D5"></path>
                    <path d="M2.36134133,10.2863331 C2.36134133,10.2863331 10.1492177,0 25.411285,0 C40.6733524,0 47.0153491,6.84748027 47.7250487,13.7971236 C48.4347483,20.7467669 45.54625,29.2997525 29.8867979,28.4701092 C14.2273458,27.6404659 17.0843215,16.6913343 17.0843215,16.6913343 C17.0843215,16.6913343 18.2220954,9.4005673 26.3489655,8.21553762 C34.4758357,7.03050793 37.76006,10.4891933 37.76006,14.5487843 C37.76006,18.6083752 34.1651658,21.1691662 29.8867979,22.2961903 C25.60843,23.4232144 14.5770393,23.4498371 8.32150486,19.5059193" id="Path-6" stroke="#0B34D5"></path>
                    <circle id="Oval-8-Copy-6" fill="#FFB200" cx="2.45901639" cy="10.4590164" r="2.45901639"></circle>
                    <circle id="Oval-8-Copy-20" fill="#FFB200" cx="21.4590164" cy="56.4590164" r="2.45901639"></circle>
                    <circle id="Oval-8-Copy-21" fill="#FFB200" cx="35.4590164" cy="10.4590164" r="2.45901639"></circle>
                    <circle id="Oval-8-Copy-22" fill="#FFB200" cx="7.45901639" cy="19.4590164" r="2.45901639"></circle>
                    <circle id="Oval-8-Copy-23" fill="#FFB200" cx="18.4590164" cy="22.4590164" r="2.45901639"></circle>
                </g>
            </g>
        </g>
    </g>
</svg>