<?xml version="1.0" encoding="UTF-8"?>
<svg width="57px" height="50px" viewBox="0 0 57 50" version="1.1" xmlns="http://www.w3.org/2000/svg" xmlns:xlink="http://www.w3.org/1999/xlink">
    <!-- Generator: Sketch 59.1 (86144) - https://sketch.com -->
    <title>Group 30</title>
    <desc>Created with Sketch.</desc>
    <g id="Page-1" stroke="none" stroke-width="1" fill="none" fill-rule="evenodd">
        <g id="ACALA-Copy-4" transform="translate(-1266.000000, -7491.000000)">
            <g id="Group-30" transform="translate(1264.000000, 7486.000000)">
                <rect id="Rectangle-20" fill="#EEF4FF" opacity="0" x="0" y="0" width="60" height="60"></rect>
                <g id="Group-27" transform="translate(2.000000, 5.000000)">
                    <path d="M2.26378002,13.8466714 L28.5,25.1489215 L54.73622,13.8466714 L28.5,2.54442133 L2.26378002,13.8466714 Z" id="Rectangle-26" stroke="#0155FF"></path>
                    <path d="M2.26378002,25.3466714 L28.5,36.6489215 L54.73622,25.3466714 L28.5,14.0444213 L2.26378002,25.3466714 Z" id="Rectangle-26-Copy" stroke="#0155FF"></path>
                    <path d="M2.26378002,36.8466714 L28.5,48.1489215 L54.73622,36.8466714 L28.5,25.5444213 L2.26378002,36.8466714 Z" id="Rectangle-26-Copy-2" stroke="#0155FF"></path>
                    <circle id="Oval-11" fill="#FFB200" cx="28.5" cy="2.5" r="2.5"></circle>
                    <circle id="Oval-11-Copy-8" fill="#FFB200" cx="28.5" cy="13.5" r="2.5"></circle>
                    <circle id="Oval-11-Copy-10" fill="#FFB200" cx="2.5" cy="13.5" r="2.5"></circle>
                    <circle id="Oval-11-Copy-14" fill="#FFB200" cx="2.5" cy="25.5" r="2.5"></circle>
                    <circle id="Oval-11-Copy-15" fill="#FFB200" cx="2.5" cy="36.5" r="2.5"></circle>
                    <circle id="Oval-11-Copy-11" fill="#FFB200" cx="54.5" cy="13.5" r="2.5"></circle>
                    <circle id="Oval-11-Copy-12" fill="#FFB200" cx="54.5" cy="25.5" r="2.5"></circle>
                    <circle id="Oval-11-Copy-13" fill="#FFB200" cx="54.5" cy="36.5" r="2.5"></circle>
                    <circle id="Oval-11-Copy-9" fill="#FFB200" cx="28.5" cy="36.5" r="2.5"></circle>
                    <circle id="Oval-11-Copy-7" fill="#FFB200" cx="28.5" cy="47.5" r="2.5"></circle>
                    <circle id="Oval-11-Copy-6" fill="#FFB200" cx="28.5" cy="25.5" r="2.5"></circle>
                </g>
            </g>
        </g>
    </g>
</svg>