<?xml version="1.0" encoding="UTF-8"?>
<svg width="16px" height="16px" viewBox="0 0 16 16" version="1.1" xmlns="http://www.w3.org/2000/svg" xmlns:xlink="http://www.w3.org/1999/xlink">
    <!-- Generator: Sketch 63.1 (92452) - https://sketch.com -->
    <title>Group 102</title>
    <desc>Created with Sketch.</desc>
    <g id="Page-1" stroke="none" stroke-width="1" fill="none" fill-rule="evenodd">
        <g id="ACALA-Copy-5" transform="translate(-506.000000, -9104.000000)">
            <g id="Group-102" transform="translate(504.000000, 9102.000000)">
                <g id="linkedin">
                    <rect id="Rectangle" x="0" y="0" width="20" height="20"></rect>
                    <path d="M16.8571429,2 L3.13928571,2 C2.51071429,2 2,2.51785714 2,3.15357143 L2,16.8464286 C2,17.4821429 2.51071429,18 3.13928571,18 L16.8571429,18 C17.4857143,18 18,17.4821429 18,16.8464286 L18,3.15357143 C18,2.51785714 17.4857143,2 16.8571429,2 Z M5.99699248,16 L4,16 L4,8 L6,8 L6,16 L5.99699248,16 Z M5.5,7 C4.67012987,7 4,6.32597403 4,5.5 C4,4.67402597 4.67012987,4 5.5,4 C6.32597403,4 7,4.67402597 7,5.5 C7,6.32987013 6.32987013,7 5.5,7 Z M15,16 L12.7567568,16 L12.7567568,12.2026472 C12.7567568,11.2971246 12.7398649,10.1323597 11.5912162,10.1323597 C10.4222973,10.1323597 10.2432432,11.1182109 10.2432432,12.1369238 L10.2432432,16 L8,16 L8,8.19351894 L10.152027,8.19351894 L10.152027,9.25969877 L10.1824324,9.25969877 C10.4831081,8.64628024 11.2162162,8 12.3074324,8 C14.5777027,8 15,9.61752624 15,11.7206755 L15,16 L15,16 Z" id="Shape" fill="#4E4E4E" fill-rule="nonzero"></path>
                </g>
            </g>
        </g>
    </g>
</svg>