<?xml version="1.0" encoding="UTF-8"?>
<svg width="170px" height="53px" viewBox="0 0 170 53" version="1.1" xmlns="http://www.w3.org/2000/svg" xmlns:xlink="http://www.w3.org/1999/xlink">
    <!-- Generator: Sketch 63.1 (92452) - https://sketch.com -->
    <title>Group 65</title>
    <desc>Created with Sketch.</desc>
    <defs>
        <linearGradient x1="27.5324675%" y1="23.6757554%" x2="55.5380334%" y2="101.284926%" id="linearGradient-1">
            <stop stop-color="#FF9373" offset="39%"></stop>
            <stop stop-color="#FE8F73" offset="51%"></stop>
            <stop stop-color="#FB8373" offset="62%"></stop>
            <stop stop-color="#F77073" offset="73%"></stop>
            <stop stop-color="#F15472" offset="83%"></stop>
            <stop stop-color="#E93172" offset="94%"></stop>
            <stop stop-color="#E41A72" offset="100%"></stop>
        </linearGradient>
        <linearGradient x1="100.02885%" y1="49.9879295%" x2="8.647674%" y2="49.9879295%" id="linearGradient-2">
            <stop stop-color="#FF9373" offset="9%"></stop>
            <stop stop-color="#FD8A73" offset="15%"></stop>
            <stop stop-color="#F04E72" offset="55%"></stop>
            <stop stop-color="#E72872" offset="85%"></stop>
            <stop stop-color="#E41A72" offset="100%"></stop>
        </linearGradient>
        <linearGradient x1="89.1975677%" y1="49.9959778%" x2="28.4010969%" y2="49.9959778%" id="linearGradient-3">
            <stop stop-color="#FF9373" offset="0%"></stop>
            <stop stop-color="#E41A72" offset="100%"></stop>
        </linearGradient>
    </defs>
    <g id="Page-1" stroke="none" stroke-width="1" fill="none" fill-rule="evenodd">
        <g id="ACALA-Copy-5" transform="translate(-360.000000, -19.000000)" fill-rule="nonzero">
            <g id="Group-65" transform="translate(360.000000, 19.000000)">
                <path d="M84.5429508,33.7868852 L86.3488525,28.402623 L94.8767213,28.402623 L96.682623,33.7868852 L101.464918,33.7868852 L93.4052459,11.7147541 L87.8872131,11.7147541 L79.827541,33.7868852 L84.5429508,33.7868852 Z M93.7396721,24.9914754 L87.5193443,24.9914754 L89.6262295,18.7042623 L90.562623,15.4268852 L90.6295082,15.4268852 L91.6327869,18.7711475 L93.7396721,24.9914754 Z M111.598033,34.1213115 C113.626885,34.1213115 115.30459,33.6642623 116.631148,32.7501639 C117.957705,31.8360656 118.810492,30.6098361 119.189508,29.0714754 L119.189508,29.0714754 L115.042623,27.7337705 C114.663607,29.7180328 113.504262,30.7101639 111.56459,30.7101639 C110.271475,30.7101639 109.27377,30.2698361 108.571475,29.3891803 C107.86918,28.5085246 107.518033,27.1986885 107.518033,25.4596721 C107.518033,23.7206557 107.863607,22.3996721 108.554754,21.4967213 C109.245902,20.5937705 110.238033,20.1422951 111.531148,20.1422951 C113.337049,20.1422951 114.440656,21.1567213 114.841967,23.1855738 L114.841967,23.1855738 L119.122623,21.6472131 C118.699016,20.1757377 117.84623,18.9885246 116.564262,18.0855738 C115.282295,17.182623 113.582295,16.7311475 111.464262,16.7311475 C109.769836,16.7311475 108.281639,17.0767213 106.999672,17.7678689 C105.717705,18.4590164 104.72,19.4567213 104.006557,20.7609836 C103.293115,22.0652459 102.936393,23.6203279 102.936393,25.4262295 C102.936393,27.2321311 103.293115,28.7872131 104.006557,30.0914754 C104.72,31.3957377 105.728852,32.3934426 107.033115,33.0845902 C108.337377,33.7757377 109.859016,34.1213115 111.598033,34.1213115 Z M127.382951,34.1213115 C128.453115,34.1213115 129.478689,33.9095082 130.459672,33.4859016 C131.440656,33.0622951 132.187541,32.4714754 132.700328,31.7134426 C132.945574,32.4714754 133.419344,33.0511475 134.121639,33.452459 C134.823934,33.8537705 135.665574,34.0655738 136.646557,34.0878689 C137.516066,34.0878689 138.240656,33.9429508 138.820328,33.6531148 L138.820328,33.6531148 L139.087869,30.8104918 C138.753443,30.9219672 138.396721,30.9777049 138.017705,30.9777049 C137.215082,30.9777049 136.81377,30.5540984 136.81377,29.7068852 L136.81377,29.7068852 L136.81377,22.9180328 C136.81377,20.9114754 136.156066,19.3786885 134.840656,18.3196721 C133.525246,17.2606557 131.741639,16.7311475 129.489836,16.7311475 C127.371803,16.7311475 125.66623,17.1659016 124.373115,18.0354098 C123.08,18.904918 122.232787,20.0977049 121.831475,21.6137705 L121.831475,21.6137705 L125.744262,22.8177049 C126.279344,20.9895082 127.460984,20.0754098 129.28918,20.0754098 C130.180984,20.0754098 130.9,20.3485246 131.44623,20.8947541 C131.992459,21.4409836 132.265574,22.1822951 132.265574,23.1186885 L132.265574,23.1186885 L132.265574,23.7540984 L126.513443,24.9245902 C124.997377,25.2367213 123.843607,25.7885246 123.052131,26.58 C122.260656,27.3714754 121.864918,28.3803279 121.864918,29.6065574 C121.864918,31.0557377 122.349836,32.1704918 123.319672,32.9508197 C124.289508,33.7311475 125.643934,34.1213115 127.382951,34.1213115 Z M128.553443,30.877377 C127.951475,30.877377 127.449836,30.7268852 127.048525,30.4259016 C126.647213,30.124918 126.446557,29.7068852 126.446557,29.1718033 C126.446557,28.6144262 126.624918,28.2019672 126.981639,27.9344262 C127.338361,27.6668852 127.92918,27.455082 128.754098,27.2990164 L128.754098,27.2990164 L132.265574,26.5967213 L132.265574,27.6334426 C132.265574,28.7704918 131.914426,29.5954098 131.212131,30.1081967 C130.509836,30.6209836 129.623607,30.877377 128.553443,30.877377 Z M146.545574,34.1213115 C147.102951,34.1213115 147.671475,34.06 148.251148,33.937377 C148.83082,33.8147541 149.299016,33.6419672 149.655738,33.4190164 L149.655738,33.4190164 L150.057049,30.4091803 C149.678033,30.5429508 149.365902,30.6321311 149.120656,30.6767213 C148.87541,30.7213115 148.563279,30.7436066 148.184262,30.7436066 C147.56,30.7436066 147.114098,30.5819672 146.846557,30.2586885 C146.579016,29.9354098 146.445246,29.3947541 146.445246,28.6367213 L146.445246,28.6367213 L146.445246,9.74163934 L141.863607,9.74163934 L141.863607,29.1383607 C141.863607,30.877377 142.237049,32.142623 142.983934,32.9340984 C143.73082,33.7255738 144.918033,34.1213115 146.545574,34.1213115 Z M157.414426,34.1213115 C158.48459,34.1213115 159.510164,33.9095082 160.491148,33.4859016 C161.472131,33.0622951 162.219016,32.4714754 162.731803,31.7134426 C162.977049,32.4714754 163.45082,33.0511475 164.153115,33.452459 C164.85541,33.8537705 165.697049,34.0655738 166.678033,34.0878689 C167.547541,34.0878689 168.272131,33.9429508 168.851803,33.6531148 L168.851803,33.6531148 L169.119344,30.8104918 C168.784918,30.9219672 168.428197,30.9777049 168.04918,30.9777049 C167.246557,30.9777049 166.845246,30.5540984 166.845246,29.7068852 L166.845246,29.7068852 L166.845246,22.9180328 C166.845246,20.9114754 166.187541,19.3786885 164.872131,18.3196721 C163.556721,17.2606557 161.773115,16.7311475 159.521311,16.7311475 C157.403279,16.7311475 155.697705,17.1659016 154.40459,18.0354098 C153.111475,18.904918 152.264262,20.0977049 151.862951,21.6137705 L151.862951,21.6137705 L155.775738,22.8177049 C156.31082,20.9895082 157.492459,20.0754098 159.320656,20.0754098 C160.212459,20.0754098 160.931475,20.3485246 161.477705,20.8947541 C162.023934,21.4409836 162.297049,22.1822951 162.297049,23.1186885 L162.297049,23.1186885 L162.297049,23.7540984 L156.544918,24.9245902 C155.028852,25.2367213 153.875082,25.7885246 153.083607,26.58 C152.292131,27.3714754 151.896393,28.3803279 151.896393,29.6065574 C151.896393,31.0557377 152.381311,32.1704918 153.351148,32.9508197 C154.320984,33.7311475 155.67541,34.1213115 157.414426,34.1213115 Z M158.584918,30.877377 C157.982951,30.877377 157.481311,30.7268852 157.08,30.4259016 C156.678689,30.124918 156.478033,29.7068852 156.478033,29.1718033 C156.478033,28.6144262 156.656393,28.2019672 157.013115,27.9344262 C157.369836,27.6668852 157.960656,27.455082 158.785574,27.2990164 L158.785574,27.2990164 L162.297049,26.5967213 L162.297049,27.6334426 C162.297049,28.7704918 161.945902,29.5954098 161.243607,30.1081967 C160.541311,30.6209836 159.655082,30.877377 158.584918,30.877377 Z" id="Acala" fill="#000000"></path>
                <g id="logo.98c8c4e9">
                    <path d="M41.9264834,39.0201438 C39.0559299,38.1830376 36.07926,37.7661331 33.0891833,37.7824148 C28.1825729,37.7707823 23.3480364,38.9630982 19.0094887,41.2548148 L21.8186687,36.4982183 L24.3110238,32.2738874 L31.0403828,20.8006049 L37.3768791,31.361432 L26.9427819,13.9402917 L15.7102863,33.0891833 L4.47779067,52.521105 L12.6011788,52.521105 C17.6817465,48.0161012 24.2167697,45.4947852 31.0065882,45.4200049 C38.4498591,45.3904346 45.1792181,48.0940063 50.0160769,52.5126564 L41.9264834,39.0201438 Z" id="Path" fill="url(#linearGradient-1)"></path>
                    <path d="M27.1413255,0.0295703157 L13.5685506,23.0310516 L0,46.0452059 L2.23889533,49.1458647 L4.47779067,52.5253294 L15.7102863,33.0934076 L26.9427819,13.9402917 L37.3557574,31.3698806 C35.8699354,31.1732089 34.3725145,31.0772385 32.8737424,31.0826261 C29.97988,31.0901344 27.1000522,31.4850984 24.3110238,32.2569901 L21.8186687,36.4813209 L19.0094887,41.2548148 C23.3429843,38.9657808 28.1713899,37.773546 33.072286,37.7824148 C36.0623626,37.7661331 39.0390326,38.1830376 41.909586,39.0201438 L49.9822822,52.5126564 L58.5703468,52.5126564 L27.1413255,0.0295703157 Z" id="Path" fill="url(#linearGradient-2)"></path>
                    <polygon id="Path" fill="url(#linearGradient-3)" points="27.1413255 0.0295703157 58.5872441 52.5126564 62.5707881 45.7959704 35.0365998 0"></polygon>
                </g>
            </g>
        </g>
    </g>
</svg>