<?xml version="1.0" encoding="UTF-8"?>
<svg width="60px" height="60px" viewBox="0 0 60 60" version="1.1" xmlns="http://www.w3.org/2000/svg" xmlns:xlink="http://www.w3.org/1999/xlink">
    <!-- Generator: Sketch 59.1 (86144) - https://sketch.com -->
    <title>Shape</title>
    <desc>Created with Sketch.</desc>
    <g id="Page-1" stroke="none" stroke-width="1" fill="none" fill-rule="evenodd">
        <g id="ACALA-Copy-4" transform="translate(-1089.000000, -753.000000)" fill="#98A5AE" fill-rule="nonzero">
            <path d="M1105.77165,753 C1106.92484,753 1107.86357,753.918145 1107.89673,755.0633 L1107.89764,755.125984 L1107.89764,765.776693 L1116.67222,774.194735 C1117.33618,774.087129 1118.1202,774.030152 1118.86835,774.024152 L1119,774.023622 C1119.90215,774.023622 1120.884,774.177688 1121.79325,774.446453 L1121.94189,774.491575 L1125.82865,770.605111 L1125.83211,770.608421 L1130.10236,766.338189 L1130.10236,755.125984 C1130.10236,753.972803 1131.02051,753.034065 1132.16566,753.000906 L1132.22835,753 L1146.87402,753 C1148.0272,753 1148.96593,753.918145 1148.99909,755.0633 L1149,755.125984 L1149,769.771654 C1149,770.924836 1148.08186,771.863573 1146.9367,771.896732 L1146.87402,771.897638 L1144.31197,771.897638 L1144.31171,772.129342 L1144.31253,772.129602 L1144.31244,775.161024 L1144.36547,775.190485 C1147.21414,776.79496 1148.96045,779.864261 1148.99934,783.353335 L1149,783.472442 C1149,786.908418 1147.12123,790.020387 1144.19772,791.684453 L1144.12961,791.722678 L1144.12961,794.102127 L1146.87402,794.102363 C1148.0272,794.102363 1148.96593,795.020508 1148.99909,796.165663 L1149,796.228347 L1149,810.874017 C1149,812.027199 1148.08186,812.965936 1146.9367,812.999095 L1146.87402,813 L1132.22835,813 C1131.07516,813 1130.13643,812.081856 1130.10327,810.936701 L1130.10236,810.874017 L1130.10236,796.228347 C1130.10236,795.075166 1131.02051,794.136428 1132.16566,794.103269 L1132.22835,794.102363 L1135.79362,794.102127 L1135.79362,792.078426 L1135.75365,792.06039 C1132.43153,790.542767 1130.15128,787.252986 1130.10314,783.590707 L1130.10236,783.472442 C1130.10236,779.727301 1132.24829,776.415798 1135.52341,774.895703 L1135.65354,774.836457 L1135.65354,773.233701 L1128.06987,780.817106 L1128.08235,780.858475 C1128.30926,781.648137 1128.43281,782.468941 1128.44736,783.305026 L1128.44882,783.472442 C1128.44882,788.69088 1124.21844,792.921261 1119,792.921261 C1113.78156,792.921261 1109.55118,788.69088 1109.55118,783.472442 C1109.55118,782.525769 1109.69074,781.597503 1109.96144,780.710657 L1110.00354,780.57567 L1103.47452,774.046543 L1103.49355,774.026843 L1102.70079,773.233937 L1102.70079,775.113544 L1102.74052,775.133665 C1105.82903,776.723971 1107.85421,779.846392 1107.89695,783.358998 L1107.89764,783.472442 C1107.89764,786.919874 1105.9078,790.056853 1102.89762,791.71675 L1102.70079,791.822127 L1102.70079,794.083465 L1105.77165,794.102363 C1106.92484,794.102363 1107.86357,795.020508 1107.89673,796.165663 L1107.89764,796.228347 L1107.89764,810.874017 C1107.89764,812.027199 1106.97949,812.965936 1105.83434,812.999095 L1105.77165,813 L1091.12598,813 C1089.9728,813 1089.03407,812.081856 1089.00091,810.936701 L1089,810.874017 L1089,796.228347 C1089,795.075166 1089.91814,794.136428 1091.0633,794.103269 L1091.12598,794.102363 L1094.11066,794.101974 L1094.11087,791.868662 L1094.07569,791.850529 C1091.02853,790.258978 1089.04259,787.10802 1089.00068,783.586177 L1089,783.472442 C1089,779.897727 1091.00369,776.693991 1094.08527,775.089245 L1094.26465,774.998268 L1094.26461,771.897632 L1091.12598,771.897638 C1089.9728,771.897638 1089.03407,770.979493 1089.00091,769.834338 L1089,769.771654 L1089,755.125984 C1089,753.972803 1089.91814,753.034065 1091.0633,753.000906 L1091.12598,753 L1105.77165,753 Z M1105.77165,754.889764 L1091.12598,754.889764 C1091.00484,754.889764 1090.905,754.980954 1090.89135,755.098436 L1090.88976,755.125984 L1090.88976,769.771654 C1090.88976,769.892796 1090.98095,769.99264 1091.09844,770.006285 L1091.12598,770.007874 L1096.16001,770.007874 L1096.16001,775.713096 L1096.15421,775.712764 L1096.1545,776.239647 L1095.56977,776.480721 C1092.76111,777.638685 1090.88976,780.382211 1090.88976,783.472442 C1090.88976,786.474284 1092.65541,789.152023 1095.33917,790.364552 L1095.43316,790.406254 L1096.0007,790.653473 L1096.00066,791.245659 L1096.02603,791.245725 L1096.02603,795.992127 L1091.12598,795.992127 C1091.00484,795.992127 1090.905,796.083317 1090.89135,796.200799 L1090.88976,796.228347 L1090.88976,810.874017 C1090.88976,810.995159 1090.98095,811.095003 1091.09844,811.108648 L1091.12598,811.110237 L1105.77165,811.110237 C1105.8928,811.110237 1105.99264,811.019047 1106.00628,810.901565 L1106.00787,810.874017 L1106.00787,796.228347 C1106.00787,796.106584 1105.91575,796.006338 1105.79265,795.993498 L1105.76582,795.992109 L1100.81102,795.961536 L1100.81102,790.616299 L1101.37176,790.366777 C1104.13786,789.135891 1106.00787,786.43248 1106.00787,783.472442 C1106.00787,780.491615 1104.20896,777.842041 1101.47775,776.622839 L1100.81102,776.334895 L1100.81102,768.67161 L1111.61778,779.478371 L1111.59829,779.497895 L1112.20294,780.102432 L1111.97314,780.68015 C1111.62304,781.560328 1111.44094,782.502985 1111.44094,783.472442 C1111.44094,787.647192 1114.82525,791.031497 1119,791.031497 C1123.17475,791.031497 1126.55906,787.647192 1126.55906,783.472442 C1126.55906,782.629474 1126.42139,781.806618 1126.15503,781.027067 L1126.10358,780.881414 L1125.89721,780.315791 L1135.55648,770.645453 L1135.56316,770.651448 L1137.54331,768.67161 L1137.54331,776.136586 L1136.92001,776.362189 C1133.97179,777.429299 1131.99213,780.243799 1131.99213,783.472442 C1131.99213,786.574552 1134.03379,789.387378 1136.97067,790.52345 L1137.68345,790.789156 L1137.68345,795.992127 L1132.22835,795.992127 C1132.1072,795.992127 1132.00736,796.083317 1131.99372,796.200799 L1131.99213,796.228347 L1131.99213,810.874017 C1131.99213,810.995159 1132.08332,811.095003 1132.2008,811.108648 L1132.22835,811.110237 L1146.87402,811.110237 C1146.99516,811.110237 1147.095,811.019047 1147.10865,810.901565 L1147.11024,810.874017 L1147.11024,796.228347 C1147.11024,796.107205 1147.01905,796.007361 1146.90156,795.993716 L1146.87402,795.992127 L1142.2399,795.992127 L1142.2399,790.553018 L1142.77712,790.296094 C1145.39613,789.04354 1147.11024,786.402315 1147.11024,783.472442 C1147.11024,780.450379 1145.55966,777.85173 1143.05957,776.638918 L1142.96768,776.595167 L1142.42276,776.340572 L1142.4223,770.007874 L1146.87402,770.007874 C1146.99516,770.007874 1147.095,769.916684 1147.10865,769.799202 L1147.11024,769.771654 L1147.11024,755.125984 C1147.11024,755.004842 1147.01905,754.904998 1146.90156,754.891353 L1146.87402,754.889764 L1132.22835,754.889764 C1132.1072,754.889764 1132.00736,754.980954 1131.99372,755.098436 L1131.99213,755.125984 L1131.99213,767.12113 L1122.89549,776.217762 L1122.89171,776.214079 L1122.42596,776.680334 L1121.85293,776.460094 C1120.96829,776.12009 1119.91412,775.913386 1119,775.913386 C1118.06756,775.913386 1117.02933,776.009782 1116.44038,776.171233 L1116.37445,776.190149 L1115.83363,776.352726 L1108.26721,768.786304 L1108.28566,768.767369 L1106.00787,766.582638 L1106.00787,755.125984 C1106.00787,755.004842 1105.91668,754.904998 1105.7992,754.891353 L1105.77165,754.889764 Z M1139.55118,757.488189 C1142.42132,757.488189 1144.74803,759.814898 1144.74803,762.68504 C1144.74803,765.148812 1143.03354,767.212141 1140.73255,767.747025 L1140.73255,778.410456 C1143.03354,778.94534 1144.74803,781.00867 1144.74803,783.472442 C1144.74803,785.936213 1143.03354,787.999543 1140.73255,788.534427 L1140.73255,798.489196 C1143.03354,799.02408 1144.74803,801.08741 1144.74803,803.551182 C1144.74803,806.421323 1142.42132,808.748033 1139.55118,808.748033 C1136.68104,808.748033 1134.35433,806.421323 1134.35433,803.551182 C1134.35433,800.921468 1136.30756,798.747954 1138.84239,798.402264 L1138.84239,788.62136 C1136.30756,788.275669 1134.35433,786.102156 1134.35433,783.472442 C1134.35433,780.842727 1136.30756,778.669214 1138.84239,778.323523 L1138.84239,767.833958 C1138.14915,767.739417 1137.49942,767.508167 1136.92124,767.168265 L1123.3935,780.695511 C1123.90229,781.498805 1124.19685,782.451225 1124.19685,783.472442 C1124.19685,786.342583 1121.87014,788.669292 1119,788.669292 C1116.12986,788.669292 1113.80315,786.342583 1113.80315,783.472442 C1113.80315,782.265579 1114.21454,781.154802 1114.90473,780.272691 L1101.51411,766.88206 C1100.89663,767.333799 1100.17574,767.65257 1099.39358,767.796222 L1099.39358,778.361259 C1101.81265,778.805548 1103.64567,780.924932 1103.64567,783.472442 C1103.64567,786.019951 1101.81265,788.139335 1099.39358,788.583624 L1099.39358,798.439999 C1101.81265,798.884288 1103.64567,801.003673 1103.64567,803.551182 C1103.64567,806.421323 1101.31896,808.748033 1098.44882,808.748033 C1095.57868,808.748033 1093.25197,806.421323 1093.25197,803.551182 C1093.25197,801.003673 1095.08499,798.884288 1097.50406,798.439999 L1097.50406,788.583624 C1095.08499,788.139335 1093.25197,786.019951 1093.25197,783.472442 C1093.25197,780.924932 1095.08499,778.805548 1097.50406,778.361259 L1097.50406,767.796222 C1095.08499,767.351933 1093.25197,765.232549 1093.25197,762.68504 C1093.25197,759.814898 1095.57868,757.488189 1098.44882,757.488189 C1101.31896,757.488189 1103.64567,759.814898 1103.64567,762.68504 C1103.64567,763.725782 1103.33974,764.695071 1102.8129,765.507882 L1116.32236,779.017602 C1117.10437,778.546551 1118.02054,778.275591 1119,778.275591 C1120.16581,778.275591 1121.24195,778.659465 1122.10894,779.307707 L1135.48973,765.927556 C1134.77918,765.038707 1134.35433,763.911488 1134.35433,762.68504 C1134.35433,759.814898 1136.68104,757.488189 1139.55118,757.488189 Z M1139.55118,800.244095 C1137.72473,800.244095 1136.24409,801.724729 1136.24409,803.551182 C1136.24409,805.377636 1137.72473,806.858269 1139.55118,806.858269 C1141.37763,806.858269 1142.85827,805.377636 1142.85827,803.551182 C1142.85827,801.724729 1141.37763,800.244095 1139.55118,800.244095 Z M1098.44882,800.244095 C1096.62237,800.244095 1095.14173,801.724729 1095.14173,803.551182 C1095.14173,805.377636 1096.62237,806.858269 1098.44882,806.858269 C1100.27527,806.858269 1101.75591,805.377636 1101.75591,803.551182 C1101.75591,801.724729 1100.27527,800.244095 1098.44882,800.244095 Z M1098.44882,780.165355 C1096.62237,780.165355 1095.14173,781.645988 1095.14173,783.472442 C1095.14173,785.298895 1096.62237,786.779528 1098.44882,786.779528 C1100.27527,786.779528 1101.75591,785.298895 1101.75591,783.472442 C1101.75591,781.645988 1100.27527,780.165355 1098.44882,780.165355 Z M1139.55118,780.165355 C1137.72473,780.165355 1136.24409,781.645988 1136.24409,783.472442 C1136.24409,785.298895 1137.72473,786.779528 1139.55118,786.779528 C1141.37763,786.779528 1142.85827,785.298895 1142.85827,783.472442 C1142.85827,781.645988 1141.37763,780.165355 1139.55118,780.165355 Z M1119,780.165355 C1117.17355,780.165355 1115.69291,781.645988 1115.69291,783.472442 C1115.69291,785.298895 1117.17355,786.779528 1119,786.779528 C1120.82645,786.779528 1122.30709,785.298895 1122.30709,783.472442 C1122.30709,781.645988 1120.82645,780.165355 1119,780.165355 Z M1098.44882,759.377953 C1096.62237,759.377953 1095.14173,760.858586 1095.14173,762.68504 C1095.14173,764.511493 1096.62237,765.992126 1098.44882,765.992126 C1100.27527,765.992126 1101.75591,764.511493 1101.75591,762.68504 C1101.75591,760.858586 1100.27527,759.377953 1098.44882,759.377953 Z M1139.55118,759.377953 C1137.72473,759.377953 1136.24409,760.858586 1136.24409,762.68504 C1136.24409,764.511493 1137.72473,765.992126 1139.55118,765.992126 C1141.37763,765.992126 1142.85827,764.511493 1142.85827,762.68504 C1142.85827,760.858586 1141.37763,759.377953 1139.55118,759.377953 Z" id="Shape"></path>
        </g>
    </g>
</svg>