<?xml version="1.0" encoding="UTF-8"?>
<svg width="120px" height="42px" viewBox="0 0 120 42" version="1.1" xmlns="http://www.w3.org/2000/svg" xmlns:xlink="http://www.w3.org/1999/xlink">
    <!-- Generator: Sketch 63.1 (92452) - https://sketch.com -->
    <title>p-2-p-logo</title>
    <desc>Created with Sketch.</desc>
    <g id="Page-1" stroke="none" stroke-width="1" fill="none" fill-rule="evenodd">
        <g id="ACALA-Copy-5" transform="translate(-900.000000, -7049.000000)" fill="#1A1A1A" fill-rule="nonzero">
            <g id="p-2-p-logo" transform="translate(900.000000, 7049.000000)">
                <path d="M82.7716533,0.780472441 C82.7716533,0.665932383 82.8183386,0.556343059 82.9011837,0.477247384 C82.9840289,0.398151709 83.0956674,0.356460024 83.2100787,0.361889764 L119.463307,0.361889764 C119.695748,0.361889764 119.88378,0.548976378 119.88378,0.780472441 L119.88378,14.5908661 C119.88378,14.8223622 119.695748,15.0103953 119.463307,15.0103953 L83.0551181,15.0103953 C82.9800257,15.0106448 82.9079227,14.9809904 82.8547354,14.9279804 C82.8015482,14.8749704 82.7716533,14.8029669 82.7716533,14.727874 L82.7716533,0.781417323 L82.7716533,0.780472441 Z M116.095748,11.5143324 C116.250315,11.5143324 116.3762,11.3901439 116.37827,11.2355906 L116.37827,4.13574803 C116.37827,4.06091555 116.348605,3.98913903 116.295248,3.93667065 C116.24189,3.88420226 116.169621,3.85548018 116.094803,3.8569499 L86.5606299,3.8569499 C86.4859637,3.85599838 86.4139942,3.88488904 86.3607505,3.9372453 C86.3075069,3.98960156 86.2771654,4.06107538 86.2771654,4.13574803 L86.2771654,11.2355906 C86.2792372,11.3905126 86.4056949,11.5148627 86.5606299,11.5143324 L116.096693,11.5143324 L116.095748,11.5143324 Z M83.0494488,23.1741732 L85.9974803,23.1741732 C86.1524409,23.1741732 86.2771654,23.2979528 86.2771654,23.4519685 L86.2771654,26.3905512 C86.2771654,26.5444951 86.1523691,26.6692913 85.9984252,26.6692913 L83.0494488,26.6692913 C82.8955049,26.6692913 82.7707087,26.5444951 82.7707087,26.3905512 L82.7707087,23.4519685 C82.7707087,23.2979528 82.8954331,23.1732283 83.0494488,23.1732283 L83.0494488,23.1741732 Z M41.1373228,0.779527559 C41.1373228,0.548031496 41.3262992,0.360944882 41.5577953,0.360944882 L78.0510236,0.360944882 C78.2834646,0.360944882 78.4714961,0.548031496 78.4714961,0.779527559 L78.4714961,14.5899213 C78.4714961,14.8214173 78.2825197,15.0094488 78.0510236,15.0094488 L41.416063,15.0094488 C41.3421365,15.0094488 41.2712379,14.9800816 41.2189639,14.9278077 C41.16669,14.8755338 41.1373228,14.8046351 41.1373228,14.7307087 L41.1373228,11.792126 C41.1393946,11.6372039 41.2658524,11.5128538 41.4207874,11.5133858 L74.6825197,11.5133858 C74.8359818,11.5118596 74.9601592,11.3881017 74.9622047,11.2346457 L74.9622047,4.13574803 C74.9622052,4.06165754 74.9327083,3.99061532 74.8802298,3.93831416 C74.8277514,3.88601299 74.7566097,3.85675672 74.6825197,3.85700787 L41.4198425,3.85700787 C41.3449135,3.85725889 41.2729537,3.82773398 41.2197937,3.77492837 C41.1666337,3.72212276 41.136378,3.65036208 41.136378,3.57543307 L41.136378,0.780472441 L41.1373228,0.779527559 Z M-3.13659859e-17,1.0592126 C0.00258633069,0.67443165 0.31442606,0.363434731 0.699212598,0.361889764 L36.4100787,0.361889764 C36.7965354,0.361889764 37.1093074,0.673700787 37.1093074,1.0592126 L37.1093074,14.3092913 C37.1105548,14.4952918 37.0373547,14.6740676 36.9060071,14.8057702 C36.7746595,14.9374728 36.5960819,15.0111551 36.4100787,15.0103995 L0.278740157,15.0103995 C0.124186834,15.0083259 -3.13659859e-17,14.8824412 -3.13659859e-17,14.727874 L-3.13659859e-17,1.0592126 Z M33.3240945,11.5143323 C33.3981846,11.5145819 33.4693262,11.4853256 33.5218046,11.4330244 C33.5742831,11.3807233 33.6038213,11.309681 33.6038213,11.2355906 L33.6038213,4.13574803 C33.6050801,4.06126566 33.5759999,3.98946395 33.5232358,3.93687814 C33.4704717,3.88429232 33.398572,3.85545527 33.3240945,3.85694827 L3.78519685,3.85694827 C3.71087539,3.85598568 3.63928525,3.88499364 3.58663822,3.93746281 C3.53399119,3.98993198 3.50474113,4.06142354 3.50549696,4.13574803 L3.50549696,11.2355906 C3.50549696,11.3896063 3.6311811,11.5143323 3.78519685,11.5143323 L33.3240945,11.5143323 Z M0.278740157,23.1741732 L3.22677165,23.1741732 C3.3807874,23.1741732 3.50551181,23.2979528 3.50551181,23.4519685 L3.50551181,26.3905512 C3.50551181,26.5441269 3.38129135,26.6687707 3.22771654,26.6692913 L0.278740157,26.6692913 C0.124796219,26.6692913 -3.13659859e-17,26.5444951 -3.13659859e-17,26.3905512 L-3.13659859e-17,23.4519685 C-3.13659859e-17,23.2979528 0.124724409,23.1732283 0.278740157,23.1732283 L0.278740157,23.1741732 Z M78.4714961,23.5965354 L78.4714961,26.2459843 C78.4694192,26.4765744 78.2816225,26.662261 78.0510236,26.6617334 L41.4330709,26.6617334 C41.2809532,26.6617334 41.156909,26.5398123 41.1543307,26.3877165 L41.1543307,23.455748 C41.1564025,23.300826 41.2828603,23.1764758 41.4377953,23.1770062 L78.0538583,23.1770062 C78.2844094,23.1788976 78.4696063,23.3659843 78.4696063,23.5965354 L78.4714961,23.5965354 Z M2.2223622,40.0488189 L3.34299213,36.0255118 L4.31433071,36.0255118 L2.6503937,41.3981102 L1.81228346,41.3981102 L0.141732283,36.0255118 L1.10929134,36.0255118 L2.2223622,40.0488189 L2.2223622,40.0488189 Z M17.5181102,40.1508661 L15.8362205,40.1508661 L15.4733858,41.3981102 L14.5483465,41.3981102 L16.3143307,36.0255118 L17.0976378,36.0255118 L18.8116535,41.3981102 L17.88,41.3981102 L17.5181102,40.1508661 Z M16.0677165,39.3949606 L17.303622,39.3949606 L16.6771654,37.287874 L16.0677165,39.3949606 Z M30.2759055,40.6743307 L32.8422047,40.6743307 L32.8422047,41.3981102 L29.3877165,41.3981102 L29.3877165,36.0255118 L30.2759055,36.0255118 L30.2759055,40.6743307 Z M43.8198425,36.0255118 L47.0211024,36.0255118 L47.0211024,36.7483465 L45.8570079,36.7483465 L45.8570079,40.656378 L47.0211024,40.656378 L47.0211024,41.3792126 L43.8198425,41.3792126 L43.8198425,40.656378 L44.9546457,40.656378 L44.9546457,36.759685 L43.816063,36.759685 L43.8198425,36.0255118 Z M58.0535433,41.3981102 L58.0535433,36.0254701 L59.3688189,36.0254701 C59.7099213,36.023622 60.0491339,36.0859843 60.3666142,36.2097638 C60.6510236,36.3222047 60.9070866,36.496063 61.1168504,36.72 C61.3285039,36.9448819 61.4900787,37.2122835 61.5911811,37.504252 C61.7083465,37.8274016 61.7659843,38.1694488 61.7612598,38.5124409 L61.7612598,38.9177953 C61.7659843,39.2617323 61.7083465,39.6028346 61.5911811,39.9259843 C61.391623,40.511242 60.9489905,40.9817759 60.3770079,41.2166929 C60.0651969,41.3404724 59.7307087,41.4018898 59.3943307,41.3981102 L58.0525984,41.3981102 L58.0535433,41.3981102 Z M58.9559055,36.7417323 L58.9559055,40.6856693 L59.3943307,40.6856693 C59.6154331,40.6875591 59.8346457,40.6422047 60.0368504,40.5514961 C60.2156884,40.4694681 60.3722053,40.3456804 60.4932283,40.1905512 C60.6217323,40.0270866 60.7143307,39.8381102 60.7653543,39.6368504 C60.8300533,39.4014198 60.8618512,39.1581663 60.8598425,38.9140157 L60.8598425,38.5020472 C60.8634938,38.2577993 60.8316658,38.0143151 60.7653543,37.7792126 C60.7129956,37.57628 60.6190413,37.3864407 60.4894488,37.2217323 C60.3666142,37.0667717 60.2059843,36.9429921 60.0255118,36.8607874 C59.8192628,36.7679483 59.594955,36.7221185 59.3688189,36.7266142 L58.9559055,36.7417323 L58.9559055,36.7417323 Z M75.1067717,40.1508661 L73.4211024,40.1508661 L73.0582677,41.3981102 L72.1445669,41.3981102 L73.896378,36.0255118 L74.6825197,36.0255118 L76.4012598,41.3981102 L75.4875591,41.3981102 L75.1067717,40.1508661 L75.1067717,40.1508661 Z M73.656378,39.3949606 L74.8932283,39.3949606 L74.2837795,37.287874 L73.656378,39.3949606 Z M90.7029921,36.7559055 L89.0494488,36.7559055 L89.0494488,41.3981102 L88.1659843,41.3981102 L88.1659843,36.7559055 L86.5228346,36.7559055 L86.5228346,36.0330709 L90.7029921,36.0330709 L90.7029921,36.7559055 Z M104.936709,39.0444094 C104.937638,39.3514961 104.897008,39.6585827 104.816693,39.9552756 C104.742992,40.232126 104.620157,40.4938583 104.454803,40.7291339 C104.118901,41.1970552 103.573648,41.4689744 102.997795,41.455748 C102.703513,41.4636167 102.412196,41.395263 102.152126,41.2573228 C101.915185,41.1257363 101.710793,40.9426556 101.554016,40.7215748 C101.388024,40.4900095 101.265115,40.2304293 101.191181,39.9552756 C101.111079,39.6583163 101.071039,39.3519805 101.072104,39.0444094 L101.072104,38.3574803 C101.072104,38.1496063 101.090079,37.9407874 101.125984,37.735748 C101.16,37.5411024 101.212913,37.3511811 101.286614,37.167874 C101.352756,36.9930709 101.439685,36.8267717 101.546457,36.6727559 C101.646614,36.5244094 101.769449,36.3930709 101.909291,36.2825197 C102.055748,36.1729134 102.218268,36.0869291 102.391181,36.0292913 C102.582047,35.9650394 102.781417,35.9329134 102.982677,35.9348031 C103.27937,35.9291339 103.572283,35.9990551 103.834016,36.1379528 C104.075906,36.2664567 104.28378,36.447874 104.443465,36.6689764 C104.608819,36.9033071 104.731654,37.1650394 104.806299,37.4428346 C104.886614,37.7404724 104.927244,38.0475591 104.925354,38.3574803 L104.936709,39.0444094 L104.936709,39.0444094 Z M104.048504,38.3640945 C104.045173,38.1615908 104.025582,37.9596818 103.989921,37.760315 C103.961657,37.5749288 103.902911,37.3954973 103.816063,37.2292913 C103.737925,37.085485 103.627665,36.9616438 103.493858,36.8674016 C103.345457,36.7664939 103.168613,36.7158249 102.989291,36.7228346 C102.811477,36.7161072 102.63622,36.766796 102.489449,36.8674016 C102.355641,36.9677866 102.248562,37.0995261 102.177638,37.2510236 C102.094249,37.4178102 102.039016,37.5972386 102.014173,37.7820472 C101.982992,37.9804724 101.966929,38.1817323 101.964094,38.3829921 L101.964094,39.0444094 C101.965984,39.2437795 101.982992,39.4431496 102.014173,39.6406299 C102.04252,39.8267717 102.098268,40.0072441 102.181417,40.1754331 C102.252283,40.3285039 102.359055,40.4607874 102.493228,40.5628346 C102.63874,40.6648819 102.814488,40.7168504 102.994016,40.7111811 C103.173436,40.716879 103.349955,40.6648839 103.497638,40.5628346 C103.634646,40.4626772 103.745197,40.3313386 103.819843,40.1792126 C103.906772,40.0110236 103.965354,39.8305512 103.993701,39.6444094 C104.026772,39.4459843 104.044724,39.2456693 104.048504,39.0444094 L104.048504,38.3640945 L104.048504,38.3640945 Z M117.487559,39.3004724 L116.585197,39.3004724 L116.585197,41.3981102 L115.697008,41.3981102 L115.697008,36.0255118 L117.40063,36.0255118 C117.657638,36.0255118 117.914646,36.0604724 118.162205,36.1294488 C118.381417,36.191811 118.587402,36.2948031 118.766929,36.4337008 C118.938898,36.567874 119.074961,36.7398425 119.166614,36.936378 C119.263937,37.1650394 119.311181,37.4116535 119.303622,37.6592126 C119.310084,37.9804071 119.2152,38.2954754 119.032441,38.559685 C118.943622,38.679685 118.83874,38.7864567 118.72063,38.8781102 C118.59685,38.9697638 118.462677,39.048189 118.32189,39.1096063 L119.459528,41.3650394 L119.459528,41.4122835 L118.513701,41.4122835 L117.487559,39.3004724 L117.487559,39.3004724 Z M116.585197,38.5776378 L117.404409,38.5776378 C117.542362,38.5785827 117.678425,38.5587402 117.810709,38.5162205 C117.926929,38.4774803 118.035591,38.416063 118.129134,38.335748 C118.219968,38.2588496 118.292037,38.1622188 118.339843,38.0532283 C118.390908,37.9309576 118.415386,37.7992249 118.411654,37.6667717 C118.415061,37.5313183 118.39195,37.3965057 118.343622,37.2699213 C118.299999,37.1576043 118.23038,37.0572238 118.140472,36.9770079 C118.048506,36.8948442 117.939415,36.8341663 117.821102,36.7993701 C117.685604,36.7540681 117.543492,36.7317134 117.40063,36.7332283 L116.585197,36.7332283 L116.585197,38.5776378 L116.585197,38.5776378 Z" id="Shape"></path>
            </g>
        </g>
    </g>
</svg>