<?xml version="1.0" encoding="UTF-8"?>
<svg width="2430px" height="660px" viewBox="0 0 2430 660" version="1.1" xmlns="http://www.w3.org/2000/svg" xmlns:xlink="http://www.w3.org/1999/xlink">
    <!-- Generator: Sketch 60 (88103) - https://sketch.com -->
    <title>banner-white</title>
    <desc>Created with Sketch.</desc>
    <defs>
        <polygon id="path-1" points="591 660 2430 660 2430 0 591 0"></polygon>
    </defs>
    <g id="banner-white" stroke="none" stroke-width="1" fill="none" fill-rule="evenodd">
        <g id="Parafi_Logo-copy" transform="translate(56.000000, 108.000000)" fill="#23496E">
            <path d="M86,249.936676 C120.683446,170.620581 155.529993,91.3735654 189.81588,11.8888333 C193.601864,3.11160262 197.930159,-0.112810612 207.579627,0 C251.152082,0.533291093 294.738808,0.397162747 338.315341,0.090366025 C346.486705,0.0334765667 351.763025,1.23831402 355.451149,9.93833761 C415.79855,152.312334 476.531278,294.521758 537.113138,436.796198 C537.787969,438.385039 537.594286,440.34163 538,443.744838 C512.21168,443.744838 486.912662,443.192198 461.652382,443.98865 C449.843863,444.360464 449.113986,435.520248 446.223019,428.726021 C398.540417,316.582677 350.698791,204.504349 304.015182,91.9485553 C297.907047,77.2243444 290.700018,72.0088002 275.448027,73.3639883 C259.986044,74.7394942 245.506746,70.3021164 237.382273,92.281765 C217.679662,145.587187 194.109516,197.472405 172.096986,249.930581 C143.39935,249.932613 114.699675,249.934645 86,249.936676" id="Fill-1"></path>
            <path d="M107.851915,327.010075 C87.2824634,327.014105 67.9071418,327.02015 51.3475824,327.02015 C34.4612302,365.417377 17.5625462,403.830724 0,443.757312 C28.285051,443.757312 53.3453349,443.350289 78.3788999,443.989033 C86.6823155,444.200605 90.7250924,441.365545 93.7093893,434.20838 C108.626763,398.400386 123.866819,362.719335 139,327 C128.554961,327.00403 118.107866,327.00806 107.851915,327.010075" id="Fill-13"></path>
        </g>
        <path d="M1038,236.279577 C1054.72786,197.157449 1071.53438,158.069394 1088.07049,118.864087 C1089.89647,114.534777 1091.98401,112.944357 1096.63796,113 C1117.653,113.263042 1138.67491,113.195898 1159.69191,113.044572 C1163.63297,113.016512 1166.17774,113.61079 1167.95653,117.902018 C1197.06213,188.12703 1226.35358,258.270867 1255.57227,328.446773 C1255.89774,329.230458 1255.80432,330.195534 1256,331.874143 C1243.56227,331.874143 1231.36053,331.601557 1219.17748,331.994402 C1213.48222,332.177796 1213.1302,327.81742 1211.73588,324.466213 C1188.73852,269.152266 1165.66446,213.870388 1143.14892,158.353004 C1140.20296,151.090386 1136.727,148.517854 1129.37095,149.186292 C1121.91362,149.864751 1114.93024,147.676044 1111.0118,158.517357 C1101.50922,184.809897 1090.14132,210.40193 1079.52465,236.27657 C1065.68376,236.277573 1051.84188,236.278575 1038,236.279577" id="Fill-1" fill="#23496E"></path>
        <path d="M1689,236.279577 C1705.72786,197.157449 1722.53438,158.069394 1739.07049,118.864087 C1740.89647,114.534777 1742.98401,112.944357 1747.63796,113 C1768.65398,113.263042 1789.67491,113.195898 1810.6929,113.044572 C1814.63297,113.016512 1817.17774,113.61079 1818.95653,117.902018 C1848.06312,188.12703 1877.35456,258.270867 1906.57227,328.446773 C1906.89872,329.230458 1906.80531,330.195534 1907,331.874143 C1894.56325,331.874143 1882.36053,331.601557 1870.17846,331.994402 C1864.4832,332.177796 1864.1302,327.81742 1862.73588,324.466213 C1839.7395,269.152266 1816.66446,213.870388 1794.14892,158.353004 C1791.20296,151.090386 1787.727,148.517854 1780.37193,149.186292 C1772.91461,149.864751 1765.93024,147.676044 1762.01279,158.517357 C1752.50922,184.809897 1741.14132,210.40193 1730.52465,236.27657 C1716.68277,236.277573 1702.84188,236.278575 1689,236.279577" id="Fill-3" fill="#23496E"></path>
        <path d="M853.770344,230.680176 C865.16335,230.680176 873.049754,229.623957 877.432514,227.511518 C881.807388,225.399079 884.001232,221.526608 884.001232,215.896107 L884.001232,154.9998 C884.001232,149.366296 881.807388,145.496828 877.432514,143.384389 C873.049754,141.27195 865.16335,140.215731 853.770344,140.215731 L789.809852,140.215731 L789.809852,230.680176 L853.770344,230.680176 Z M789.809852,331 L746,331 L746,111 L853.335715,111 C872.898965,111 888.162241,113.347711 899.113719,118.041129 C910.065197,122.737552 917.952586,130.421423 922.775888,141.094746 C927.592291,151.77808 930,166.499076 930,185.272751 C930,211.558099 924.590293,230.327769 913.790591,241.591774 C902.984976,252.857781 885.022266,258.488282 859.905419,258.488282 L789.809852,258.488282 L789.809852,331 Z" id="Fill-5" fill="#23496E"></path>
        <path d="M1390.73443,225.399079 L1456.77882,225.399079 C1468.14879,225.399079 1476.02295,224.342859 1480.39738,222.230421 C1484.76787,220.117982 1486.95508,216.248514 1486.95508,210.61501 L1486.95508,154.9998 C1486.95508,149.366296 1484.76787,145.496828 1480.39738,143.384389 C1476.02295,141.27195 1468.14879,140.215731 1456.77882,140.215731 L1390.73443,140.215731 L1390.73443,225.399079 Z M1498.32898,331 L1452.84125,253.207185 L1390.73443,253.207185 L1390.73443,331 L1347,331 L1347,111 L1456.34098,111 C1475.87143,111 1491.1101,113.347711 1502.04518,118.041129 C1512.97829,122.737552 1520.85246,130.421423 1525.66472,141.094746 C1530.47305,151.77808 1532.88066,166.498075 1532.88066,185.27175 C1532.88066,203.346618 1530.03521,217.478935 1524.3522,227.68672 C1518.66525,237.896508 1509.40673,244.995704 1496.57961,248.982307 L1546,331 L1498.32898,331 Z" id="Fill-7" fill="#23496E"></path>
        <polygon id="Fill-9" fill="#23496E" points="2058.82121 331 2015 331 2015 111 2164 111 2159.17819 140.216599 2058.82121 140.216599 2058.82121 211.671773 2146.47053 211.671773 2146.47053 239.479752 2058.82121 239.479752"></polygon>
        <mask id="mask-2" fill="white">
            <use xlink:href="#path-1"></use>
        </mask>
        <g id="Clip-12"></g>
        <polygon id="Fill-11" fill="#23496E" mask="url(#mask-2)" points="2280 331 2323 331 2323 111 2280 111"></polygon>
        <path d="M1020.75027,273.009989 C1012.61081,292.044512 1004.4654,311.087026 996,330.879693 C1009.6338,330.879693 1021.71322,330.677921 1033.77976,330.994564 C1037.78212,331.099445 1039.7308,329.694031 1041.16927,326.146034 C1048.35966,308.395063 1055.70559,290.707021 1063,273 C1057.96534,273.001998 1052.92969,273.003995 1047.98617,273.004994 C1038.0714,273.006992 1028.73222,273.009989 1020.75027,273.009989 Z" id="Fill-13" fill="#23496E" mask="url(#mask-2)"></path>
        <path d="M1700.19853,273.004979 C1690.21542,273.006971 1680.81421,273.009958 1672.79942,273.009958 C1664.64213,292.044734 1656.48188,311.086481 1648,330.881055 C1661.6189,330.881055 1673.68511,330.678907 1685.73846,330.994577 C1689.73646,331.099136 1691.68399,329.699037 1693.1199,326.160949 C1700.32717,308.404783 1707.68981,290.71235 1715,273 C1710.03616,273.001992 1705.0733,273.002987 1700.19853,273.004979" id="Fill-14" fill="#23496E" mask="url(#mask-2)"></path>
        <path d="M866,518.962851 L866,486.037149 C866,475.545181 868.339964,467.914659 873.014965,463.149598 C877.692922,458.38253 885.131544,456 895.334771,456 L912.48104,456 C921.172897,456 927.644991,457.854418 931.896335,461.560241 C936.146695,465.267068 938.507349,471.212851 938.981253,479.395582 C939.169436,481.898594 937.940831,483.148594 935.297411,483.148594 C933.030356,483.148594 931.800766,481.898594 931.612584,479.395582 C931.234249,473.524096 929.628295,469.408635 926.793737,467.048193 C923.960164,464.689759 919.188608,463.509036 912.48104,463.509036 L895.334771,463.509036 C889.854822,463.509036 885.53254,464.232932 882.367923,465.675703 C879.202322,467.120482 876.912606,469.454819 875.495819,472.680723 C874.078048,475.906627 873.37064,480.358434 873.37064,486.037149 L873.37064,518.962851 C873.37064,524.645582 874.078048,529.096386 875.495819,532.320281 C876.912606,535.547189 879.202322,537.880522 882.367923,539.325301 C885.53254,540.768072 889.901129,541.491968 895.477632,541.491968 L912.48104,541.491968 C919.188608,541.491968 923.960164,540.336345 926.793737,538.026104 C929.628295,535.713855 931.234249,531.576305 931.612584,525.60743 C931.800766,523.103414 933.030356,521.851406 935.297411,521.851406 C937.940831,521.851406 939.169436,523.150602 938.981253,525.751004 C938.507349,533.934739 936.146695,539.854418 931.896335,543.513052 C927.644991,547.172691 921.172897,549 912.48104,549 L895.477632,549 C885.273419,549 877.809181,546.595382 873.085903,541.779116 C868.361639,536.966867 866,529.360442 866,518.962851 Z" id="Fill-15" fill="#23496E" mask="url(#mask-2)"></path>
        <path d="M1114.53841,516.363454 L1154.46061,516.363454 L1134.5,467.841365 L1114.53841,516.363454 Z M1174,545.534137 C1174,546.787149 1173.20251,547.797189 1171.6095,548.566265 C1171.04754,548.855422 1170.43672,549 1169.78192,549 C1168.46842,549 1167.53411,548.22992 1166.97118,546.689759 L1157.5538,523.87249 L1157.1316,523.87249 L1111.58693,523.87249 L1102.16956,546.689759 C1101.51183,548.22992 1100.48272,549 1099.07637,549 C1098.60628,549 1097.99839,548.855422 1097.24977,548.566265 C1095.7496,547.988956 1095,546.930723 1095,545.389558 C1095,544.620482 1095.09284,544.042169 1095.28049,543.657631 L1130.14217,458.88755 C1130.89177,456.962851 1132.29616,456 1134.35829,456 L1134.63976,456 C1136.51424,456 1137.87368,456.962851 1138.71612,458.88755 L1173.5778,543.657631 C1173.85829,544.330321 1174,544.956827 1174,545.534137 L1174,545.534137 Z" id="Fill-16" fill="#23496E" mask="url(#mask-2)"></path>
        <path d="M1385.67361,480.982932 C1385.67361,474.918675 1384.33567,470.490964 1381.65879,467.697791 C1378.98192,464.905622 1374.63702,463.509036 1368.62801,463.509036 L1339.32541,463.509036 L1339.32541,502.789157 L1368.62801,502.789157 C1374.63702,502.789157 1378.98192,501.417671 1381.65879,498.673695 C1384.33567,495.929719 1385.67361,491.477912 1385.67361,485.315261 L1385.67361,480.982932 Z M1386.80098,462.353414 C1390.93235,466.592369 1393,472.802209 1393,480.982932 L1393,485.315261 C1393,493.498996 1390.95782,499.708835 1386.87248,503.943775 C1382.78616,508.182731 1376.70467,510.297189 1368.62801,510.297189 L1339.32541,510.297189 L1339.32541,545.24498 C1339.32541,547.75 1338.10304,549 1335.66123,549 C1333.21943,549 1332,547.75 1332,545.24498 L1332,459.75502 C1332,457.252008 1333.21943,456 1335.66123,456 L1368.62801,456 C1376.60966,456 1382.66764,458.118474 1386.80098,462.353414 L1386.80098,462.353414 Z" id="Fill-17" fill="#23496E" mask="url(#mask-2)"></path>
        <path d="M1552.94251,547.988956 C1552.31354,547.316265 1552,546.399598 1552,545.24498 L1552,459.75502 C1552,458.600402 1552.31354,457.686747 1552.94251,457.011044 C1553.56959,456.339357 1554.42225,456 1555.4986,456 C1556.57775,456 1557.42947,456.339357 1558.05749,457.011044 C1558.68552,457.686747 1559,458.600402 1559,459.75502 L1559,545.24498 C1559,546.399598 1558.68552,547.316265 1558.05749,547.988956 C1557.42947,548.663655 1556.57775,549 1555.4986,549 C1554.42225,549 1553.56959,548.663655 1552.94251,547.988956" id="Fill-18" fill="#23496E" mask="url(#mask-2)"></path>
        <path d="M1753.88246,547.918337 C1753.17114,547.197562 1752.81892,546.310377 1752.81892,545.25177 L1752.81892,463.496459 L1722.67764,463.496459 C1721.63869,463.496459 1720.76798,463.137575 1720.06059,462.416801 C1719.35222,461.694021 1719,460.807839 1719,459.749232 C1719,458.595391 1719.35222,457.683145 1720.06059,457.008483 C1720.76798,456.338834 1721.63869,456 1722.67764,456 L1790.31843,456 C1791.45379,456 1792.34811,456.338834 1793.00631,457.008483 C1793.66746,457.683145 1794,458.595391 1794,459.749232 C1794,460.807839 1793.66746,461.694021 1793.00631,462.416801 C1792.34811,463.137575 1791.45379,463.496459 1790.31843,463.496459 L1760.17715,463.496459 L1760.17715,545.25177 C1760.17715,546.310377 1759.84657,547.197562 1759.18739,547.918337 C1758.52919,548.641116 1757.62897,549 1756.49951,549 C1755.45958,549 1754.58887,548.641116 1753.88246,547.918337" id="Fill-19" fill="#23496E" mask="url(#mask-2)"></path>
        <path d="M1941.53646,516.363454 L1981.46061,516.363454 L1961.5,467.841365 L1941.53646,516.363454 Z M2001,545.534137 C2001,546.787149 2000.1986,547.797189 1998.60754,548.566265 C1998.04363,548.855422 1997.43574,549 1996.78192,549 C1995.46842,549 1994.53313,548.22992 1993.96922,546.689759 L1984.54989,523.87249 L1984.12965,523.87249 L1938.584,523.87249 L1929.1676,546.689759 C1928.50987,548.22992 1927.47881,549 1926.07441,549 C1925.60335,549 1924.99644,548.855422 1924.24879,548.566265 C1922.74667,547.988956 1922,546.930723 1922,545.389558 C1922,544.620482 1922.09089,544.042169 1922.28049,543.657631 L1957.14217,458.88755 C1957.88883,456.962851 1959.29421,456 1961.35634,456 L1961.63976,456 C1963.51131,456 1964.86977,456.962851 1965.71417,458.88755 L2000.57585,543.657631 C2000.85634,544.330321 2001,544.956827 2001,545.534137 L2001,545.534137 Z" id="Fill-20" fill="#23496E" mask="url(#mask-2)"></path>
        <path d="M2160,545.24498 L2160,459.756024 C2160,457.252008 2161.21845,456 2163.66417,456 C2166.10696,456 2167.33031,457.252008 2167.33031,459.756024 L2167.33031,541.491968 L2210.33485,541.491968 C2212.77763,541.491968 2214,542.742972 2214,545.24498 C2214,547.75 2212.77763,549 2210.33485,549 L2163.66417,549 C2161.21845,549 2160,547.75 2160,545.24498" id="Fill-21" fill="#23496E" mask="url(#mask-2)"></path>
    </g>
</svg>