<?xml version="1.0" encoding="UTF-8"?>
<svg width="60px" height="61px" viewBox="0 0 60 61" version="1.1" xmlns="http://www.w3.org/2000/svg" xmlns:xlink="http://www.w3.org/1999/xlink">
    <!-- Generator: Sketch 59.1 (86144) - https://sketch.com -->
    <title>baoxian</title>
    <desc>Created with Sketch.</desc>
    <g id="Page-1" stroke="none" stroke-width="1" fill="none" fill-rule="evenodd">
        <g id="ACALA-Copy-4" transform="translate(-1019.000000, -1524.000000)">
            <g id="baoxian" transform="translate(1019.000000, 1525.000000)">
                <g id="Group-118">
                    <path d="M30.008622,14.6686372 L2.50350553,30.6578947 L30.008622,46.6471523 L57.5137384,30.6578947 L30.008622,14.6686372 Z" id="Rectangle-6" stroke="#0B34D5"></path>
                    <line x1="30.5" y1="27.0046292" x2="30.5" y2="0" id="Path-3" stroke="#0B34D5"></line>
                    <line x1="30.5" y1="59.0048072" x2="30.5" y2="33" id="Path-3" stroke="#0B34D5"></line>
                    <polygon id="Path-4" stroke="#0B34D5" points="2 42.9285714 2 16.9419782 30.3373494 0 58 16.9419782 58 42.9285714 30.3373494 59"></polygon>
                    <polyline id="Path-13" stroke="#0B34D5" points="2 43 30.3373494 27 58 43"></polyline>
                    <polyline id="Path-13" stroke="#0B34D5" points="58 17 30.3373494 33 2 17 2 17"></polyline>
                    <circle id="Oval-9-Copy-7" fill="#FFB200" cx="2.5" cy="30.5" r="2.5"></circle>
                    <circle id="Oval-9-Copy-7" fill="#FFB200" cx="57.5" cy="30.5" r="2.5"></circle>
                    <circle id="Oval-9-Copy-7" fill="#FFB200" cx="30.5" cy="14.5" r="2.5"></circle>
                    <circle id="Oval-9-Copy-7" fill="#FFB200" cx="30.5" cy="45.5" r="2.5"></circle>
                </g>
            </g>
        </g>
    </g>
</svg>