<?xml version="1.0" encoding="UTF-8"?>
<svg width="18px" height="18px" viewBox="0 0 18 18" version="1.1" xmlns="http://www.w3.org/2000/svg" xmlns:xlink="http://www.w3.org/1999/xlink">
    <!-- Generator: Sketch 63.1 (92452) - https://sketch.com -->
    <title>telegram</title>
    <desc>Created with Sketch.</desc>
    <g id="Page-1" stroke="none" stroke-width="1" fill="none" fill-rule="evenodd">
        <g id="PolkDeFi-Event" transform="translate(-919.000000, -6781.000000)" fill="#4E4E4E" fill-rule="nonzero">
            <g id="telegram" transform="translate(919.000000, 6781.000000)">
                <path d="M8.99419728,0 C4.02553191,0 0,4.02553191 0,8.99419728 C0,13.9628627 4.02553191,17.9883946 8.99419728,17.9883946 C13.9628627,17.9883946 17.9883946,13.9628627 17.9883946,8.99419728 C17.9883946,4.02553189 13.9628627,0 8.99419728,0 Z M13.9353965,5.71798839 L12.3001934,13.594971 C12.1794971,14.1535783 11.8541586,14.2889749 11.4003868,14.0263056 L8.90947775,12.149323 L7.70831722,13.3319149 C7.57562864,13.4673114 7.46305611,13.5825919 7.20618956,13.5825919 L7.38297873,10.9911025 L11.9988395,6.72804641 C12.2,6.54777562 11.9547389,6.44487427 11.6893617,6.62553191 L5.98491296,10.2970987 L3.52611218,9.51257253 C2.99187621,9.34042553 2.97988395,8.96673114 3.63829787,8.7040619 L13.2441006,4.9172147 C13.6901354,4.75280465 14.0796905,5.02823984 13.9353965,5.71798839 L13.9353965,5.71798839 Z" id="Shape"></path>
            </g>
        </g>
    </g>
</svg>