<?xml version="1.0" encoding="UTF-8"?>
<svg width="20px" height="16px" viewBox="0 0 20 16" version="1.1" xmlns="http://www.w3.org/2000/svg" xmlns:xlink="http://www.w3.org/1999/xlink">
    <!-- Generator: Sketch 63.1 (92452) - https://sketch.com -->
    <title>Group 103</title>
    <desc>Created with Sketch.</desc>
    <g id="Page-1" stroke="none" stroke-width="1" fill="none" fill-rule="evenodd">
        <g id="ACALA-Copy-5" transform="translate(-540.000000, -9104.000000)">
            <g id="Group-103" transform="translate(540.000000, 9102.000000)">
                <g id="wechat">
                    <rect id="Rectangle" x="0" y="0" width="20" height="20"></rect>
                    <path d="M19.6250658,10.3529464 C19.1275204,9.20725824 18.1888018,8.29734935 17.0989404,7.73695839 C15.1757518,6.74734945 12.7844293,6.75316092 10.8661426,7.76186465 C9.53363597,8.45674945 8.42089896,9.7020627 8.10554177,11.2171938 C7.84573973,12.3329945 8.07858118,13.5343067 8.66109328,14.505651 C9.52791703,15.968479 11.0948991,16.9024639 12.7223383,17.2021693 C13.9012512,17.4454205 15.1210136,17.3009642 16.2664301,16.9655598 C16.9543336,17.2362079 17.5670743,17.6745581 18.2337361,18 C18.0617076,17.4144282 17.8775723,16.8325997 17.6814525,16.254901 C18.4298131,15.7152653 19.1079127,15.0419659 19.5147725,14.1968133 C20.1226112,13.0220678 20.1593757,11.5642211 19.6250658,10.3529464 L19.6250658,10.3529464 Z M11.7294965,3.01511394 C9.58045614,1.86731176 6.90427641,1.69481441 4.59244301,2.48781165 C3.07304133,3.00693871 1.69834457,3.97161576 0.849064499,5.28374005 C0.0781662459,6.4691483 -0.210382253,7.94722974 0.160854773,9.30350027 C0.53381449,10.8077425 1.6346055,12.0691803 2.97054202,12.9112289 C2.71214037,13.6061234 2.46665881,14.3002004 2.23409733,15 C3.07390268,14.5830633 3.91370803,14.1473236 4.75437471,13.7238467 C5.76214113,14.0304178 6.83450796,14.180842 7.9068748,14.1473236 C7.62798231,13.3720851 7.55258835,12.5439685 7.6872334,11.7348135 C7.88103463,10.6139895 8.52703875,9.58881578 9.40474302,8.82933697 C10.8914138,7.50903744 12.9973873,6.95230433 15,7.08719563 C14.6244563,5.3417842 13.332448,3.86697283 11.7062403,3.01593147 L11.7294965,3.01593147 L11.7294965,3.01511394 Z M12.9286915,11.3589075 C12.7165679,12.0217173 11.7554149,12.2209668 11.2895551,11.7167434 C10.7759928,11.2501335 10.975937,10.2752338 11.6498606,10.0668351 C12.3948303,9.75169543 13.2555038,10.6127382 12.9286915,11.3589075 Z M16.9105383,11.4501209 C16.6557998,12.047459 15.7751611,12.1871097 15.3423048,11.7253449 C15.1343347,11.5306494 15.0736353,11.2370771 15,10.9812206 C15.1034875,10.5143591 15.4179302,10.0301686 15.925417,10.0077429 C16.6269427,9.90784679 17.2548332,10.7956992 16.8956122,11.4511402 L16.9105383,11.4511402 L16.9105383,11.4501209 Z M10.9992267,6.03864805 C11.0057533,6.82019437 9.95904178,7.30815253 9.37164324,6.77790466 C8.76221726,6.34280863 8.93517349,5.28393943 9.65065755,5.06517153 C10.2910851,4.8089935 11.0481766,5.3449342 10.997595,6.02888889 L10.9992267,6.03864805 Z M5.96464121,6.23898916 C5.82441261,6.91703498 4.91211148,7.24428343 4.37810142,6.78954612 C3.75930199,6.35510958 3.93295717,5.27835659 4.65937389,5.05910824 C5.37111553,4.78626585 6.17987578,5.50572525 5.96464121,6.23898916 Z" id="Shape" fill="#4E4E4E" fill-rule="nonzero"></path>
                </g>
            </g>
        </g>
    </g>
</svg>